<?xml version="1.0" standalone="no"?>
<!DOCTYPE svg PUBLIC "-//W3C//DTD SVG 1.1//EN" "http://www.w3.org/Graphics/SVG/1.1/DTD/svg11.dtd" >
<svg xmlns="http://www.w3.org/2000/svg" xmlns:xlink="http://www.w3.org/1999/xlink" version="1.1">
<metadata>
Created by FontForge 20201107 at Fri May 30 21:16:55 2014
 By Unknown
Copyright (c) James Grieshaber, 2005. All rights reserved.
</metadata>
<defs>
<font id="Trattatello" horiz-adv-x="328" >
  <font-face 
    font-family="Trattatello"
    font-weight="400"
    font-stretch="normal"
    units-per-em="1000"
    panose-1="2 15 4 3 2 2 0 2 3 3"
    ascent="800"
    descent="-200"
    x-height="453"
    cap-height="570"
    bbox="-1754 -2685 3375.97 2802"
    underline-thickness="50"
    underline-position="-100"
    unicode-range="U+0020-FE48"
  />
<missing-glyph horiz-adv-x="272" 
 />
    <glyph glyph-name=".notdef" horiz-adv-x="272" 
 />
    <glyph glyph-name="NULL" horiz-adv-x="0" 
 />
    <glyph glyph-name="nonmarkingreturn" horiz-adv-x="272" 
 />
    <glyph glyph-name="space" unicode=" " horiz-adv-x="272" 
 />
    <glyph glyph-name="space" unicode="&#xa0;" horiz-adv-x="272" 
 />
    <glyph glyph-name="numbersign" unicode="#" horiz-adv-x="456" 
d="M461 389q11 -9 6 -22q0 -13 -8.5 -25.5t-16.5 -19.5q-2 -4 -4 -4.5t-4 -0.5q-7 -5 -15 -4t-19 1h-36q2 -2 0.5 -13t-3.5 -17v-14l-2 -17q-2 -6 -3.5 -11.5t0.5 -7.5q-1 1 3.5 1h10.5h12.5t9.5 1q11 0 19 1t14 -3q5 0 8.5 -3.5t5.5 -8.5q1 -2 -1.5 -11.5t-7.5 -20.5
t-11.5 -20t-12.5 -9h-20h-10.5t-13 0.5t-11 1t-4.5 1.5q-2 -6 -5.5 -19.5t-7.5 -36.5q0 -4 -1.5 -12t-1.5 -10l-9 -30q-4 -13 -6.5 -24t-4.5 -15l-5 -14q-5 -5 -9.5 -3.5t-12.5 3.5h-9q-14 -8 -14 19q0 5 -1 10t1 10v11v8q0 13 3.5 26t5.5 24q4 15 4.5 20.5t0.5 18.5v17h-47
q-13 0 -22 -0.5t-9 -2.5q0 2 -6 -19t-10 -48q-5 -27 -11.5 -49.5t-8.5 -30.5q-5 -5 -14.5 -6.5t-17.5 -0.5q-11 1 -21 4q1 7 2 18t2.5 23t2.5 23t2 17l-3 25q2 10 3.5 14.5t3 7.5t2.5 7t2 15l-61 3h-17q-4 4 -6 6.5t-2 7.5q-2 6 0 13t8 12q4 7 11 11q5 5 23 5q6 0 17 1.5
t19 1.5l19 3q3 10 5.5 24t3.5 27t1.5 23.5t0.5 14.5q-2 -2 -15.5 -3t-25.5 -3h2h-25h-25q-8 2 -9.5 6.5t-1.5 10.5q2 5 4.5 8.5t4.5 8.5q0 -2 0.5 -1l4.5 9v3q4 16 22 19q9 2 18.5 1t18.5 -1q10 0 20.5 4.5t12.5 4.5q1 1 2 7.5t2 16t2 21t2 21.5q1 6 2 9.5t2 5.5t1.5 5
t0.5 8v17q0 13 3.5 27.5t24.5 14.5q3 0 11.5 0.5t18 0.5h17t8.5 -1q3 -3 3 -20q0 -11 -3.5 -25t-7.5 -31q-2 -20 -6.5 -41.5t-4.5 -35.5h3q6 2 17 2h19q14 0 22.5 1.5t10.5 1.5v11q0 10 3 25q2 11 3.5 23.5t1.5 18.5q2 8 4 14.5t2 13.5l3 11q0 13 2.5 21t16.5 12h20q2 0 2 3
q9 0 15.5 2.5t12.5 0.5q5 -2 8.5 -6.5t5.5 -15.5q0 -5 -0.5 -4.5t-4.5 -12.5l-3 -14q-2 -13 -5.5 -28.5t-3.5 -21.5t1 -12.5t-1 -12.5q-2 -11 -6.5 -20t-4.5 -11l36 3h31h19zM245 234q8 0 15.5 1t11.5 -1h12q2 7 4 19l4 24t3.5 22.5t1.5 14.5h-50q-4 0 -6.5 -0.5t-15.5 -2.5
h-8v-8q0 -5 -2 -12.5t-4 -15.5q-4 -21 -6 -30t-2 -11h14h28zM56 345q0 2 1 2h1q-2 0 -2 -2z" />
    <glyph glyph-name="dollar" unicode="$" horiz-adv-x="564" 
d="M133 475q0 16 6 27.5t15.5 20.5t21.5 17l24 16q21 13 39 22.5t39 13.5q2 21 3 41t3 34q5 2 12 8t14.5 13t14 14t9.5 10q6 0 14 -5t19 -9q4 -17 2 -26.5t-2 -23.5q0 -17 -4.5 -29t-9.5 -27q11 -2 19.5 -3.5t16.5 -7.5q17 -11 19.5 -24t2.5 -32q0 -10 -4.5 -21t-12.5 -20
t-18.5 -14.5t-22.5 -5.5q-5 0 -8.5 1.5t-5.5 1.5q-8 -13 -13 -36t-9 -50q17 -8 31.5 -14.5t35.5 -19.5q14 -12 27.5 -16.5t30.5 -19.5q16 -10 28 -18.5t20 -18.5t12 -22.5t4 -31.5v-23q0 -12 4 -21.5t4 -22.5q0 -21 -2.5 -34t-11.5 -30q-2 -8 -5.5 -13.5t-8.5 -11.5
q-4 -13 -13 -17t-17 -14q-9 -8 -17 -14t-16 -11.5t-16.5 -10.5t-20.5 -11q-19 -11 -32.5 -15.5t-36.5 -9.5q-6 -2 -11.5 -6.5t-13.5 -4.5q-6 0 -12.5 1.5t-12.5 1.5q-8 0 -13.5 -0.5t-11.5 -2.5q-2 -19 -6 -39.5t-11 -43.5q-6 -13 -14.5 -16.5t-13.5 -3.5l-8 3q-5 25 -6 41
t3 28q0 11 0.5 21t2.5 18q-8 2 -14.5 2.5t-13.5 0.5q-12 0 -18.5 6.5t-17.5 13.5q-13 6 -22 8.5t-20 13.5q-12 6 -14 15.5t-8 20.5q-6 17 -12.5 26.5t-6.5 29.5q0 29 21.5 50.5t53.5 21.5q19 0 36 -8.5t17 -25.5q0 -6 -1.5 -9t-1.5 -7q0 -7 2.5 -11t2.5 -9q0 -2 -1 -5.5
t-1 -5.5q0 -14 8 -25t19 -19q7 12 9 28t0 25q-1 10 2.5 30.5t8.5 42t8.5 39t2.5 21.5q5 11 7 28.5t4 40.5q-8 5 -12.5 9.5t-12.5 10.5q-11 4 -19.5 6t-16.5 11q-6 6 -10.5 11t-9.5 14q-8 12 -16.5 18t-8.5 21q0 8 -1 12t-1 13q0 6 -1.5 12t-1.5 13q0 4 2.5 6.5t2.5 6.5v14z
M261 61q0 -8 -1 -16t-1 -14q33 0 55 6.5t45 29.5q12 14 24 35.5t12 42.5q0 12 -3 19.5t-3 21.5q0 2 -2.5 4.5t-2.5 4.5q0 15 -8 25t-21 18t-28 14.5t-30 14.5q0 -15 -2 -34t-5.5 -36.5t-7.5 -31.5t-7 -18q4 -8 3 -15t-4 -13t-5.5 -12t-1.5 -12zM259 403q4 27 7 53.5t9 55.5
q-25 -7 -47 -22.5t-22 -36.5q0 -14 5 -22t12.5 -13.5t17 -8.5t18.5 -6z" />
    <glyph glyph-name="percent" unicode="%" horiz-adv-x="656" 
d="M253 97q-11 -17 -18 -32t-18 -26q-13 -25 -26.5 -46t-32.5 -49q-5 -4 -13 -6.5t-16.5 -3.5t-15.5 -1h-10l5 11q5 19 8.5 35t14.5 24q1 5 4.5 10.5t7.5 10t8 8.5t5 7q11 19 16.5 34.5t16.5 26.5q6 8 14 21.5t8 20.5q2 9 12 25.5t21 33t20.5 30t10.5 16.5q9 10 19.5 29.5
t20.5 40.5t20 39.5t18 27.5q19 31 36 60t36 65q11 29 21 53.5t18 43.5q7 0 16.5 2.5t18.5 6t16 6.5t10 4q9 0 15.5 -5.5t12.5 -13.5q0 -14 -5 -22t-11 -22q-5 -13 -13.5 -22t-14.5 -20l-3 -9t-4.5 -12t-6 -10.5t-6.5 -4.5q-5 -7 -8.5 -12t-6.5 -10q-4 -5 -7 -9
q-8 -11 -10 -17t-4 -19q-11 -8 -24 -28.5t-26 -43t-24.5 -42.5t-19.5 -28q-2 -8 -11 -25t-19.5 -34.5t-20 -32.5t-13.5 -19q1 -6 -3 -11.5t-9 -10l-10 -9t-6 -8.5zM139 567q17 8 43.5 6.5t45.5 -3.5q14 -2 25.5 -6.5t16.5 -15.5q3 -5 5.5 -14.5t4.5 -19.5t3 -18t1 -10
q0 -23 0.5 -45.5t-3.5 -45.5q-5 -21 -12.5 -37t-15.5 -33q-11 -21 -27 -37t-37 -24q-21 -13 -52 -14.5t-56 6.5q-5 2 -10.5 10.5t-12.5 8.5q-10 5 -15 16t-7.5 24t-2.5 26.5v22.5t1 24.5t3 32t4.5 31.5t5.5 23q17 34 41 53.5t51 38.5zM139 498q-11 -3 -15 -7.5t-5 -10
t-1.5 -11.5t-3.5 -13q0 -2 -1.5 -7t-1.5 -10v-16q-2 -7 -3.5 -10.5t-1.5 -9.5q0 -8 2 -18t0 -18q0 -6 3.5 -14t8.5 -14q13 -22 33 -22q6 -2 18.5 4t17.5 13q12 12 19 32t8 42.5t-5 44t-19 36.5q-5 5 -11.5 6t-10.5 3q-5 4 -15 4t-16 -4zM475 295q9 3 20.5 3.5t23.5 0.5
t24 -1t21 -1q15 -2 27.5 -14t17.5 -24q3 -5 5.5 -14t4.5 -19t3 -17.5t1 -8.5q-2 -33 -7 -66.5t-16 -62t-29 -50.5t-46 -32q-20 -13 -51.5 -15t-56.5 7q-5 2 -10.5 9.5t-11.5 12.5q-11 5 -17 15.5t-9 23t-4 25.5t-1 22q-1 10 0.5 25t5 30t7.5 29.5t7 23.5q17 32 40.5 54.5
t50.5 43.5zM475 225q-10 -4 -14 -8.5t-5.5 -9.5t-2 -11t-3.5 -13q0 -2 -4 -8t-4 -11v-17q-2 -6 -4 -9.5t-2 -9.5q0 -8 1.5 -17.5t1.5 -15.5q0 -9 6 -16t11 -15q11 -19 33 -22q7 -2 18.5 5t17.5 11q12 13 19 33t8 42t-5 43.5t-19 37.5q-4 5 -10.5 6t-11.5 5q-5 2 -14.5 3.5
t-16.5 -3.5z" />
    <glyph glyph-name="ampersand" unicode="&#x26;" horiz-adv-x="992" 
d="M381 631h8h28q13 0 25.5 -6.5t21.5 -17.5t14.5 -25t5.5 -29q0 -11 -8 -19t-18.5 -13.5t-22 -8.5t-18.5 -3q-21 0 -37 7t-29.5 15t-24.5 15t-23 7q-14 0 -31.5 -6.5t-33.5 -17.5t-27 -26t-11 -33q0 -6 3.5 -15.5t10 -18.5t15 -15.5t18.5 -6.5h20q3 0 15 -3t25.5 -8t24 -12
t10.5 -16q0 -6 -3 -13.5t-7 -14.5t-9 -11.5t-9 -4.5h-39q-21 -4 -40.5 -11.5t-35.5 -19t-25.5 -27.5t-9.5 -37q0 -46 26.5 -79.5t63.5 -55.5t77 -32.5t67 -10.5q4 0 13.5 1t18.5 3q11 2 23 5l18 9q8 4 16 7t16 3q17 0 32.5 10.5t29.5 25t26.5 30t22.5 26.5q21 22 30 33t9 25
q0 21 -9 31t-30 17q-10 5 -20 3q-4 -1 -7 -3q-8 0 -19 -5.5t-22 -13.5t-18.5 -19t-7.5 -21v-8q0 -11 -6 -19.5t-14.5 -14.5t-18.5 -9.5t-17 -3.5t-12.5 4.5t-9 10.5t-5 12.5t-1.5 10.5q0 39 17.5 69.5t45 52.5t61 33.5t65.5 11.5h45q14 -6 34.5 -7t43.5 -1h8h20
q28 0 51.5 16t45.5 35.5t43.5 35.5t45.5 16q10 0 16 -7t8.5 -16.5t3 -19t0.5 -13.5q0 -15 -7.5 -35.5t-19.5 -40t-27 -33t-30 -13.5q-6 0 -11 5q-3 3 -5 6h-23q-12 -8 -25.5 -10.5t-21.5 -8.5q-11 0 -23.5 0.5t-23 -1.5t-18 -8.5t-7.5 -21.5q0 -28 -10 -52.5t-25.5 -44.5
t-34 -35.5t-36.5 -25.5q-13 -7 -22.5 -20t-21.5 -28q-8 -6 -20.5 -7t-18.5 -1q-42 -21 -85 -37.5t-85 -29.5h-28h-19h-28h-28q-11 0 -41 16.5t-62.5 37.5t-60 41t-33.5 28q-17 20 -24 42.5t-15 51.5v28v30v17q0 18 10.5 35.5t23 33t23 29.5t10.5 24t-4.5 19.5t-9.5 17.5
t-9.5 15.5t-4.5 14.5q0 21 8.5 50t25.5 56t41 45.5t56 18.5h47h19h28q8 0 19.5 4t19.5 4h8h20z" />
    <glyph glyph-name="quotesingle" unicode="'" horiz-adv-x="250" 
d="M89 542q-2 13 2.5 19.5t3.5 19.5q-2 13 -2 21t2 21q1 11 3 19t4 15.5t4.5 16.5t4.5 21q1 12 1.5 26t2 27.5t5 25t11.5 16.5l44 8q8 3 17.5 9t18 9t15 0.5t8.5 -15.5q4 -21 -2.5 -37.5t-17.5 -35.5q-11 -23 -19.5 -51t-16.5 -57q-5 -18 -9 -34.5t-9 -31t-12.5 -27
t-19.5 -21.5q-6 -5 -13 -12t-15 -2q-6 5 -8.5 22t-2.5 28z" />
    <glyph glyph-name="parenleft" unicode="(" horiz-adv-x="270" 
d="M211 -192q-27 0 -48 22.5t-46 49.5q-19 17 -34.5 37t-15.5 47q0 8 -5.5 18t-5.5 21q0 22 -3.5 34.5t-8 24t-8 24.5t-3.5 36v23q0 8 -7 16.5t-7 19.5v22v25q0 9 0.5 13.5t1 7l1 5t0.5 7.5q0 8 -1.5 12.5t-1.5 15.5q0 8 3 13t7 9.5t7 10t3 14.5q0 8 2.5 18t2.5 21
q0 22 5 38.5t13.5 32t18.5 32t19 39.5q0 8 7 11t7 11q0 10 5 18q3 4 6 7q0 18 4.5 30.5t13 23t20 20.5t26.5 24q8 4 13 8.5t9.5 10t10 12.5t14.5 16q8 19 21 32t40 21q33 0 48 19q8 8 12.5 15t23.5 7q3 0 7 2t7 2t5.5 -3t2.5 -12t-6 -15t-13.5 -11t-15.5 -12.5t-12 -19.5
q-17 -11 -28 -23.5t-19 -12.5q-23 -14 -36.5 -29t-23.5 -30t-20.5 -28t-28.5 -22q-9 -5 -12.5 -12t-5.5 -14.5t-5.5 -16.5t-12.5 -18q-27 -27 -37 -56.5t-10 -73.5q-11 -17 -18 -31.5t-7 -41.5v-25q0 -8 -4.5 -18t-4.5 -18q0 -19 1.5 -23.5t1.5 -12.5t-1.5 -18t-1.5 -18
q0 -9 3 -16.5t7 -14t7 -13t3 -15.5t1 -12t2.5 -4.5t3 -4.5t1.5 -12q5 -14 7 -25t13 -22q6 -17 8.5 -32t10.5 -32q5 -14 13.5 -21.5t16.5 -13t14 -11.5t6 -15q9 0 14.5 -6t9 -13.5t6 -16t6.5 -12.5q4 -5 10 -8t11 -5t9 -5t4 -7q0 -17 -1 -26.5t-8 -9.5q-9 0 -14.5 -1.5
t-10.5 -4t-10.5 -4t-14.5 -1.5z" />
    <glyph glyph-name="parenright" unicode=")" horiz-adv-x="286" 
d="M17 762q0 23 19 36.5t42 13.5q15 0 23 -5t14 -13t11 -18.5t13 -22.5q7 -15 17 -22.5t19 -13.5t15.5 -14.5t6.5 -26.5q0 -9 1.5 -17t1.5 -14q0 -15 7 -24.5t7 -17.5q0 -21 2.5 -32.5t8.5 -25.5q8 -8 9.5 -15.5t1.5 -15.5v-39q0 -29 5.5 -55.5t5.5 -63.5q0 -15 -2.5 -26.5
t-5.5 -22.5t-5.5 -22.5t-2.5 -25.5q0 -5 0.5 -12t0.5 -13.5t-1.5 -11.5t-5.5 -5q-3 -29 -8 -46t-12.5 -31t-17 -29.5t-20.5 -41.5q-8 -22 -13.5 -38t-13 -30t-17.5 -28.5t-26 -33.5q-11 -15 -21 -24.5t-20 -16t-21.5 -11t-26.5 -7.5q-7 -4 -14.5 -11t-15.5 -13.5t-16 -11.5
t-15 -5q-11 0 -17 0.5t-9 2.5t-3.5 6.5t-0.5 12.5q0 19 7 31t18.5 21t25.5 17t29 20q46 14 71.5 38.5t39.5 72.5q15 32 29.5 60.5t26 57.5t18.5 59.5t7 67.5v30v31q0 12 -2 20t-5 15t-5 15t-2 19q0 15 -8.5 25t-8.5 23q-7 30 -15 53.5t-17.5 44t-21 40t-26.5 42.5
q-4 4 -9.5 5t-11 1t-10.5 0.5t-8 5.5q-17 20 -19.5 42.5t-2.5 43.5z" />
    <glyph glyph-name="asterisk" unicode="*" horiz-adv-x="453" 
d="M297 378q-12 -6 -10 -13.5t10 -19.5q1 -3 8 -11t15 -16t16 -15.5t11 -10.5q5 -12 5 -19t-4.5 -12.5t-13 -10.5t-20.5 -11q-11 -6 -21 -11t-18 6q-4 8 -9 19.5t-10.5 23.5t-11 23t-10.5 20q-5 8 -12 9.5t-14 -9.5q-9 -9 -14 -19.5t-9.5 -21.5t-9.5 -21.5t-14 -18.5
q-6 -8 -12 -8.5t-12.5 4t-13 12t-12.5 14.5q-5 5 -13.5 8t-15 6t-9.5 6t2 8q8 6 19 14.5t17 13.5q7 7 18.5 14.5t19.5 14.5t10.5 14.5t-6.5 14.5q-2 5 -8 6.5t-14 7.5q-21 8 -38.5 12.5t-36.5 12.5q-13 7 -10.5 16t7.5 18q3 6 8 14.5t11 15.5t12.5 10.5t12.5 0.5
q21 -11 34 -24t36 -26q8 -2 13.5 -2t14.5 2l-3 25q-2 23 -3 38.5t-6 34.5q-9 19 -7.5 25t9 6t18.5 -2t22 1q3 1 11 3t17 3t17 0t11 -6q2 -2 0 -10t-5 -17q-4 -11 -9 -23q-2 -7 -2.5 -15.5t-1.5 -17.5t-3 -18.5t-7 -17.5q5 0 5.5 -4.5t2.5 -4.5q5 5 9 6t11 3q6 4 13.5 3.5
t14.5 1.5q6 3 8 5.5t3 4.5t3.5 5t10.5 7q5 2 9.5 6t9 6t8 2t6.5 -5q2 -8 3.5 -11.5t3 -6.5l3.5 -7t4 -11q1 -3 5.5 -8.5t9 -11.5t6.5 -11t-2 -8q-9 -4 -23 -8t-28.5 -7.5t-28.5 -7.5t-23 -8z" />
    <glyph glyph-name="plus" unicode="+" horiz-adv-x="453" 
d="M183 222q0 13 -8 16.5t-22 3.5q-3 0 -11.5 -2t-18 -5t-18.5 -5t-13 -2q-13 0 -19.5 3.5t-9 10.5t-2.5 17.5v24.5q0 10 1.5 21.5t12.5 11.5q21 0 44 -4t42 -4q11 0 19.5 5.5t8.5 16.5q0 13 -4 23.5t-8.5 20.5t-8.5 20t-4 22q0 21 15.5 23t34.5 2q7 0 15 3t15 5.5t11 2
t4 -7.5q0 -8 -3 -22.5t-3 -24.5q0 -9 -1 -20.5t-0.5 -22.5t4 -19.5t11.5 -10.5q11 -2 17.5 -1t12.5 1q23 0 41.5 4.5t39.5 4.5q13 0 15 -10t2 -21q0 -7 -1 -16t-4 -16.5t-8 -12.5t-12 -5q-26 0 -43.5 1.5t-42.5 1.5q-11 0 -13 1.5t-7 -4.5q-8 -11 -11 -12.5t-3 -12.5
q0 -8 1.5 -16t1.5 -15q0 -6 -3 -9.5t-3 -9.5q0 -8 1.5 -11t3 -5t3 -5.5t1.5 -11.5q0 -13 2 -22t-11 -9h-36q-5 0 -13.5 -3t-16.5 -5t-14 -2.5t-6 4.5q0 10 3.5 25.5t7.5 32t7.5 31.5t3.5 25z" />
    <glyph glyph-name="comma" unicode="," horiz-adv-x="256" 
d="M67 142q0 14 13 18t26 12q4 3 6.5 9t5 11t6 8.5t9.5 2.5q9 0 14 -4t11 -10q28 -19 33.5 -44t5.5 -59q0 -15 -3.5 -26.5t-9.5 -22.5t-13.5 -22t-14.5 -23q-17 -26 -32 -42t-41 -31q-19 -10 -35.5 -21.5t-34 -21t-36 -15.5t-41.5 -6q-2 0 -5.5 2t-7.5 4q-4 3 -9 6
q3 13 11 22t19 16t22.5 13.5t22.5 14.5q21 16 40.5 30t35.5 30t25.5 35.5t9.5 46.5q0 10 -5 17.5t-11.5 14.5t-11.5 15t-5 20z" />
    <glyph glyph-name="hyphen" unicode="-" horiz-adv-x="322" 
d="M200 335q8 0 16 7.5t20 3.5q7 7 14.5 12t24.5 5v-17q0 -3 -2 -11.5t-6 -19t-9.5 -21t-12.5 -17.5q-7 0 -14.5 -1.5t-22.5 -1.5q-6 0 -15.5 -3.5t-17.5 -10.5q-6 -6 -19.5 -8t-27.5 -8q-8 0 -16 -7t-15 -7q-6 -7 -20.5 -8t-29.5 -1h-8q0 7 1 24t7 24q23 12 42 25.5
t42 21.5q6 6 18 6.5t26 7.5z" />
    <glyph glyph-name="hyphen" unicode="&#x2010;" horiz-adv-x="322" 
d="M200 335q8 0 16 7.5t20 3.5q7 7 14.5 12t24.5 5v-17q0 -3 -2 -11.5t-6 -19t-9.5 -21t-12.5 -17.5q-7 0 -14.5 -1.5t-22.5 -1.5q-6 0 -15.5 -3.5t-17.5 -10.5q-6 -6 -19.5 -8t-27.5 -8q-8 0 -16 -7t-15 -7q-6 -7 -20.5 -8t-29.5 -1h-8q0 7 1 24t7 24q23 12 42 25.5
t42 21.5q6 6 18 6.5t26 7.5z" />
    <glyph glyph-name="period" unicode="." horiz-adv-x="242" 
d="M103 172q4 0 21.5 -9.5t36.5 -23.5t34.5 -29t15.5 -27q0 -7 -16 -25t-36.5 -36.5t-40 -32.5t-26.5 -14q-11 0 -21.5 11.5t-18.5 25.5t-13.5 27.5t-5.5 16.5q0 4 8 20t19.5 35t23 36.5t19.5 24.5z" />
    <glyph glyph-name="slash" unicode="/" horiz-adv-x="353" 
d="M122 69q-11 -19 -18 -36.5t-15 -29.5q-11 -32 -22 -56.5t-28 -57.5q-5 -5 -13 -8t-16.5 -4.5t-15 -1.5h-8.5l3 11q2 23 5 39.5t12 27.5q1 5 4 11t6.5 12t7 11.5t4.5 9.5q8 21 13 39t12 31q8 11 15 25t7 25q2 10 10.5 29t17.5 38.5t16.5 35t8.5 19.5q9 12 18 34.5
t17.5 46.5t17 45.5t16.5 32.5q15 35 28.5 68.5t27.5 75.5q11 34 18 62t15 49q6 0 15.5 4t18.5 9t16.5 10.5t10.5 7.5q7 0 13.5 -7t14.5 -15q0 -17 -5 -25.5t-9 -24.5q-2 -15 -9.5 -26.5t-15.5 -23.5q0 -5 -0.5 -12t-2 -13.5t-4.5 -11.5t-7 -5q-10 -16 -14 -24q-3 -6 -5 -12
q-6 -13 -8.5 -19.5t-2.5 -16.5q-11 -13 -22 -37.5t-21.5 -51t-20.5 -50.5t-17 -34q-1 -9 -8.5 -28.5t-16.5 -39.5t-18.5 -37.5t-14.5 -22.5q3 -7 0 -13t-7.5 -11.5t-8.5 -11t-4 -11.5z" />
    <glyph glyph-name="zero" unicode="0" horiz-adv-x="489" 
d="M208 562q15 8 35.5 10t43 1t44.5 -3.5t39 -2.5q23 -4 45 -14.5t33 -29.5q5 -9 9 -25.5t6.5 -33.5t3.5 -31.5t0 -18.5q0 -60 -6.5 -118.5t-25 -111t-51 -97t-84.5 -76.5q-20 -12 -45 -19t-51.5 -9t-52.5 1t-48 10q-11 2 -17.5 3t-18.5 6q-19 10 -27.5 34.5t-11.5 53
t-2.5 56t-0.5 45.5q0 18 0.5 43.5t2 53t5.5 53t11 42.5q29 62 70.5 102t93.5 76zM203 464q-23 -9 -31 -21.5t-10 -26t-2 -27.5t-7 -28q0 -6 -3 -10t-3 -12v-39q-6 -11 -10 -20t-4 -21q0 -19 5.5 -38t3.5 -38v-33.5t11 -35.5q14 -23 31.5 -34t40.5 -13q8 -1 17.5 2.5t18.5 9
t16.5 12.5t11.5 12q27 27 46 72t25 94.5t-3.5 98t-39.5 82.5q-11 13 -26.5 15.5t-26.5 7.5q-13 6 -31.5 2.5t-29.5 -11.5z" />
    <glyph glyph-name="one" unicode="1" horiz-adv-x="448" 
d="M67 503q19 3 45.5 13.5t55.5 22t57 21t50 10.5q11 0 19 -2t15 -4q4 -2 4.5 -13.5t0.5 -13.5q2 -55 -2 -104t-12 -99q-2 -36 -3 -73t-5 -72q-1 -5 -1.5 -17.5t-0.5 -26t0.5 -25.5t1.5 -17q-1 -13 2.5 -21.5t11 -15t17.5 -12t22 -12.5q12 -8 28 -15.5t25 -15.5
q14 -14 10 -25.5t-24 -13.5q-11 0 -22.5 7.5t-22.5 9.5q-11 1 -18 1.5t-14 0.5t-14.5 0.5t-17.5 2.5q-22 4 -51 1.5t-57.5 -6.5t-53.5 -5t-38 8q-14 7 -17.5 14.5t0 14.5t12.5 13.5t21 11.5q26 12 70 23q8 13 12.5 36t7 50.5t3 57.5t0.5 58t-0.5 51.5t-0.5 38.5q1 14 1 23
v16.5v15t2 18.5q0 1 -0.5 6.5t-1.5 12t-1.5 12t-1.5 5.5q-11 2 -20.5 -1.5t-18.5 -9t-19 -10t-20 -4.5q-15 0 -26 2.5t-16 16.5q-4 11 -3 23t9 16z" />
    <glyph glyph-name="two" unicode="2" horiz-adv-x="448" 
d="M64 425q-6 -4 -12 -3t-11.5 4.5t-10 9t-8.5 9.5q-9 7 -7.5 17t9 20.5t17.5 20t17 14.5q12 8 27.5 19.5t32.5 21.5t35 16t33 4q8 0 22.5 -1t25.5 1q10 4 26.5 0.5t34 -11t32 -18.5t20.5 -21q21 -30 29 -51t7 -39t-9 -36t-18 -43q-5 -11 -8 -24t-9 -24q-4 -9 -13 -19
t-20 -19.5t-21.5 -18.5t-17.5 -18q-11 -12 -21 -26.5t-18 -28.5q-6 -15 -16.5 -28t-20.5 -24.5t-17 -21.5t-7 -18q0 -5 8.5 -5t10.5 2q15 4 27 4t23.5 -1t24 -1.5t28.5 1.5q17 3 35 13.5t36 21.5t34 20t29 9q11 0 12.5 -12t-3 -30.5t-13.5 -40t-18 -40.5t-16.5 -32.5
t-9.5 -14.5q-14 -8 -31 -7.5t-35.5 4t-36 8.5t-30.5 6q-4 1 -17.5 1h-32h-40t-41.5 2q-11 2 -20.5 1.5t-18 -2t-16 -2t-12.5 2.5q-6 4 -12 11.5t-10 15.5t-5.5 16t0.5 13q4 10 12.5 16.5t18.5 11.5t19.5 9.5t15.5 12.5q11 14 25 31t31 30q6 8 13 14t15 17q2 6 4 14l4 16
q7 22 21.5 41.5t28 39.5t22.5 42.5t6 49.5q-4 27 -23 49t-44 32t-51.5 5t-45.5 -31q-6 -6 -11.5 -13t-13.5 -15z" />
    <glyph glyph-name="three" unicode="3" horiz-adv-x="461" 
d="M58 489q6 13 25 27t44 25.5t53.5 19.5t53.5 9q8 0 16.5 -3t16.5 -3t16 1.5t14 1.5q38 -4 64.5 -25t38.5 -44q12 -24 11 -47.5t-9.5 -45.5t-22.5 -41.5t-29 -35.5q-8 -6 -23 -11.5t-30 -7.5q-10 -5 -18 -3.5t-4 -5.5q0 -2 3.5 -2.5t5.5 -2.5q15 -3 30 -5t29.5 -6t28 -11
t26.5 -20q19 -19 30 -39t11 -39q5 -27 -4 -60.5t-26 -56.5q-21 -25 -52 -38t-57 -26q-21 -9 -44 -12t-45.5 -3t-42 2t-32.5 2q-25 0 -42.5 6t-32.5 11q-7 2 -16 7.5t-16.5 12.5t-12.5 15t-5 15q-2 8 7 11t15 11q4 9 9 17t11 13t12.5 5t12.5 -7q8 -11 30 -28.5t50.5 -30.5
t58.5 -15.5t55 18.5q13 13 26 30t13 40q0 20 -6 41t-17 39.5t-27 32.5t-36 20q-8 5 -22.5 10t-35.5 10q-8 1 -14.5 -0.5t-12 -2.5t-10.5 1t-10 10q-3 6 -6 13.5t-4 14t0.5 11.5t6.5 6q13 5 34 5t43.5 3.5t44.5 14.5t39 38q8 8 9.5 19t1.5 25q-2 9 -6 21t-11 23t-16.5 17
t-21.5 3q-11 0 -17 0.5t-17 2.5q-11 0 -19.5 -2t-19.5 -6q-1 -1 -7 -8.5t-14 -17t-18 -19t-19 -14.5q-15 -6 -28.5 1.5t-13.5 34.5q1 5 0 8t-2.5 6t-2 6t1.5 8z" />
    <glyph glyph-name="four" unicode="4" horiz-adv-x="495" 
d="M361 183q0 -17 -0.5 -22t-1.5 -8t-1 -7.5t1 -20.5q2 -11 6 -21t2 -18q0 -6 -1 -13t4 -12q1 -8 9 -11.5t17.5 -5.5t19.5 -4t15 -7v-33q2 -5 -5.5 -6.5t-21 -1.5t-31.5 1t-39 1q-14 0 -31.5 -1.5t-35 -2.5t-32.5 -0.5t-24 4.5q-14 7 -21 11.5t-7 11.5q-6 16 1 23t18.5 10
t23.5 5.5t16 11.5q1 1 2.5 -1.5t2.5 -3t2 4t1 19.5q2 7 2.5 12.5t0.5 9.5q0 9 0.5 14.5t2.5 13.5q0 19 -1.5 31t-1.5 16q0 5 -10 3.5t-12 -3.5h-89h-35.5h-35t-27.5 0.5t-13 2.5q-2 1 -4.5 6t-4.5 11.5t-3.5 12.5t-1.5 9q-5 13 5.5 29.5t27 32.5t33.5 29.5t23 19.5
q4 8 8.5 17.5t10.5 16.5q6 11 19 22t17 22q11 13 17 21.5t17 23.5q10 14 27 24.5t31 25.5q3 4 13 17t22.5 26.5t25.5 23.5t22 8q4 -1 11 -7t14.5 -13.5t13 -14.5t6.5 -10q-2 -8 -4.5 -13.5t-5.5 -10t-5.5 -10t-4.5 -13.5q2 -5 2.5 -15.5t0.5 -15.5q2 -35 -0.5 -70t-4.5 -69
q-1 -2 -1.5 -11t-0.5 -18.5t0.5 -17.5t1.5 -8q2 -5 8 -5.5t14 -0.5q13 0 31.5 5t35.5 9q26 15 33 11q8 -4 9 -12t-1 -17t-6 -18t-5 -14q-2 -6 -2.5 -14.5t-0.5 -13.5q-6 -12 -12 -19.5t-13 -7.5q-5 -1 -10.5 0.5t-13 4t-17.5 5t-25 3.5h-23zM125 259q24 6 46 7t39 0
q19 -2 37 -5q7 29 10.5 58.5t1.5 61.5q2 6 1 15t-1 15q1 2 1.5 7l1 10t0.5 8.5t-1 2.5q-29 -29 -49 -62.5t-45 -62.5q-8 -7 -15.5 -18t-13 -21t-9 -15.5t-4.5 -0.5z" />
    <glyph glyph-name="five" unicode="5" horiz-adv-x="456" 
d="M128 556q12 -5 23.5 -7t22.5 -2t22.5 0.5t25.5 0.5q42 -2 72 -2.5t53 7.5q15 5 23 15t22 19q5 2 12.5 2.5t12.5 2.5q2 0 7 -1.5t10 -1.5q7 -1 5 -10.5t-7.5 -22t-12 -24t-8.5 -15.5q-5 -7 -8 -18t-5.5 -23t-5.5 -23t-8 -17q-9 -5 -16 -5t-14 2t-14 5t-15 4q-11 5 -23 5.5
t-27 2.5q-8 0 -15 -0.5t-15 3.5q-17 5 -25 2.5t-23 -2.5h-13t-5 -0.5t-1.5 -1t-2.5 -1.5q-2 0 -1.5 -7.5t-3.5 -36.5q2 -5 1.5 -13.5t-2 -17t-2.5 -17t0 -13.5q3 -9 10.5 -8t17.5 5t22 9t25 5q19 0 42.5 -5.5t46.5 -11.5q30 -11 50 -27.5t32.5 -36t18.5 -40.5t7 -40
q0 -20 -0.5 -35t-2.5 -28t-6.5 -25.5t-12.5 -25.5q-26 -37 -52 -58t-51.5 -31.5t-51 -13.5t-51.5 -3q-7 0 -37 4t-64.5 11t-63 15.5t-32.5 16.5q-6 11 -3 26.5t3 23.5q8 13 14.5 19.5t13.5 11.5q6 6 10.5 14t8.5 8q5 0 9.5 -2t12.5 -6q4 -4 9.5 -11.5t11.5 -15t13.5 -15
t15.5 -11.5q10 -4 17 -8.5t13 -8.5t12 -7t14 -4q11 -2 23.5 -2.5t23.5 -0.5q15 0 22 6t20 17q16 18 25.5 32t13 28.5t1.5 31.5t-7 41q-6 11 -6.5 21t-7.5 18q-10 8 -20.5 17.5t-23.5 15.5q-11 11 -16.5 14.5t-22.5 8.5q-9 2 -22.5 -1t-28 -7.5t-29 -9.5t-26.5 -7
q-4 -2 -12 0.5t-10 4.5t-1 9.5t1 18.5q3 11 6 26t5 29t3.5 26.5t2.5 18.5q-1 12 -3 31t-3 40.5t-0.5 41.5t3.5 34q0 11 10 13t18 4z" />
    <glyph glyph-name="six" unicode="6" horiz-adv-x="475" 
d="M353 589q8 0 16.5 -11t12.5 -26t1 -31.5t-16 -28.5q-5 -3 -12.5 -2.5t-15.5 1t-15.5 0t-12.5 -4.5q-8 -5 -21 -9t-27 -9.5t-28 -12.5t-24 -19q-2 -2 -1.5 -4t-1.5 -7q-2 0 -6.5 -1.5t-4.5 -3.5q-20 -19 -27 -36t-17 -34q-11 -26 -16.5 -42t-7.5 -25t-2 -12.5t1 -3.5
q4 -2 6.5 2t4.5 6q5 7 9.5 12t10 8.5t12.5 7t18 8.5q16 13 28.5 18.5t41.5 9.5q12 6 30.5 1.5t32.5 -6.5q12 0 25.5 -2.5t26.5 -7.5t24.5 -11.5t18.5 -15.5q8 -8 12 -13.5t10 -22.5q5 -11 9.5 -20.5t4.5 -18.5q5 -27 -2 -51.5t-12 -45.5q-5 -20 -6.5 -32t-5.5 -21t-13 -19
t-30 -25q-3 -1 -13 -6l-21 -10.5t-20.5 -10t-12.5 -4.5q-5 -1 -16.5 -3.5t-24 -5.5t-24 -5t-16.5 -2q-40 0 -76.5 4t-67.5 23q-34 21 -51.5 59.5t-23.5 82.5q0 15 -1 38.5t3 42.5q11 69 42 127.5t84 102.5q17 19 36.5 36t38.5 34q27 21 61 37.5t72 20.5zM136 181
q0 -15 1.5 -25t1.5 -23q0 -12 4.5 -18.5t9.5 -17.5q6 -8 11 -15t11 -15q17 -13 32 -20.5t40 -7.5q28 0 52 16.5t32 41.5q6 19 8 30t0 26q-4 23 -9.5 41t-18.5 31q-12 11 -21.5 20.5t-22.5 15.5q-13 5 -24 5.5t-23 0.5q-16 0 -29.5 -7.5t-24.5 -20t-19 -28t-11 -30.5z" />
    <glyph glyph-name="seven" unicode="7" horiz-adv-x="423" 
d="M53 548q13 13 44 8q21 -1 49.5 -2t57 -1.5t52.5 -1.5t36 -3q21 -3 33 -3.5t19.5 0t12.5 2t10 1.5q3 2 2.5 2.5t-0.5 1t2 2t10 5.5q6 2 17 5.5t19 5.5q6 4 11.5 -3t7.5 -14q2 -4 -0.5 -8t-4.5 -6q-6 -17 -17 -35.5t-19 -30.5q-8 -15 -19.5 -29.5t-19.5 -29.5
q-7 -14 -11.5 -29t-10.5 -32q-2 -3 -7 -9.5t-10 -14t-9 -15t-5 -11.5q-7 -16 -12.5 -26.5t-10.5 -19.5t-10 -19.5t-11 -26.5q-9 -25 -20 -43.5t-22 -45.5q-8 -24 -2 -39t15.5 -25.5t17.5 -18.5t5 -17q-11 -29 -39.5 -39t-60.5 -8q-8 1 -17 4t-17 6t-13.5 5.5t-5.5 3.5
q-1 1 -3.5 6.5t-4.5 12t-3 14t0 12.5q6 23 11 42t11 30q6 8 9.5 14t5.5 11t4 11t6 14q7 5 7.5 14t6.5 14q5 2 7 11t7 14q25 40 47.5 78.5t49.5 80.5q5 7 13.5 18.5t16 24.5t11.5 25t1 20q0 4 -7 2q-4 -1 -7 -2q-14 -4 -22.5 -5.5t-16.5 -1.5h-17t-22 -1h-20.5t-37.5 -1
t-37 -2.5t-19 -4.5q-8 -8 -18 -20.5t-12 -26.5q2 -11 -3 -25q-4 -12 -25 -12l-8.5 8.5t-11.5 8.5q-2 3 -2 25q2 21 10 45.5t15 51.5q4 17 6.5 29t4.5 19z" />
    <glyph glyph-name="eight" unicode="8" horiz-adv-x="456" 
d="M133 534q15 3 24.5 6t18.5 6t18 6.5t23 6.5q13 2 31.5 5t37.5 3q11 0 20.5 -3t15.5 -8q1 0 7 -2.5t13 -6t13.5 -6t8.5 -2.5q12 0 20.5 -8.5t14 -21.5t8.5 -28.5t4 -30.5q0 -17 -3 -29.5t-5 -20.5q-4 -17 -10.5 -32t-14.5 -26q-13 -13 -37.5 -21t-43.5 -21l12 -6
q10 -5 13 -5q9 -4 29 -13.5t33 -22.5q23 -18 36 -31q11 -17 13 -30t6 -25q0 -15 -2 -29.5t-6 -31.5q-5 -13 -9 -27.5t-11 -25.5q-6 -8 -11 -9t-14 -11q-6 -8 -24.5 -17t-30.5 -13q-7 -5 -13 -6t-12 -3q-7 -4 -13.5 -6.5t-17.5 -4.5q-43 -17 -92 -14q-20 2 -43.5 5t-42.5 9
q-14 7 -25.5 19t-24.5 23q-5 4 -10.5 15t-10 24t-7 24t-2.5 15q0 14 -1 27.5t3 27.5q7 19 21.5 38t31.5 32q2 5 7 6.5t10 7.5q6 4 9 8t8 9q2 2 8.5 3.5t14 3.5t14 4t7.5 5t-8.5 8t-22.5 11t-25 12t-16 11q-8 17 -13 33.5t-7 33.5q-1 21 4.5 43.5t15.5 43.5t24 38t31 25z
M175 478q-4 -4 -7.5 -12t-3.5 -18q-2 -13 -2 -26.5t2 -21.5q2 -4 13.5 -17t30.5 -27q20 -11 27.5 -18t9.5 -7q11 4 24.5 14.5t19.5 18.5q17 26 15.5 58.5t-26.5 55.5q-8 8 -17.5 15.5t-26.5 12.5q-9 2 -16 -1t-14 -8.5l-14 -11t-15 -7.5zM133 178q0 -15 -2.5 -21t-2.5 -21
q0 -8 5.5 -19.5t5.5 -19.5q2 -6 5.5 -10.5t5.5 -8.5q5 -5 8.5 -12t8.5 -13q4 -7 13.5 -10.5t30.5 -3.5q15 -2 22 -2.5t12 -0.5q15 2 22 4.5t10 4.5t5 5t7 6q5 4 8.5 5.5t5.5 7.5q11 26 13 50.5t-10 47.5q-7 12 -15.5 22.5t-20.5 21.5q-4 4 -7 5.5t-5.5 3t-5 4t-5.5 7.5
q-10 6 -20.5 15.5t-23.5 0.5q-2 0 -6.5 -4.5t-13.5 -8.5q-12 -9 -24 -16.5t-12 -11.5q-4 -5 -6.5 -14.5t-7.5 -13.5z" />
    <glyph glyph-name="nine" unicode="9" horiz-adv-x="459" 
d="M136 531q12 8 28 14t33 9.5t34.5 5.5t32.5 2q10 1 28 -1.5t36.5 -7.5t35.5 -12t25 -16q7 -6 11.5 -13.5t10.5 -13.5q2 -5 8 -8.5t6 -5.5q0 -7 0.5 -11.5t2.5 -11.5q4 -11 6 -17t2.5 -12.5t1 -15.5l1.5 -27q1 -14 0 -36t-4.5 -45t-9 -43.5t-14.5 -30.5q-4 -7 -4 -13.5
t-7 -17.5q-3 -5 -5.5 -13l-5 -16t-6.5 -15.5t-10 -11.5q-17 -12 -38.5 -27t-34.5 -34q-19 -27 -37 -43.5t-43 -36.5q-11 -13 -23 -16.5t-25 -14.5q-4 -6 -12.5 -13t-14.5 -12q-2 -2 -11 -4t-19.5 -3.5t-21 -1.5t-15.5 1q-3 1 -6.5 12t-5 25t1 27.5t10.5 18.5q13 9 22 11
t17.5 2.5t18.5 2t25 9.5q7 5 19 12t20 13q8 5 17.5 12t16.5 13q12 13 26 38t25 52.5t18.5 52t7.5 38.5q0 1 -4.5 -3t-9.5 -10t-10 -11.5t-6 -6.5q-19 -12 -32 -12t-32 -4q-16 -8 -36 -9.5t-40.5 1t-39.5 8.5t-34 13q-5 2 -12 9.5t-13 16.5t-10 17.5t-4 12.5q-2 11 -3.5 23.5
t-7.5 20.5q-1 6 -0.5 19t2.5 27.5t5.5 27t8.5 18.5q10 18 20.5 30.5t22.5 22.5t26.5 19t33.5 20zM156 464q-3 -6 -4 -9.5t-1.5 -6.5t-1 -7t-2.5 -10q-4 -8 -10 -16.5t-4 -16.5q-2 -11 -2 -17t2 -14t5 -15t9 -13q0 -8 0.5 -8.5l5.5 -5.5q22 -21 41.5 -22.5t52.5 3.5
q11 2 17 11t14 14q6 4 16 15.5t15 17.5q7 9 5.5 26.5t-8 36t-17.5 34t-22 20.5q-8 3 -17.5 7t-18.5 6.5t-18 1.5t-16 -7q-6 -4 -15 -5.5t-15 -8.5q-2 -2 -7.5 -6.5t-3.5 -4.5z" />
    <glyph glyph-name="colon" unicode=":" horiz-adv-x="272" 
d="M67 345q1 11 7.5 18.5t16 12t21 7.5t21.5 6q7 3 12.5 8.5t10 10.5t9.5 8.5t13 3.5q14 0 20.5 -10t12.5 -21q13 -25 24.5 -43.5t11.5 -45.5q0 -6 -3.5 -9.5t-9 -6.5t-12 -6t-11.5 -8q-12 -13 -20 -26t-24 -13q-11 0 -17 6t-11 14t-10.5 17.5t-14.5 15.5q-9 5 -17.5 14.5
t-15 19.5t-10.5 18t-4 9zM44 103q13 17 28.5 22.5t30.5 13.5q10 6 14 15.5t16 9.5q7 0 12 -4t8.5 -10.5t7.5 -14.5t9 -15q14 -17 27.5 -27.5t13.5 -31.5q0 -8 -3.5 -14t-9 -11.5t-12 -11.5t-11.5 -13q-6 -13 -12.5 -21.5t-20.5 -8.5q-11 0 -15.5 7.5t-12.5 14.5
q-8 6 -17.5 8.5t-15.5 13.5q-9 14 -16.5 22.5t-20.5 16.5q-6 6 -14 8.5t-8 10.5q0 11 8 13t14 7z" />
    <glyph glyph-name="semicolon" unicode=";" horiz-adv-x="270" 
d="M64 133q0 13 14.5 22t27.5 17q4 3 6.5 9t5 11t6 8.5t9.5 2.5q9 0 14 -4t11 -10q28 -19 43.5 -40t15.5 -54q0 -16 -5.5 -29.5t-14 -25.5t-17.5 -24t-16 -24q-17 -23 -36 -40.5t-45 -32.5q-19 -10 -35.5 -21.5t-34 -21t-36 -15.5t-41.5 -6q-2 0 -5.5 2t-7.5 4q-4 3 -9 6
q3 13 11 22t19 16t22.5 13.5t22.5 14.5q21 16 40.5 28t34.5 26t24 32t9 45q0 10 -5 18t-11.5 15.5t-11.5 16t-5 19.5zM72 373q1 11 7.5 18.5t16.5 12.5t21 8t22 5q7 3 11.5 8t9 10.5t10 9t13.5 3.5q13 0 20 -9t14 -22q6 -12 12.5 -22t12 -20t8.5 -21t3 -26q0 -6 -3.5 -10
t-9 -6.5t-12 -5t-11.5 -6.5q-6 -6 -10.5 -13t-8.5 -12.5t-9.5 -9.5t-13.5 -4q-11 0 -17.5 6t-12 14t-11 16.5t-14.5 13.5q-10 6 -18 16.5t-15 20.5q-8 11 -15 25z" />
    <glyph glyph-name="less" unicode="&#x3c;" horiz-adv-x="478" 
d="M439 175l9 -22l-17 -36q-5 -11 -12 -16.5t-21 -5.5q-9 0 -18.5 2t-26.5 9q-6 4 -17.5 6.5t-24.5 4.5q-10 8 -18 15q-7 5 -13.5 10t-7.5 5l-22 9h3q-3 1 -9 2t-12 3q-7 2 -15 3q-15 13 -27.5 18t-25.5 10q-11 4 -21 8t-18 8q-2 0 -5.5 0.5t-5.5 2.5h-14q-6 6 -11 6h-11
q-2 0 -7 3t-10 5h-2q-2 0 -3 3q-2 2 -7.5 4.5t-9.5 6.5q-3 8 -4 12t-0.5 5.5t1 2t0.5 2.5l-3 6q0 21 10.5 25.5t23.5 4.5h16q8 0 33.5 8.5t51.5 19.5q31 12 68 28q8 6 18 11t18 11h3h3q8 8 12 10t7 4q11 5 25 10.5t20 11.5q2 0 5 3q2 1 3 3l14 3q15 11 31.5 15t21.5 4
q12 0 17.5 -4.5t8 -11.5t2.5 -15.5v-15.5l-6 -8q0 -7 -3 -12.5t-5 -7.5q-15 -8 -33 -13.5t-23 -5.5q-8 0 -24.5 -7.5t-34.5 -18t-33.5 -20.5t-21.5 -15q-8 -2 -15 -5q-7 -2 -14 -4.5t-12 -4.5l-23 -6l10 -2q4 -1 7.5 -1h5.5l14 -5q7 -6 20 -12.5t26.5 -11t24 -7.5t12.5 -3
q4 0 9 -2.5t10 -5.5q5 -4 11 -8q11 -7 18.5 -10.5t18.5 -3.5z" />
    <glyph glyph-name="equal" unicode="=" horiz-adv-x="500" 
d="M395 353q8 0 14 1t11 2t11 0.5t14 -3.5q6 -8 13.5 -14.5t5.5 -13.5q0 -3 -5 -10t-11 -15t-12 -17t-8 -16q-21 0 -42 -0.5t-52 -2.5q-21 -3 -46 -6t-50 -6.5t-47 -7.5t-38 -8q-8 1 -12 -3q-2 -2 -2 -5q-21 -2 -35.5 -3t-36.5 -11q2 6 -3 9.5t-3 10.5q0 3 3 10t8 15
t11.5 16.5t13.5 13.5q9 5 23 7.5t29 4.5t29 5t25 11q13 -2 20 -0.5t22 3.5l10 4q11 4 20 10q0 3 10 4.5t23 2t24.5 0t14.5 -1.5q13 6 23 10t25 4zM314 211q11 0 22 6t28 0q8 6 20 11t33 3q-1 -2 -2 -6t-1 -14q0 -3 -3 -11t-8.5 -17.5t-14 -19.5t-18.5 -16h-50q-4 0 -13 -0.5
t-19.5 -1.5t-20 -3.5t-14.5 -5.5q-11 -6 -28 -5.5t-36 -5.5q-11 0 -29 -5t-27 -3q-12 -7 -28.5 -6.5t-37.5 0.5l-14 3q0 3 1 9.5t3 14t5 14t7 9.5q32 11 64.5 20.5t63.5 15.5q11 5 27.5 3t36.5 3z" />
    <glyph glyph-name="greater" unicode="&#x3e;" horiz-adv-x="478" 
d="M36 359l-5 25l16 33q5 13 12 17.5t22 4.5q6 0 16.5 -2.5t24.5 -8.5q8 -2 18.5 -5.5t23.5 -5.5l18 -16q7 -6 13 -10.5t8 -4.5l22 -8q3 -2 9 -2.5t11 -2.5q6 -2 14 -3q17 -13 29 -18.5t23 -9.5q23 -5 42 -17h8q5 0 12 -1.5t2 -1.5q5 -2 7.5 -3.5t6.5 -1.5h9q4 0 9 -3t7 -3
q3 -2 6 -5q4 -2 9 -3.5t7 -7.5q4 -9 5.5 -12.5t0.5 -5t-2 -1.5t-1 -1q0 -3 1 -5t2 -3q0 -21 -10 -24.5t-21 -3.5q-4 0 -9 -1.5t-10 -1.5q-8 0 -33.5 -8.5t-51.5 -18.5q-32 -11 -68 -26q-6 -8 -17 -12.5t-19 -9.5q-3 0 -6 -3q-3 -2 -6.5 -4t-6.5 -4q-4 -3 -6 -5
q-11 -5 -23.5 -10t-21.5 -10q0 -1 -4 -5q-2 -2 -4 -3l-14 -3q-14 -8 -30 -12.5t-23 -4.5q-20 0 -22.5 15t-2.5 30q1 2 3 4q1 2 2 3.5t1 3.5q0 12 8 17q15 8 33 13.5t23 5.5q7 0 23 7.5t33.5 17.5t33 20.5t21.5 15.5q9 2 17 5q7 2 13.5 4.5t11.5 4.5l22 6q-6 0 -10 1
q-4 0 -7.5 0.5t-4.5 0.5l-14 6q-6 6 -19 12t-26 10.5t-23.5 7.5t-12.5 3q-5 0 -11 2.5t-11 5.5q-6 4 -11 9q-8 8 -16.5 11t-16.5 3z" />
    <glyph glyph-name="question" unicode="?" horiz-adv-x="606" 
d="M151 568q-8 0 -15.5 12t2.5 41q3 9 9.5 18t15.5 17.5t18 15.5t17 12q9 6 22 15.5t27 19t28 15.5t25 5q16 -2 34 -6.5t34.5 -12t28.5 -19t17 -29.5q1 -5 6 -16.5t10 -25t8 -26t0 -18.5q-5 -6 -3.5 -13.5t3.5 -15.5t2 -15.5t-7 -13.5q-29 -26 -51.5 -48t-56.5 -40
q1 -4 -6.5 -7t-6.5 -8q3 -12 -10 -20.5t-29 -16.5t-29 -17t-10 -23q2 -8 6.5 -12t6.5 -15q2 -7 4 -13t4 -14q2 -6 5.5 -10t5.5 -12q3 -14 -12 -23t-30 -12q-14 -3 -26 1t-22 12.5t-17 20.5t-10 25q-4 20 5 35t23 28.5t30 27t26 30.5q9 13 15.5 20t13.5 12.5t15.5 11
t20.5 14.5q12 8 19.5 25t22.5 25q15 9 17.5 23.5t-2 29t-15 26t-21.5 14.5q-9 -1 -15.5 3t-13 9t-13 9.5t-15.5 5.5q-28 2 -45.5 -10t-29.5 -27.5t-19.5 -28t-16.5 -11.5zM78 69q0 16 10 30.5t23.5 25.5t27.5 18t22 7q10 0 16.5 -4.5t12.5 -10.5t12.5 -13.5t14.5 -13.5
t18 -10.5t10 -16.5q0 -13 -5 -21.5t-13.5 -15t-18.5 -13t-19 -14.5q-7 -5 -11 -13.5t-8 -16t-9.5 -13t-15.5 -5.5q-9 0 -14.5 5.5t-8.5 14.5t-5.5 20t-5.5 22q-1 5 -6.5 9t-11.5 8.5t-10.5 9.5t-4.5 11z" />
    <glyph glyph-name="at" unicode="@" horiz-adv-x="753" 
d="M517 484q23 0 31 -13.5t8 -34.5q0 -4 -3 -17.5t-7 -30t-9 -33.5t-9 -27q0 -8 -1.5 -15t-9.5 -24q-6 -4 -5.5 -18t0.5 -21v-89v-36q0 -6 1.5 -26t3.5 -32q3 -3 8 -3q9 0 17.5 8t16.5 19t14.5 24t10.5 24q9 18 14 40.5t9 49t9.5 56.5t17.5 62q4 15 1 36t-1 34q0 18 3 35
t5.5 32.5t3 28.5t-3.5 21q-6 18 -14.5 39t-17.5 42t-18.5 39.5t-18.5 32.5q-9 4 -20 12.5t-23 16.5t-24.5 14.5t-24.5 6.5h-25q-3 0 -9.5 -2.5t-13.5 -4.5q-8 -4 -16 -7q-12 0 -29 -8t-34 -20t-32.5 -25t-24.5 -22q-4 -7 -15 -9.5t-15 -7.5q0 -1 -3 -7.5t-7 -14t-7 -15
t-3 -10.5l-2 -22q-1 -13 -9 -24.5t-18 -23t-18.5 -24.5t-10.5 -29v-22q-1 -11 -5.5 -19t-9.5 -15.5t-9 -16.5t-4 -24q0 -1 -2 -7.5t-5 -13.5t-5.5 -13.5t-3.5 -7.5v-25l-6 -13q0 -3 -1 -5t-1.5 -4.5t0 -7.5t2.5 -14q0 -11 -1.5 -25.5t-1.5 -19.5v-36q-1 -11 -4.5 -21.5
t-7 -22t-7.5 -26t-6 -33.5q0 -11 1.5 -15t3 -7t2 -9t-0.5 -21l-3 -34q-1 -6 3.5 -21t11.5 -34.5t16 -42t17.5 -43t15.5 -36.5t11 -23q5 -6 14 -15t14 -15q2 -5 5.5 -11.5t8.5 -8.5q2 -2 11.5 -8.5t21 -13t22 -12t14.5 -5.5q20 0 39 9t33.5 23.5t23 32t7.5 35.5q-3 16 9 29
t28.5 22t33 14t21.5 5q8 0 14.5 -4.5t10.5 -11t6 -13t2 -10.5v-17q-2 -6 3 -17.5t3 -15.5q0 -3 -3 -9t-7 -12t-7 -11t-3 -7q-8 -17 -22.5 -29t-31 -21t-34.5 -16.5t-34 -14.5l-16 -8t-20.5 -10t-19 -8.5t-11.5 -3.5h-14h-8q-11 -2 -17 -2.5t-8 -0.5q-21 0 -35 6t-35 19
q-9 6 -21.5 10.5t-24.5 10t-22 13.5t-15 22q-6 12 -13 22.5t-17 21.5q-14 16 -21 33.5t-10.5 36l-7 37t-9.5 35.5q-3 3 -6.5 10t-6.5 15q-4 9 -6 19v17q1 1 -0.5 8t-4 15.5t-4.5 15.5t-2 8q1 10 3 19q2 8 2.5 15.5t2.5 12.5q0 11 0.5 18t2.5 21q2 9 3.5 16t1.5 15l9 53l-2 8
q-1 3 -1 7v7v28q0 2 0.5 10.5t4.5 14.5l6 69q0 5 4.5 10.5t6.5 12.5l14 100q10 37 25.5 77t34 77.5t39.5 70.5t43 58q11 7 23.5 11.5t20.5 10.5q21 13 43.5 26.5t45.5 24.5q8 4 16 10.5t20 11.5q11 6 32.5 8.5t34.5 2.5q5 0 25 -2t43.5 -5t44 -7t26.5 -8q10 -5 23 -15
t25 -22t21.5 -24.5t14.5 -22.5q19 -27 35 -61t28 -72l-5 -84q8 -25 6.5 -41.5t-1.5 -41.5q-8 -78 -26.5 -154.5t-45.5 -137.5q-25 -46 -47.5 -72.5t-49.5 -41.5l-39 -36q-32 -19 -49.5 -22t-28.5 16q-14 36 -16.5 67.5t-2.5 60.5v36v20q0 5 -6 5h-5q-5 0 -15.5 -17.5
t-23.5 -40t-26.5 -45.5t-23.5 -33q-3 -4 -11.5 -11.5t-19 -14.5t-21.5 -12.5t-18 -5.5q-15 0 -24 10.5t-14 24t-7 27.5t-2 21l-6 72l14 114q1 3 5 14t9.5 24.5t12 26.5t12.5 22q15 12 29 27.5t27 36.5q15 18 27 26t24 12t23.5 7t25.5 10q8 0 16.5 6.5t16.5 13.5h45zM389 370
q-19 -14 -34.5 -33t-27 -39t-18 -37.5t-6.5 -26.5q0 -5 -1.5 -20t-0.5 -31t6.5 -28.5t20.5 -12.5t32 24t31.5 54t24 56t9.5 30t1.5 19.5t-0.5 30t-10 21t-27 -6.5z" />
    <glyph glyph-name="A" unicode="A" horiz-adv-x="612" 
d="M359 589q22 0 33 -9.5t15.5 -24.5t6 -32.5t3.5 -33.5v-36q6 -11 15.5 -29.5t9.5 -37.5v-25q0 -3 5 -18t11.5 -33t11.5 -34.5t5 -22.5q0 -19 5 -50.5t13 -61.5t18.5 -52t22.5 -22q14 0 22 -3t14 -3q3 0 10.5 -1t16 -4t14.5 -8.5t6 -14.5q0 -20 -14 -28t-33 -8l-67 3h-28
h-50h-22l-28 -3q-6 0 -19.5 1t-13.5 8q0 14 12.5 23t29.5 15q14 5 23.5 11t9.5 20q0 3 -2.5 15t-6 25.5t-8 24t-8.5 10.5q-3 10 -4.5 22t-4 21.5t-8 14.5t-16.5 3h-34h-11.5t-17.5 -1t-17.5 -2.5t-11.5 -4.5q-13 -6 -10.5 -17.5t2.5 -24.5q-3 -4 -9 -15.5t-11.5 -24.5
t-9.5 -24t-4 -14q0 -12 6.5 -17t14.5 -9.5t14.5 -12.5t6.5 -27q0 -6 -4 -9.5t-9.5 -5t-11 -2t-8.5 -0.5q0 -3 -2 -4t-5.5 -1t-9.5 5h-10.5t-13.5 1l-18 2q-13 0 -21 -3t-21 -3q-14 0 -20 -1.5t-8.5 -3t-3.5 -2.5t-4 -1q-5 0 -17.5 1t-25.5 3.5t-22.5 7t-9.5 10.5
q0 19 11.5 32t30.5 13l19 5q2 0 7.5 3.5t11.5 8.5t12.5 10.5t10.5 8.5q6 25 21.5 54.5t28.5 56.5q6 17 15.5 35.5t17.5 31.5q10 19 17 37t13 36.5t13 37.5t16 39q7 15 11 32.5t7.5 36t9 37.5t14.5 38q6 5 13 12t20 13h17zM347 406q-7 0 -12.5 -6t-9.5 -13.5t-6 -15t-2 -10.5
v-13.5t-1 -8t-2.5 -9.5t-4.5 -19v-8q0 -6 9 -11.5t16 -5.5h9.5t13 1t11.5 4t5 9q0 13 -7 20t-7 14v44q0 6 -3.5 17t-8.5 11z" />
    <glyph glyph-name="B" unicode="B" horiz-adv-x="475" 
d="M167 562h8h8h28q5 -7 13 -8t12 -1h11h6q27 0 53 -5.5t49.5 -19t42.5 -35.5t33 -54v-53q0 -17 -9 -31.5t-19.5 -27t-19 -22.5t-8.5 -16q0 -3 4.5 -7.5l9.5 -9.5q6 -5 14 -11q10 0 19.5 -9.5t16 -23t10.5 -28.5t4 -25v-28q-4 -19 -3.5 -33.5t-10.5 -35.5q-7 -6 -9.5 -12.5
t-5 -12t-7 -10t-14.5 -7.5q-32 -21 -66 -34t-76 -13h-66h-28h-28h-6l-27 11l-10 -6q-8 -5 -15 -5h-20q2 2 0 3.5t-6 3t-9.5 2.5t-9.5 2q-14 0 -19.5 5t-5.5 12q0 14 5.5 29t19.5 15h17q6 0 22 4t22 4t8.5 3t2.5 7.5t-1 9.5t-1 8q5 5 3 12q-1 3 -3 5v25q6 14 7 26t1 18v28
q2 11 5 22q2 8 4 16.5t2 11.5q0 7 -1.5 7t-2.5 2t-0.5 11.5t4.5 35.5v17v16q0 7 4 17.5t4 18.5q0 26 -9 42.5t-22.5 27.5t-29.5 17.5t-29.5 12.5t-22.5 13t-9 18q0 9 7 16t16 11.5t19 6.5t16 2h20l44 9h34zM253 464q-6 0 -14.5 -7t-15.5 -17t-11 -20.5t-1 -16.5v-17v-19v-25
q2 -14 4 -23.5t6 -16.5t11 -10t21 -3q7 0 19 5t24 12.5t20.5 17t8.5 18.5v25v28q0 9 -6 21t-16.5 22.5t-23.5 18t-26 7.5zM247 236q-14 0 -22.5 -10t-13 -23t-6.5 -26t-2 -19v-36v-25q0 -3 2.5 -9t7 -12t10.5 -10.5t13 -4.5q13 0 20.5 3t15.5 5q13 3 27.5 10.5t26.5 18
t19 23t5 26.5q-1 13 -1 20.5t1 11.5t1 6.5t-1 6.5q-1 13 -10 22t-22 13.5t-28.5 6.5t-28.5 2h-8h-6z" />
    <glyph glyph-name="C" unicode="C" horiz-adv-x="389" 
d="M328 575q15 0 22.5 -6.5t11.5 -16.5t4.5 -20.5t0.5 -17.5v-19q-6 -23 -20.5 -42t-37.5 -19q-15 0 -32 9.5t-38 9.5q-22 0 -43 -15.5t-38 -36.5t-27.5 -42.5t-10.5 -33.5v-28v-38q0 -12 4 -41t13 -59.5t23.5 -54t36.5 -23.5l20 8q23 0 43 5.5t37 22.5q22 26 42 41
q6 5 14 7t14 2q2 -2 5 -6q6 -8 6 -14q0 -22 -16 -50.5t-38.5 -54t-46 -43.5t-38.5 -18h-8q-14 -3 -26 -6q-11 -2 -21 -4t-14 -2q-8 0 -22.5 7t-30.5 16.5t-29 20t-16 18.5q-4 3 -10.5 19.5t-13 37t-11 40.5t-4.5 30v31q-3 6 -6 11q-5 10 -5 17q2 12 5 23q2 9 4 19t2 16v22
q0 3 -2 7.5t-4 9.5q-3 5 -5 11l11 31v19q8 17 15 31q6 12 12.5 23t11.5 16q3 19 15 34t28.5 28t35.5 24l38 22q11 2 22 5q8 2 16.5 4t11.5 2h20h38l31 11v0z" />
    <glyph glyph-name="D" unicode="D" horiz-adv-x="684" 
d="M386 553q52 0 101 -17t87.5 -48.5t61.5 -77t23 -101.5l-8 -48v-66q0 -7 -6 -19t-6 -20q-6 -13 -11 -26q-5 -11 -11 -23.5t-14 -23.5q-4 -8 -13.5 -18t-22 -19t-25.5 -15t-25 -6h-19q-11 0 -22 -3t-21.5 -6.5t-18.5 -6.5t-11 -3h-27q-17 0 -29.5 -4.5t-21.5 -4.5h-36h-86
h-17q-6 -3 -11 -6q-10 -5 -19 -5l-28 11h-28l-27 -11q-7 0 -18.5 6.5t-18.5 13.5q-4 0 -12 0.5t-15.5 3t-13.5 8t-6 15.5q0 8 7 15t16 12q11 6 24 12h28l47 11q8 -3 15 -6q13 -5 22 -5q10 0 15.5 6.5t8 15.5t3 18.5t0.5 15.5v19v42q0 4 -4 12q-2 4 -4 7v62q0 8 4 20t4 27v39
v47q0 27 -9 45.5t-38 18.5q-6 0 -10 -1.5t-7.5 -3t-7.5 -2.5t-11 -1l-28 8h-19q-7 0 -17.5 6.5t-10.5 12.5q0 15 16.5 26t37.5 18.5t41 11t27 3.5h17q8 0 15 -5.5t15 -5.5q8 2 15 5q6 2 12.5 4t11.5 2h37h19q20 2 37 4q14 2 27.5 3t18.5 1zM339 456q-3 0 -12 -4t-18.5 -11
t-17 -15t-7.5 -15q2 -2 4 -5q4 -6 4 -14v-28v-55v-123v-47q4 -8 5 -17t2.5 -17t5.5 -14t15 -8h11q3 0 10.5 1t16 2t16.5 2t12 1q43 1 72.5 19.5t48.5 46.5t28 60t10 60q1 22 -10 53t-27 57.5t-33 41t-27 4.5q-6 4 -11 8q-5 3 -9.5 6t-7.5 3h-9z" />
    <glyph glyph-name="E" unicode="E" horiz-adv-x="486" 
d="M236 553q6 0 11.5 -1t13 -1.5t18 -1.5t27.5 -1l33 8q8 2 15 4q6 2 12 3t9 1q7 0 17.5 -5t18.5 -11q7 -13 9 -31t8 -31q3 -3 7 -11.5t8 -16.5q4 -11 10 -22q0 -19 -25 -19q-6 0 -18 9.5t-31 21t-45 21t-62 9.5l-19 -5q-6 -9 -11.5 -15t-5.5 -10v-9q-2 -8 -4 -15
q-2 -6 -3 -12t-1 -9v-72q0 -15 6 -28.5t19 -13.5q3 0 10 1t15 3q9 2 19 4h20q8 0 14.5 4t12.5 8.5t11.5 8.5t11.5 4q3 0 7 -4t8 -9l10 -12v-66q0 -28 -25 -28q-11 0 -19 4.5t-14 9.5q-11 4 -18.5 9t-18.5 5h-16h-20q-25 0 -32 -9t-7 -36v-25q3 -14 4 -28t3.5 -26t9.5 -20.5
t22 -11.5h56q14 0 30.5 5.5t33.5 14.5q17 6 31.5 11t26.5 5q4 -3 8 -7l6 -6t3 -6q0 -7 -5 -13t-12 -12q-14 -13 -20 -26.5t-11.5 -25t-13.5 -19t-24 -7.5q-6 0 -11 1.5t-10.5 4t-13 4t-18.5 1.5l-97 -3l-34 -8h-53h-30l-20 -6l-30 -2q-5 0 -11 4t-11 9.5t-8.5 11t-3.5 8.5
q0 25 37 25q8 3 16 7q15 7 25 10q21 4 28.5 13t7.5 42q0 5 3.5 10.5t-3.5 11.5q0 5 -1 10.5t-3 10.5q-2 6 -4 13v19v36v25l8 70v17q0 6 1.5 8t1.5 8v53v28v30q0 9 -10 14.5t-15 5.5h-28q-19 0 -27.5 16t-8.5 37q0 6 5.5 11t11.5 5h33h20q6 0 18.5 1.5t31.5 1.5h69z" />
    <glyph glyph-name="F" unicode="F" horiz-adv-x="595" 
d="M314 564q6 0 22 -4t23 -4h44h17l33 6l14 -6h25l25 8h22q11 0 22.5 -10t11.5 -23v-56q0 -12 -6.5 -24t-18.5 -12q-23 12 -43 22q-17 8 -33.5 15.5t-23.5 7.5h-28q-3 0 -10.5 -0.5t-15 -2t-13.5 -5t-6 -9.5v-36v-45v-36v-16q0 -8 7 -12t16.5 -5.5t19 -2t13.5 -0.5
q23 0 34.5 5.5t17.5 12.5t9.5 12.5t10.5 5.5q11 0 18 -5t7 -11l-11 -56q6 -13 3 -16t-3 -9q0 -9 5 -14q3 -3 6 -5q0 -13 -9 -25t-16 -12q-11 0 -16 8.5t-11 19t-15.5 19.5t-29.5 9q-8 0 -17.5 -0.5t-18 -3t-14.5 -8.5t-6 -16v-17q0 -8 -4 -20t-4 -27q0 -9 1 -13.5t2.5 -8.5
t3 -10.5t1.5 -20.5v-8q0 -13 6.5 -25.5t13.5 -18.5q9 -4 21.5 -7t23.5 -6q13 -4 27 -7q5 0 11 -2q3 -1 6 -1q6 0 12.5 -5t6.5 -11q0 -11 -7.5 -17.5t-17 -10t-18.5 -5t-12 -1.5q-14 0 -23 1.5t-15.5 3t-12 3t-11.5 1.5h-55h-34q-26 0 -44 5q-10 3 -17 6q-14 0 -20 -0.5
t-10 -5.5q-2 -2 -7.5 -3.5t-17.5 -1.5h-20h-16q-9 0 -23 7.5t-14 19.5q0 10 8.5 16t19 8.5t21 3t13.5 0.5h11h25h28q3 0 7 1t9 3t11 5h6q13 0 17 13q2 6 2 14v17v17l-8 55l8 25q-2 10 -4 19q-2 8 -3 15.5t-1 10.5v28v52q2 10 4 19q2 8 3 15.5t1 10.5v28q0 3 -1.5 14.5
t-5.5 24.5t-10.5 23t-15.5 10q-14 0 -32.5 -10.5t-31.5 -17.5q-14 -6 -38 -19t-43 -25q-8 -7 -14 -24.5t-11 -36.5q-6 -22 -11 -48v-33q0 -14 -9 -26.5t-21.5 -23t-26.5 -16.5t-23 -6q-21 0 -28.5 15.5t-7.5 28.5q0 20 6 45.5t16.5 51t23 49t26.5 40.5q21 34 48.5 59
t58.5 42.5t63.5 30t62.5 21.5q2 4 10.5 4.5t18.5 -0.5q11 -1 24 -4z" />
    <glyph glyph-name="G" unicode="G" horiz-adv-x="525" 
d="M395 564h19h28q21 0 35.5 -17.5t23 -39.5t12.5 -41.5t4 -23.5q0 -8 1 -12.5t3 -8.5t4 -7q0 -3 -1 -7q-2 -7 -7 -12q0 -7 -1 -13.5t-7 -6.5q-5 0 -16 11.5t-23 25.5q-14 17 -31 38q-11 6 -29.5 13t-35.5 13q-21 7 -43 13q-32 0 -63.5 -12t-57 -35t-43 -56t-20.5 -75
q0 -20 -4 -32t-4 -26t1 -23.5t7 -23.5q7 -21 20 -45t30.5 -44.5t39.5 -34t47 -13.5l36 12q14 0 30.5 10.5t16.5 30.5v20q-2 12 -5 24.5t-9 25.5q-8 14 -19.5 28.5t-19.5 18.5q-14 5 -14 14q0 4 4.5 6.5t10.5 3.5q7 1 16 1h44h48h19q7 0 11.5 1t9.5 2.5t13 3t22 1.5
q7 -2 13 -5q5 -2 9.5 -6t4.5 -8q0 -6 -5 -19.5t-11 -13.5h-11q-21 0 -34.5 -16t-13.5 -29v-28v-30q0 -13 -4 -20t-4 -22q2 -8 3 -16q1 -7 0.5 -15.5t-3.5 -15.5q0 -7 -4.5 -11.5t-9.5 -8.5q-6 -4 -14 -8l-67 -11h-16q-4 0 -12.5 1.5t-18 4t-20 4t-19.5 1.5h-27q-5 0 -14 2
t-17 6q-15 5 -30 7t-23 2q-3 4 -9.5 6.5t-14 5.5t-14 7t-9.5 11q-8 3 -20.5 20.5t-24.5 39.5t-21 44.5t-9 37.5v17q0 8 -5.5 19.5t-5.5 19.5v39v27q6 16 11 30q4 12 7.5 24.5t3.5 20.5l8 17q0 22 17 47t40.5 47t49 36.5t43.5 14.5q8 1 15 2l12 2t10 1h11q15 0 21.5 1.5
t12.5 4t14.5 4t26.5 1.5h39h36z" />
    <glyph glyph-name="H" unicode="H" horiz-adv-x="687" 
d="M117 562h11q8 0 20.5 -6t26.5 -6l28 9h39h19q11 0 15 -10q2 -4 2 -10q0 -21 -6 -29.5t-15.5 -11t-20 -3t-20 -4.5t-15.5 -15.5t-6 -36.5q0 -8 4 -25t4 -25v-28q0 -20 13 -35t34 -15q8 0 14 3q4 1 6 3l36 -6h30h17q8 0 16 -1q16 -2 23 -10q5 0 8.5 1.5t5.5 1.5q4 2 8 5
t6 3h39q6 5 11 12.5t5 15.5v14v64l-11 50v17q0 10 -7 14t-15 7t-15 8.5t-7 20.5q0 12 12 22.5t27 10.5q13 -5 27 -9q12 -3 26.5 -5.5t29.5 -2.5h11h28q10 0 23 -2.5t23.5 -8t18 -15t7.5 -24.5l-5 -11l-23 -5h-27q-7 0 -17.5 -13t-10.5 -23v-67v-39q0 -6 2.5 -22t2.5 -23
q0 -4 -3 -9t-5 -10q-5 -13 -5 -19v-28v-28q0 -15 2.5 -29t2.5 -27q0 -8 -2.5 -17t-2.5 -22q0 -7 -1 -11t-1.5 -8t0 -8.5t2.5 -11.5q3 -11 17.5 -18.5t31 -13.5t29.5 -12t13 -14q0 -7 -4.5 -11.5t-9.5 -8.5q-6 -4 -14 -8h-55h-28h-28l-47 11l-28 -11q-3 0 -9 0.5t-12 2
t-10.5 5.5t-4.5 12q0 11 10 18t22 16t22 22.5t10 37.5v28v28v30v28q0 7 -5.5 17.5t-13.5 10.5h-28h-36q-7 0 -20 5.5t-19 5.5h-20h-28h-27h-20q-21 0 -34 -9t-13 -30v-64q-6 -17 -7 -20.5t-1 -9.5q0 -7 4 -15.5t4 -20.5q-6 -15 3.5 -24.5t23.5 -18t27 -16.5t13 -19
q0 -3 -4.5 -6.5t-10.5 -5.5t-12 -3.5t-9 -1.5q-5 0 -13.5 2.5t-19 6t-22.5 6t-23 2.5q-5 -3 -10 -5t-9.5 -3t-8.5 -1h-11h-28h-17q-14 0 -27.5 7t-13.5 24q0 13 3.5 26t18.5 13l19 5q8 0 18 11t10 17v39v28q0 8 -5.5 27t-5.5 40v47q0 3 1.5 11t4 17t4 17t1.5 11l-11 47
q0 8 5 21q3 7 6 15v67q0 7 -11.5 11t-26 6.5t-26 5t-11.5 5.5q0 19 11.5 33t24.5 14l50 3h6z" />
    <glyph glyph-name="I" unicode="I" horiz-adv-x="292" 
d="M195 564q3 0 10 -1.5t15 -3t15.5 -2.5t11.5 -1q2 0 7 -4t9.5 -10t8 -13.5t3.5 -14.5q0 -4 -12 -7t-27 -6t-27 -7t-12 -10v-70q2 -8 5 -15l4 -12t2 -9l-11 -47q0 -3 1.5 -11t4 -17t4 -17t1.5 -11l9 -50q0 -21 -4.5 -39t-4.5 -25v-28q0 -6 -5.5 -10.5t-5.5 -25.5
q0 -4 3 -9.5t7.5 -10t9.5 -7.5t8 -3l22 -6q28 -13 28 -42q0 -12 -16.5 -19.5t-33.5 -7.5h-17h-19h-19l-37 11q-6 0 -17 -3t-23 -7t-22 -7t-13 -3q-6 0 -16.5 6.5t-10.5 13.5q0 11 11.5 19.5t25 17t23 18.5t6.5 25q-8 15 -4 22.5t4 14.5v27v67v145l-11 27q2 11 5 21
q2 8 4 15.5t2 11.5q0 20 -3 31.5t-8 18.5q-5 5 -11 6.5t-12.5 2t-13.5 1.5t-13 4q-6 4 -10 13t-4 28q0 4 1 8q1 3 2.5 6t5.5 3h19h36q4 0 9.5 -1t10.5 -3t11 -4q6 0 15 1t17 3q10 2 21 4h11q4 0 10 4l4 4v0z" />
    <glyph glyph-name="J" unicode="J" horiz-adv-x="289" 
d="M131 403l-3 17l3 55q0 3 -4.5 6.5t-11 6.5t-13 5t-10.5 2h-28q-4 0 -12 -1.5t-16.5 -4t-16.5 -4t-11 -1.5q-14 0 -16.5 6.5t-2.5 12.5q0 10 10 21t23 19t25.5 13.5t16.5 5.5h11h28q10 0 16 -2t10.5 -4t8 -4t9.5 -2q4 0 23 2.5t42 6t44.5 6t32.5 2.5h20q6 0 16.5 -2
t10.5 -15q0 -18 -16 -23t-35 -10.5t-35 -17.5t-16 -43q-1 -3 -2 -7q-1 -3 -1 -7v-8q4 -12 -6 -31q-5 -23 -5 -36q3 -2 6 -5q4 -4 8 -12v-11t1 -9q0 -4 1 -8q2 -18 1 -32.5t-2.5 -28t-2 -26.5t1.5 -27l-3 -50l3 -16l-6 -31q2 -17 -4 -53.5t-16.5 -77.5t-23.5 -77.5t-23 -52.5
q-18 -23 -47 -36.5t-53.5 -20t-36 -8.5t6.5 -2h-20q-3 0 -13 -1.5t-22 -3t-24 -2.5t-19 -1q-11 0 -27 2t-31 8t-25.5 17.5t-10.5 30.5q0 6 9 18t20 24q12 14 29 30q3 5 6.5 6.5t6.5 3.5q4 1 7 2q6 0 12.5 -1.5t14.5 -10.5q15 -10 24.5 -20t20 -17.5t23.5 -12.5t35 -5l12 10
q5 5 11.5 9t12.5 9q18 18 28.5 40.5t16 47t7 49t1.5 46.5q3 3 5 11t2 18t-1 20t-3 18v19v56v153z" />
    <glyph glyph-name="K" unicode="K" horiz-adv-x="651" 
d="M534 564q21 0 35.5 -16t14.5 -31q0 -18 -17.5 -26.5t-39 -12t-41 -3.5h-22.5q-8 -6 -23.5 -15.5t-23.5 -17.5q-12 -12 -25.5 -28t-25 -31t-19.5 -28t-8 -19q0 -8 5 -14t12 -19q7 -12 16.5 -22.5t18.5 -19.5t17 -15.5t12 -9.5q7 -7 15 -19t16.5 -25t17.5 -25.5t20 -19.5
q8 -8 20.5 -18t24.5 -21q14 -12 30 -25h20q8 0 22 1t22 -9q5 -6 12 -21.5t6.5 -31t-14 -28t-48.5 -13.5q-17 0 -27 0.5t-18 2.5t-16.5 6t-22.5 10l-19 11q-13 5 -24.5 16t-22.5 26q-21 23 -47.5 55.5t-47.5 61.5q-14 25 -29 47.5t-29 35.5q-15 11 -28 11q-6 0 -12.5 -6
t-6.5 -11q0 -17 5.5 -35.5t5.5 -30.5v-20l8 -19v-28q0 -28 16 -41t35.5 -19t35.5 -9.5t16 -13.5q0 -12 -6 -20t-14 -13t-15.5 -7t-9.5 -2l-14 5q-6 0 -7.5 -2.5t-5.5 -2.5h-50q-9 1 -17 4q-7 2 -14 5t-11 8h-28q-4 0 -19 -3.5t-33 -8t-36.5 -8t-28.5 -3.5h-11q-8 0 -17 4.5
t-11 15.5q0 6 4.5 16.5t12 21t15.5 18.5t16 8h8l31 8h36q6 0 7 6.5t1 13.5v19l2 12q2 13 -2 24q-5 19 -2.5 36.5t2.5 30.5v19v39q0 13 -1 25.5t-7 19.5v47q2 14 4 25q2 10 3 19t1 14q0 31 -16 43t-35.5 17t-35.5 9.5t-16 22.5q0 12 6.5 19.5t15.5 12t19 6t18 1.5h16h11
q3 0 11 -1.5t16.5 -3t16.5 -2.5t12 -1h28l39 8q12 0 28 -7t16 -24q0 -6 -0.5 -11t-4.5 -5q-9 0 -17.5 -5t-16 -12.5t-12 -18t-4.5 -20.5v-19q0 -10 5 -33q3 -12 6 -26v-8q2 -6 5 -10q2 -4 5 -7t6 -3q5 0 8.5 4t8.5 10q17 22 39 64q11 19 21 38.5t21 36.5q14 26 28 41t24 15
h12q8 0 11.5 4t15.5 4h84v0z" />
    <glyph glyph-name="L" unicode="L" horiz-adv-x="506" 
d="M306 548q14 0 26.5 -8t12.5 -23v-19q-11 -8 -21 -14q-8 -5 -16 -9.5t-11 -4.5h-30q-21 0 -33 -12t-12 -33v-30q0 -27 -6.5 -59t-12.5 -61v-55v-56v-28v-11q0 -3 1.5 -10.5t5 -15t8.5 -13t13 -5.5h28h30h28q3 0 16.5 6t29.5 14t31.5 17t22.5 15q8 7 16 13.5t15 6.5
q6 14 8.5 16.5t10.5 2.5q6 0 17 -6.5t11 -12.5q0 -3 -8.5 -23.5t-20.5 -46t-26 -49t-26 -31.5q-3 -4 -17.5 -5.5t-30.5 -2.5q-18 -1 -41 -1h-28h-19q-21 0 -42 4t-28 -1l-13 -3l-48 -11q-3 0 -12.5 1.5t-20.5 4t-20.5 4t-12.5 1.5q-8 0 -15 -2t-12 -4q-6 -3 -12 -5
q-11 0 -16.5 5t-8 12t-3 14t-0.5 11q0 21 13.5 26t29.5 8.5t29.5 12t13.5 36.5v84l8 75v36q0 4 1 15.5t3 24.5q2 15 5 32q0 8 -4.5 15t-4.5 13v11q0 28 -8.5 38.5t-19 16t-19 12.5t-8.5 28q0 10 4.5 17.5t10.5 12.5t12 7t9 2h217z" />
    <glyph glyph-name="M" unicode="M" horiz-adv-x="826" 
d="M739 584q34 0 45 -19t11 -40q0 -3 -4.5 -9t-11 -12t-13 -10.5t-10.5 -4.5h-17q-7 0 -12 -1q-13 -2 -18 -7q-15 0 -22.5 -6.5t-11.5 -16.5t-4.5 -22t-0.5 -22v-67v-72q0 -11 3 -17t5 -11q5 -6 5.5 -12t0.5 -13l-3 -33q0 -14 4 -27.5t4 -19.5l12 -28v-28q0 -18 17.5 -25
t38 -11.5t38 -10t17.5 -20.5q0 -30 -28 -30h-36q-7 0 -15 -0.5t-16 -5.5l-83 6h-28h-19q-3 0 -14 -1t-23.5 -2t-23.5 -2t-14 -1q-15 0 -21.5 2t-6.5 15q0 14 7.5 30.5t28.5 16.5h19h39q7 0 11.5 4.5t6 11t2 13t0.5 10.5q0 13 -5.5 31t-5.5 25v36v30v28q0 4 -1.5 13.5
t-4.5 19t-6.5 16.5t-7.5 7q-2 0 -8.5 -8.5t-15 -22t-19 -30t-20 -32.5t-17.5 -29t-12 -20q-8 -6 -13.5 -16t-9.5 -20.5t-7 -21t-6 -17.5q-8 -14 -15.5 -24.5l-12.5 -17.5q-8 -17 -11 -19.5t-11 -2.5q-12 0 -15.5 8t-12.5 23l-8 61q-7 18 -16 37t-16.5 38.5t-12.5 38.5t-5 36
v11q0 4 -3 13.5t-7 19t-9 16.5t-9 7q-3 0 -8 -9t-9.5 -21t-7.5 -24.5t-3 -18.5v-50v-19q-4 -26 -8 -47q-3 -18 -5.5 -35t-2.5 -21q0 -28 10 -38t22 -13t22 -6t10 -18q0 -11 -4.5 -16.5t-10.5 -8t-12 -3t-9 -0.5h-39l-95 17h-19h-17q-3 -2 -7 -3q-6 -3 -13 -3h-19q-3 0 -9 1
t-12 3.5t-10.5 5.5t-4.5 7q0 10 7.5 17.5t17 12.5t18.5 7t12 2h20q3 0 12 1t19 3q11 2 25 4q7 7 14 24.5t12 36t8.5 34t3.5 19.5v36v11q3 3 5 9.5t3 13.5q1 8 1 16v45q0 4 1.5 12t3.5 16q3 9 6 19v28l4 12q2 5 3 11t1 13v22q0 3 -3 13.5t-7 21.5q-4 13 -9 29q-5 7 -14 13
t-17 12q-6 5 -14.5 9.5t-13.5 13.5v11q0 6 5 9t12 5t17 2h25q10 0 14.5 1.5t6.5 4t3 4t4 1.5h47h19l28 -11q10 -26 21.5 -63.5t23.5 -79.5t23.5 -83.5t22 -74.5t18.5 -53.5t13 -20.5q2 5 5 9q2 4 5.5 8.5t6.5 7.5q15 51 40.5 106t45.5 105q0 21 12.5 36.5t26.5 36.5
q3 7 4 18.5t3.5 23t8.5 21.5t20 14h39l14 -8q14 0 26 2.5t23 5.5q11 4 23 9z" />
    <glyph glyph-name="N" unicode="N" horiz-adv-x="817" 
d="M158 562q13 0 22 -1t17 -8q13 -8 16.5 -14.5t11.5 -13.5q7 -20 21 -24.5t26 -14.5t23.5 -24.5t23.5 -30.5t23 -31t22 -25q15 -17 25.5 -35.5t33.5 -30.5q6 -5 23 -23t37.5 -38.5t39.5 -36.5t30 -16q7 0 9.5 3t2.5 7.5t-1.5 9t-1.5 7.5v75q0 9 5.5 21t5.5 29v84
q-4 3 -11 10t-14 14.5t-13.5 13.5t-9.5 6h-19q-6 0 -14 3.5t-15 8.5t-11.5 9.5t-4.5 6.5v31q0 10 4.5 16t11.5 8.5t15 3t14 0.5h19q7 0 18.5 -1.5t24 -3t24 -3t20.5 -1.5h139q20 0 37.5 -9t17.5 -30q0 -8 -1 -13.5t-7 -14.5q-23 -14 -44.5 -12.5t-41.5 1.5l-28 -8h-17
q-8 0 -13.5 -11.5t-5.5 -24.5v-39v-8v-59v-47q0 -6 4 -18t4 -18v-56l-17 -97q0 -6 2.5 -16t6 -20.5t6 -20t2.5 -15.5q0 -4 -0.5 -14t-2 -20t-5 -17.5t-9.5 -7.5h-13.5t-19.5 1t-17.5 3t-7.5 5q-14 14 -23.5 34t-23.5 32q-11 15 -21 25t-19.5 19t-18 19t-14.5 24
q-11 25 -34 48t-48.5 46t-50 46.5t-39.5 48.5q0 3 -3 9.5t-8 12.5t-11.5 11t-13.5 5q-19 0 -19 -30v-75v-39l8 -56q0 -20 -1.5 -27.5t-1.5 -22.5q0 -19 11.5 -28.5t28.5 -14.5t36.5 -7.5t36.5 -6.5t28.5 -12.5t11.5 -24.5q0 -8 -5 -9.5t-12 -1.5h-114l-64 -9q-8 7 -20 8
t-19 1h-19q-21 0 -31 5.5t-25 5.5h-36l-8 -11h-20q0 4 -0.5 13.5t-0.5 18.5q-1 11 -1 23q0 8 9 14t16 6h21.5t7 0.5t2 0.5t6 0.5t19 0.5h41.5q7 0 12 4.5t8 10.5t4 12.5t1 9.5q-2 4 -3 8q-3 6 -3 14q0 15 -1.5 24.5t-4 16.5t-4 12.5t-1.5 13.5q0 7 1.5 17t3.5 18l6 20v67
q0 6 -1.5 14t-9.5 16q0 12 5 15q3 2 6 2q-1 4 -4 11t-6.5 14t-6 13t-2.5 9q0 21 -16 32t-35.5 21t-35.5 23t-16 38q4 10 8 18q4 7 8.5 13t11.5 6h94v0z" />
    <glyph glyph-name="O" unicode="O" horiz-adv-x="603" 
d="M314 562l36 -9h20q13 -4 24 -8q10 -4 19 -7.5t12 -6.5q15 -8 34.5 -13.5t32.5 -19.5q8 -7 16.5 -24t16.5 -24q34 -29 43.5 -55.5t9.5 -47.5l-3 -66v-28q0 -11 -8.5 -33t-20 -46t-21.5 -44.5t-13 -26.5q-7 -21 -24.5 -34.5t-34.5 -21.5q-27 -21 -50.5 -38t-52.5 -17
q-12 0 -23.5 2.5t-31.5 2.5q-4 0 -10 -0.5t-13 -1.5q-8 -1 -16 -1h-17q-8 0 -20.5 3t-23.5 8q-13 5 -28 12q-27 12 -55 26.5t-45 48.5q-21 50 -38.5 104t-17.5 104q0 10 2 18t5 16.5t7 17.5t8 23q0 15 4.5 28t12.5 28q0 3 9 19t22 34t27.5 32.5t24.5 14.5l28 11q13 0 23.5 1
t21.5 7q11 5 21 8.5t20 3.5h48h19zM228 484q-17 0 -34 -23t-30.5 -52.5t-22 -56.5t-8.5 -35v-17v-61q0 -14 17.5 -42.5t43.5 -57t55.5 -50.5t53.5 -22h19q21 0 45.5 11t45 30t34.5 44.5t14 53.5v28v66q0 21 -5.5 33.5t-14.5 24t-21 26t-25 39.5q-8 6 -17.5 15t-20 17t-22 14
t-21.5 6h-19q-8 0 -19 1t-22 3q-12 2 -26 5z" />
    <glyph glyph-name="P" unicode="P" horiz-adv-x="475" 
d="M58 564q7 0 9 -1.5t8 -9.5h172l84 -16h28q28 0 47.5 -20t31.5 -46.5t17.5 -53.5t5.5 -42q0 -17 -2.5 -38t-10 -41.5t-22.5 -37.5t-40 -24q-4 0 -11 -2.5t-14 -6t-13 -6t-9 -2.5q-7 0 -19.5 1.5t-25 6t-21.5 11t-9 17.5q0 14 8 19t20.5 7.5t27 6t27 14t20.5 33t8 62.5
q0 6 -1 13.5t-7 14.5q-8 11 -23 20t-31.5 15t-30.5 9t-18 3h-17q-4 0 -9 -3t-9 -7t-5.5 -9t1.5 -9v-131v-47v-58l11 -45q-3 -14 -6 -25q-2 -10 -3.5 -19.5t-1.5 -13.5q0 -28 15 -35.5t32.5 -8t32.5 -2.5t15 -18v-11q0 -4 -3 -10.5t-7 -13t-9 -11t-9 -4.5h-17q-8 0 -25 5.5
t-25 5.5h-64q-4 0 -16.5 -1.5t-27.5 -4t-29 -4t-21 -1.5q-11 0 -21 0.5t-17.5 4.5t-12.5 11.5t-5 22.5q0 7 0.5 16.5t4 18t10.5 14.5t21 6l11 -8h37q27 0 27 28v30l11 37l-11 19q2 8 5 15l4 12t2 9q0 7 -5.5 19t-5.5 20q0 3 1.5 5t4 6t4 10t1.5 18v36v20q0 6 -5.5 13.5
t-5.5 22.5v28q0 10 5 23q3 7 6 15q0 15 -13 26t-34 11h-11q-3 0 -12 2t-19 5.5t-17.5 8.5t-7.5 11q0 9 4.5 16t11 12t13 8t10.5 3z" />
    <glyph glyph-name="Q" unicode="Q" horiz-adv-x="459" 
d="M234 581q20 0 42.5 -12t34.5 -27q38 -21 72 -59t51 -80q0 -4 1 -15t1.5 -24t1.5 -24t1 -15v-28v-55q0 -11 -3.5 -26t-9.5 -32.5t-14 -35.5t-17 -34q-11 -15 -22 -27t-20.5 -22t-15.5 -16.5t-6 -9.5q0 -7 12.5 -21.5t32 -32.5t43.5 -38t46.5 -38t41 -32.5t27.5 -21.5
q42 -29 84.5 -52t84.5 -50q4 -8 30 -20.5t57.5 -24.5t61 -21t40.5 -9l28 -12h20q10 -2 20 -3q8 -1 17.5 -1.5t17.5 -0.5h86q13 0 27.5 2.5t28.5 2.5q8 0 19.5 1.5t19.5 1.5q6 0 9.5 -1.5t18.5 -1.5q24 0 42 5.5t32.5 11.5t25.5 11.5t22 5.5h17q8 0 18 -3t10 -11
q0 -11 -15 -22t-33.5 -21.5t-35 -19t-19.5 -12.5l-36 -6q-9 0 -20 -1t-19 -7h-56q-21 -3 -30.5 -5.5t-14.5 -4.5t-11 -3t-19 -1h-39q-3 0 -12 1.5t-19 3.5q-11 3 -25 6h-19q-3 0 -21.5 4.5t-42 9.5t-46 9.5t-32.5 4.5q-33 0 -69 16t-70 28q-38 15 -69.5 34t-52.5 33
q-15 8 -35 11.5t-43 16.5q-6 8 -9.5 15.5t-18.5 12.5q-14 10 -29 24t-31 28.5t-31.5 28.5t-30.5 24q-15 0 -22.5 11t-13.5 28q-15 13 -29 17.5t-27 18.5q-8 7 -11.5 19t-16.5 20q-11 10 -27.5 18.5t-33 17.5t-31.5 20t-22 28q-11 15 -21.5 26t-18.5 21t-13 21t-5 26l-3 28
l-5 67v55v39l5 17q0 8 3 12t11 19q0 6 5.5 12.5t5.5 14.5q2 13 11 27.5t21.5 26.5t27 21.5t29.5 13.5q7 0 17 8t25 15q14 8 27.5 13.5t28.5 5.5zM242 492q-28 0 -46 -12t-30 -32t-21.5 -46.5t-19.5 -54.5v-50q0 -33 17.5 -72.5t40.5 -77.5q3 -6 10.5 -14.5t16 -16.5
t17.5 -13.5t15 -5.5q21 0 36.5 23t27 51t19 53t11.5 29v28q0 33 -7 50t-7 22v22q0 13 -12 38t-26 46q-7 6 -17.5 19.5t-24.5 13.5z" />
    <glyph glyph-name="R" unicode="R" horiz-adv-x="614" 
d="M398 575q20 0 37.5 -15.5t31.5 -28.5q8 -24 25 -36q6 -7 12 -15t8 -19q4 0 8 -8.5t7 -20t5 -21.5t2 -13q0 -14 -5 -31t-12.5 -34t-16 -32.5t-14.5 -25.5q-4 -7 -10.5 -11t-12.5 -7.5t-10.5 -9.5t-4.5 -16q0 -11 6 -29t15 -36t18.5 -32t15.5 -17q12 -8 21.5 -20t20 -24
t22.5 -21.5t28 -12.5q6 -2 19 -7.5t20 -12.5q6 -6 6.5 -8.5t-1.5 -10.5q-3 -11 -14.5 -16t-25 -6.5t-24.5 -1t-13 1.5q-7 6 -18.5 6t-18.5 2q-27 16 -38 26t-26 19q-6 3 -15 10.5t-19.5 17.5t-21 21t-19.5 20q-12 15 -20.5 29t-15 26.5t-12.5 23t-13 16.5q-14 8 -20.5 15
t-20.5 7q-12 0 -18.5 -7.5t-10 -17.5t-4.5 -21t-1 -18l11 -47v-20q0 -24 15.5 -36t33.5 -20t33.5 -15.5t15.5 -22.5q0 -7 -7 -12t-13 -5h-36l-56 8h-22h-47h-17h-39q-3 0 -19.5 1.5t-35 5t-33.5 10t-15 17.5q0 3 3 6t7 6q4 4 10 7q3 0 9 -1l12 -2q7 -1 15 -2h20
q20 0 33.5 11.5t13.5 24.5v105v162l8 72q-3 10 -4 24t-3.5 26.5t-9 22.5t-19.5 13h-39q-11 0 -22 2t-20.5 7t-15.5 14t-6 24q0 3 4.5 6.5t9.5 6.5q6 4 14 7l169 8h103q3 0 11 1t16 3q10 2 21 4h39zM303 473q-4 -1 -9 -2q-5 -2 -11 -3.5t-13 -6.5q-7 0 -13.5 -6.5t-6.5 -20.5
v-17v-39v-17q0 -8 -4 -14.5t-4 -12.5l4 -2q2 -2 3 -3.5t1 -6.5q-3 -10 2 -18.5t14 -15t19.5 -10t17.5 -3.5l18 8q8 3 14.5 6t11.5 3l20 -8q13 0 22 10.5t14.5 24t8.5 26t5 16.5l-6 28q0 7 -1.5 13.5t-9.5 14.5q0 6 -1.5 18t-9.5 18q-3 0 -14.5 3t-25 7t-27 7t-19.5 3z" />
    <glyph glyph-name="S" unicode="S" horiz-adv-x="492" 
d="M100 475q0 16 5.5 27.5t15 20.5t21.5 17t25 16q27 17 49.5 28t55.5 11q21 0 37 -0.5t33 -13.5q14 -11 19.5 -24t5.5 -32q0 -10 -3.5 -21t-10 -20t-16 -14.5t-20.5 -5.5t-17.5 5.5t-12 11.5t-12 11.5t-16.5 5.5q-13 0 -26.5 -2.5t-24.5 -8.5t-18 -15t-7 -22q0 -12 8 -17
t19.5 -7t24.5 -4t24 -8q27 -14 46.5 -25t44.5 -28q9 -5 16 -8.5t13.5 -6.5t13.5 -7t16 -11q29 -23 46.5 -46.5t17.5 -61.5v-23q0 -12 4 -21.5t4 -22.5q0 -21 -8.5 -34t-16.5 -30q-2 -8 0 -13.5t-3 -11.5q-4 -13 -13 -17t-17 -14q-9 -8 -17 -14t-16 -11.5t-16.5 -10.5
t-20.5 -11q-19 -11 -34 -15.5t-35 -9.5q-7 -2 -12 -6.5t-13 -4.5q-9 0 -14 1.5t-11 1.5q-15 0 -23.5 -3t-21.5 -3q-8 0 -12.5 3.5t-12.5 5.5q-11 4 -19.5 3.5t-19.5 1.5q-11 0 -18 6.5t-18 13.5q-11 6 -21 8.5t-21 13.5q-11 6 -12 15.5t-7 20.5q-8 17 -14 26.5t-6 29.5
q0 29 22 50.5t53 21.5q19 0 36 -8.5t17 -25.5q0 -6 -1.5 -9t-1.5 -7q0 -7 3 -11t3 -9q0 -2 -1.5 -5.5t-1.5 -5.5q0 -15 8 -25.5t20.5 -18t28.5 -11t32 -3.5q32 0 58.5 15t47.5 40q12 13 20 27t8 35q0 12 -6 22.5t-6 21.5q0 5 1.5 5.5t1.5 2.5q0 16 -8.5 26.5t-21.5 18.5
t-28.5 15t-30.5 15q-4 2 -6.5 7t-7.5 7q-10 5 -20 5.5t-19 8.5q-8 5 -11 10.5t-11 11.5q-11 5 -19.5 5.5t-19.5 8.5q-6 7 -10.5 12t-8.5 13q-8 10 -19.5 16t-11.5 21v25q0 6 -1 12t-1 13q0 4 1 6.5t1 6.5q0 5 1.5 8.5t1.5 5.5z" />
    <glyph glyph-name="T" unicode="T" horiz-adv-x="662" 
d="M631 584q3 0 6.5 -7.5t6.5 -17.5t5 -20t2 -14v-72q0 -4 -0.5 -15t-3 -22.5t-8.5 -20.5t-16 -9q-17 0 -24.5 7.5t-11 19t-5.5 25t-7 25t-15.5 19t-31.5 7.5h-55q-5 0 -11 -1t-11 -3l-12 -4q-21 0 -32.5 -13.5t-11.5 -33.5v-48q0 -8 -0.5 -14.5t5.5 -12.5l-5 -39v-162
q0 -20 3 -32.5t8 -20.5t11 -13.5t11 -10.5q15 -5 27 -9.5t29 -4.5q30 -5 45 -18.5t16 -28t-11 -27t-36 -15.5q-9 0 -17.5 3t-16.5 5q-9 1 -20 1t-22.5 0.5t-22 2.5t-18.5 7h-6h-89q-6 0 -24.5 -5.5t-41.5 -5.5q-16 0 -29 1q-11 1 -22.5 1.5t-15.5 0.5q-5 0 -8 -4t-20 -4
q-2 1 -4 4q-2 2 -3 4.5t-1 7.5q4 11 10 22q5 9 11.5 19t14.5 18q14 5 26 9q10 4 19.5 7t12.5 3l48 11q7 0 11 9.5t6 20.5q2 13 2 31v106q0 4 4 14l4 8v128q0 8 1.5 16t1.5 15q0 3 -3 9t-8 12t-11.5 10.5t-13.5 4.5h-111q-21 0 -32.5 -7.5t-17.5 -19t-9 -25t-7.5 -25
t-12.5 -19t-24 -7.5q-15 0 -21.5 11.5t-6.5 24.5q0 4 1 12.5t2.5 17.5t3 17t1.5 11l12 48q0 3 1.5 13.5t5 22.5t8.5 21t12 9q13 0 20.5 -5l16.5 -11q6 -5 12.5 -8t17.5 -3q6 0 18 2.5t18 2.5h20q3 -2 7 -2.5t9 -1.5t11 -1h151l27 5l28 -5q21 0 43.5 2.5t42.5 2.5h48
q18 0 32 5t24.5 10.5t17 10.5t9.5 5z" />
    <glyph glyph-name="U" unicode="U" horiz-adv-x="625" 
d="M442 347q-2 3 -4 7q-4 8 -4 13v47l-9 56v19q0 11 -7 14.5t-15 5.5q-11 2 -19.5 4t-8.5 12q0 9 4 17.5t9.5 16t12.5 12t13 4.5q14 -7 28 -11q12 -5 27 -8t29 -3h39q10 0 23 2.5t24.5 2t19.5 -7t8 -25.5q3 -10 4 -19q1 -8 0.5 -15t-4.5 -10h-28h-20q-12 0 -19.5 -12.5
t-7.5 -26.5q-5 -15 -6 -24t1 -14q1 -6 5 -9l-12 -36q5 -8 6.5 -16.5t3.5 -15.5q1 -9 2 -16q0 -3 -2 -9t-4 -13l-4 -14t-2 -11v-19q0 -4 -1 -10t-3 -13l-4 -16q0 -7 2 -12.5t4 -10.5q2 -4 2 -9.5v-12.5q0 -14 -2 -19q-6 -6 -6 -20t-11.5 -28.5t-24.5 -37.5q0 -13 -12.5 -22.5
t-26.5 -22.5q-7 -8 -11 -12.5t-7.5 -7.5t-8 -5t-12.5 -5q-33 -15 -65 -17.5t-46 -2.5q-17 0 -37.5 2t-41 7t-39.5 12t-32 18l-20 28q-8 11 -14 24t-11 24q-6 13 -11 27v67q0 14 -5.5 28.5t-5.5 37.5v56q2 10 5 20l4 16t2 11q-3 14 -6 25q-5 22 -5 31q2 8 5 16q2 7 4 13t2 10
v55q0 7 -12 12t-26.5 8.5t-26 7t-10.5 8.5q0 13 11 26t25 13l48 11h19q6 0 23.5 -5.5t32.5 -5.5h83q14 0 16.5 -6t2.5 -10q0 -22 -6 -30.5t-15.5 -11t-20 -2.5t-20 -4.5t-15.5 -17t-6 -40.5q0 -3 1 -9.5t2.5 -14t3 -14t1.5 -9.5v-28v-150v-67q-6 -13 -3 -16.5t3 -11.5
l11 -27q10 -15 19 -24t20 -14.5t26 -7.5t38 -2q7 0 24 6t32 14q3 7 9.5 13.5t15.5 18t19.5 30t22.5 49.5v39q0 7 1 26t2.5 40t3 39.5t1.5 24.5z" />
    <glyph glyph-name="V" unicode="V" horiz-adv-x="684" 
d="M247 564q13 0 20.5 -2t7.5 -14q0 -19 -12 -28t-27 -14t-27 -10t-12 -15q0 -8 3 -18t6.5 -19t8 -15t7.5 -6q7 -7 12 -15q5 -7 9 -14.5t4 -15.5q0 -3 4.5 -15.5t11.5 -30t15.5 -37.5t18 -36.5t18.5 -27.5t16 -11q6 0 12.5 10t11.5 22q6 14 12 32q7 10 21.5 36.5t28.5 57.5
t25 59.5t11 43.5q0 11 -6.5 14.5t-12.5 7.5q-7 2 -13.5 7t-6.5 15t6 16t14.5 8.5t16 3t10.5 0.5h48q3 0 6 -1t5 -2q3 -1 5 -2q22 0 32.5 1t17 2.5l13 3t21.5 1.5l19 -3l20 3q12 0 21 -7t9 -24q0 -11 -4 -17.5t-10 -9.5t-14 -5l-16 -4q-23 -4 -47 -9.5t-34 -26.5l-5 -22
q-2 -3 -7.5 -11t-11.5 -18t-11.5 -21.5t-8.5 -21.5q-3 -6 -7 -11q-3 -5 -6.5 -9.5t-6.5 -7.5q-6 -15 -14.5 -33.5t-21.5 -33.5q-25 -59 -43 -109q-8 -21 -16 -43t-14 -40.5t-9.5 -33t-3.5 -21.5v-28q0 -15 -3.5 -25.5t-24.5 -10.5q-8 0 -16.5 1t-16.5 7q-13 6 -14.5 14
t-7.5 14q-9 12 -9 22q-2 11 -4 19.5t-7 16.5q0 7 -5.5 18.5t-5.5 17.5q-11 19 -17.5 36.5t-13.5 35.5t-15.5 37.5t-23.5 41.5q-2 10 -5 20q-2 8 -4 16.5t-4 13.5l-9 25q-2 6 -9.5 17t-15.5 22q-10 12 -22 27q-5 38 -17.5 71t-35.5 46q-50 26 -50 45q0 16 28 16h19q14 0 34 5
l22 6h36l25 -5l18 2q7 1 13.5 2t10.5 1h30z" />
    <glyph glyph-name="W" unicode="W" horiz-adv-x="992" 
d="M247 564q13 -6 20.5 -9.5t7.5 -17.5q0 -15 -13.5 -21.5t-29.5 -10.5t-29.5 -9t-13.5 -15q0 -8 3 -15.5t11 -17.5q6 -9 11.5 -17.5t5.5 -16.5l13 -26q5 -11 9.5 -22t4.5 -19q0 -2 3.5 -12.5t9 -25t12.5 -30.5t14 -29q5 -6 7 -13.5t4 -14.5q2 -2 4.5 -10.5t5.5 -17.5
l5.5 -16.5t4.5 -7.5t4 7.5t4 16.5t4.5 17t4.5 9q5 7 9 16.5t7 18.5t4.5 16.5t1.5 9.5q6 6 12.5 17.5t13 26.5t13 31.5t14.5 32.5q12 29 22.5 52t10.5 40q0 10 -7 13.5t-15 5.5t-15 6.5t-7 18.5q0 9 5.5 14.5t13 9.5t15 5.5t10.5 1.5q8 0 11.5 -1t16.5 -7h47q18 0 23.5 1
t8.5 2.5t7.5 3t18.5 1.5h48q12 0 20 -7t8 -24q0 -14 -10 -20t-24.5 -9.5t-29.5 -7t-25 -10.5q0 -30 13 -53q5 -8 11 -20.5t6 -29.5q0 -2 4.5 -19t11.5 -38.5t16 -44t18 -34.5q2 -2 6 -13t7.5 -23t7 -22t4.5 -9t3 8.5t4.5 15.5t5 15.5t4.5 8.5q7 7 11.5 16.5t6.5 19t3 17.5
t1 11q11 10 21 34.5t21 51.5q4 12 10.5 24t8.5 23q14 44 14 64q0 10 -7.5 13.5t-16 5.5t-16 6.5t-7.5 18.5q0 9 6 14.5t14.5 9.5t16 5.5t10.5 1.5q15 0 19 -1t12 -7h44q13 0 19 1t10.5 2.5t9.5 3t17 1.5h50q13 0 20.5 -7t7.5 -24q0 -14 -4 -21t-10 -11t-13.5 -5t-14.5 -2
q-12 -1 -23.5 -2t-21 -4t-17 -9t-10.5 -18l-9 -36l-27 -58q0 -9 -8.5 -17t-16.5 -14q-5 -12 -6 -20.5t-2.5 -17t-5 -17t-11.5 -20.5q-22 -53 -39 -98q-8 -19 -15 -38.5t-12 -36t-8.5 -29.5t-3.5 -20l-6 -22q-2 -8 -3.5 -16t-1.5 -10q0 -4 -0.5 -10.5t-3 -13t-8.5 -11
t-16 -4.5q-8 0 -11 9q-7 2 -9.5 5t-7.5 3q-8 8 -12 11.5t-10 16.5q-5 4 -7 11.5t-4 13.5q0 8 -3.5 14t-5.5 11q0 14 -1.5 22t-9.5 14q-11 22 -16.5 37.5t-11 29t-13 27t-20.5 31.5q0 4 -1.5 11l-3 14t-2.5 13t-1 9l-17 28q0 5 -2 15t-6 19q0 1 -1.5 8t-3 15t-3 15.5
t-1.5 8.5q-1 2 -2.5 -3t-3 -12.5t-3 -14.5t-2.5 -9q-14 -15 -20.5 -34.5t-12.5 -40.5q-22 -48 -39 -88q-15 -35 -27 -68t-12 -47l-10 -26q-4 -10 -7 -19t-3 -11q0 -8 -1 -16t-7 -14q-14 -7 -23.5 -8t-23.5 -1q-6 7 -13 19.5t-15 25.5q-4 4 -6.5 11.5l-4.5 13.5q0 8 -2 14
t-4 11q0 14 -1.5 22t-9.5 14q-21 44 -33.5 80.5t-32.5 69.5q-4 4 -7 12.5t-6 16.5q-4 10 -7 21v28q0 2 -5 12.5t-12 23.5q-6 11 -12.5 22.5t-6.5 13.5q-15 43 -32.5 66.5t-33.5 37.5t-26.5 23t-10.5 23q0 9 6.5 20t21.5 11h131l20 4q8 2 15.5 3t11.5 1h30z" />
    <glyph glyph-name="X" unicode="X" horiz-adv-x="703" 
d="M498 584q4 0 12.5 -1.5t16.5 -3.5q10 -2 21 -4q20 -8 36 -13.5t39 -5.5q21 0 28.5 -8t7.5 -31q0 -11 -8 -19.5t-19 -14.5t-24.5 -9.5t-23.5 -3.5q-25 -3 -47 -20.5t-42 -41.5t-40 -50t-41 -47v-27q0 -8 4.5 -16.5t11 -18.5t13 -20.5t10.5 -20.5q6 -14 19 -33t26 -33
q10 -11 18.5 -26.5t18 -30t23 -23t34.5 -4.5h39q18 -4 29 -12.5t17 -19t8 -22t2 -21.5v-22q0 -6 -11 -11.5t-17 -5.5q-8 0 -12 3t-8.5 7t-10.5 9t-16 9h-37q-11 -3 -21 -6q-18 -5 -29 -5l-36 11h-19q-7 0 -18.5 5.5t-17.5 5.5q-8 2 -18 1t-19 -1t-15.5 3t-6.5 14
q0 19 8.5 25t19.5 8q8 5 15 11t7 23q0 7 -3.5 12.5t-8 11.5t-9 13.5t-6.5 17.5q-5 7 -10.5 18.5t-13 22.5t-16.5 18.5t-19 7.5q-6 0 -13.5 -6.5t-14.5 -21.5q-10 -15 -23 -27.5t-24.5 -26t-19.5 -28t-8 -32.5q0 -11 6 -19.5t13.5 -16t13.5 -13t6 -9.5q0 -5 -7 -5.5t-15 -0.5
h-186q-16 3 -28 7q-11 4 -19.5 11t-8.5 18q0 7 7.5 14.5t17 12.5t19 8.5t12.5 3.5h47q13 0 25.5 10.5t24 25t22.5 30t22 26.5q13 23 28 38.5t28 36.5q8 8 10.5 15.5t9.5 12.5v22q0 6 -6 17t-14 22.5t-16 20.5t-12 12q-14 15 -19 28.5t-20 22.5q-7 6 -12.5 15.5t-11.5 19
t-13.5 17.5t-17.5 11q-11 3 -21.5 4t-22 2t-24 3.5t-27.5 10.5q-14 6 -25 19t-11 25q0 17 10 24t18 7h19q7 -6 18.5 -7t18.5 -1h113q3 0 10.5 1t15.5 3q9 2 19 4h50q6 0 22 4t22 4l39 -8h17q4 3 17 7.5t28 9t29.5 8t20.5 3.5zM386 537q-16 -9 -30 -17q-12 -8 -24.5 -15.5
t-20.5 -15.5q-14 -6 -11 -13.5t3 -14.5q0 -3 5 -21t13.5 -39t20 -37.5t25.5 -16.5q7 0 22.5 18t31.5 41.5t28 45t12 29.5l-8 8q-4 3 -13.5 11t-20 16.5t-20 14.5t-13.5 6z" />
    <glyph glyph-name="Y" unicode="Y" horiz-adv-x="639" 
d="M575 564q6 0 15.5 -2t18.5 -4.5t15.5 -5t6.5 -4.5q0 -23 -13 -36.5t-34 -13.5h-31q-14 0 -21 -5t-11.5 -12.5t-6.5 -18t-5 -20.5q-5 -6 -9 -12t-11 -10q-4 -7 -9.5 -13t-9.5 -12q-6 -11 -17.5 -33.5t-22.5 -50t-19 -55.5t-8 -50v-36l-5 -28q0 -3 1 -12.5t3 -19t5 -17
t7 -7.5q7 -4 29 -9.5t45.5 -13t41.5 -16.5t18 -19q0 -5 -1 -9q-2 -8 -10 -8q-9 -8 -15.5 -11t-12.5 -11q-4 0 -6.5 -4.5t-5 -9.5t-6.5 -9.5t-10 -4.5q-8 0 -20.5 5.5t-26.5 5.5h-67q-8 0 -16 1q-7 1 -15.5 2.5t-15.5 5.5h-45q-17 0 -25 -4.5t-25 -4.5h-17q-35 0 -46.5 9
t-11.5 36q0 17 9 33.5t30 16.5l47 -11q6 0 14.5 3.5t15 8.5t9.5 12t0 15l-11 111q0 8 -1 16.5t4 16.5q0 6 -3 12.5t-3 12.5q0 21 -10.5 37.5t-33.5 37.5q-7 15 -26.5 28t-40.5 28q-6 14 -18 29t-18 29q-6 5 -13 7t-15 7q-19 5 -39 8q-17 7 -26.5 18.5t-9.5 31.5q0 17 7.5 28
t28.5 11h48q14 0 27 -5.5t20 -5.5h47q3 0 11 -1t17.5 -1.5t19.5 -1.5t16 -1h22q7 0 8 -1.5t1 -9.5t-6 -15t-12.5 -15.5t-12.5 -17.5t-6 -19q0 -11 11 -28t25 -34q16 -19 37 -41q0 -3 2 -9t4.5 -12t6 -10.5t6.5 -4.5q7 0 14 10t13 23t11 24.5t9 14.5q0 4 6 14t13.5 21.5
t13.5 23t6 19.5q0 6 -8 10t-17 9.5t-17 13.5t-8 23q0 4 4.5 7t11 5t13 3t10.5 1q6 -2 11 -3t9.5 -1.5t7.5 -0.5h19q15 4 26 4.5t38 0.5q10 0 16.5 1.5t11 4t9.5 4t13 1.5z" />
    <glyph glyph-name="Z" unicode="Z" horiz-adv-x="728" 
d="M225 642q4 0 19.5 -5t38.5 -12.5t50.5 -17.5t55.5 -20q27 -9 52.5 -18t45.5 -15.5t34 -10.5t18 -4q6 0 26.5 5.5t43.5 12.5q26 8 58 18q23 0 31 -11.5t8 -24.5q0 -29 -8 -42t-22.5 -19.5t-35 -12t-45.5 -20.5q-11 -8 -21 -9t-20 -1t-19.5 -1.5t-17.5 -8.5
q-21 -14 -42 -29t-41 -29q-7 -6 -15.5 -18t-20.5 -18q-3 -2 -17 -10.5t-34 -20t-41.5 -24.5t-40.5 -25t-31 -21.5t-12 -12.5q0 -7 16.5 -13.5t31.5 -17.5q17 -11 27 -22t14 -11q18 -15 35.5 -34t34.5 -39t32 -40.5t29 -36.5q23 -38 51 -78t55 -75q6 -8 17.5 -16t18.5 -15
q14 -6 28.5 -18.5t26.5 -17.5q4 -4 14 -8t21 -7t20 -5t12 -2h28q8 -2 15 -5q14 -5 24 -12l44 9l31 -9q7 0 9.5 1.5t5.5 3t7.5 3t16.5 1.5t22.5 1t24.5 7q27 8 53.5 22.5t49.5 27.5q6 5 11 10.5t11 11.5q9 16 25 28q7 0 10.5 6t7.5 12t10.5 10t21.5 0l3 -3q1 -2 2 -5.5
t1 -11.5l-6 -27q0 -11 -10.5 -25t-24 -28.5t-26.5 -28t-19 -21.5q-24 -19 -55 -33.5t-59 -24.5t-49 -15t-24 -5h-50q0 5 -8 7q-4 1 -8 1h-39l-17 -8h-47q-3 0 -13 1t-21 2.5t-20.5 3t-12.5 1.5q-35 7 -66.5 28.5t-60 46.5t-52 49.5t-41.5 39.5q-6 13 -17.5 27t-18.5 29
q-8 21 -26 35t-32 29q-15 23 -24 44t-23 42q-11 7 -18 17t-14.5 20t-16.5 18.5t-24 11.5q-21 3 -41.5 9t-40.5 12t-39 10.5t-37 4.5q-6 0 -7 10.5t-1 17.5t10.5 17t23.5 19t24.5 15.5t13.5 6.5q15 10 31 17t32.5 13.5t34 13t35.5 17.5q21 17 42 28.5t44 32.5q10 6 20.5 16
l21 20t21 18.5t21.5 12.5q3 3 6 7.5t6 9.5q4 5 7 11q0 5 -6 11l-5 5q-11 4 -36 13.5t-54.5 19t-56.5 16.5t-42 7q-3 0 -13.5 -4.5t-22.5 -10t-22.5 -11t-13.5 -7.5q-8 -15 -21.5 -29.5t-28.5 -26t-29.5 -19.5t-23.5 -9q-4 -1 -10.5 -1t-13 2.5t-11 8t-4.5 15.5
q0 24 10.5 43.5t26.5 35.5t33.5 28.5t32.5 23.5q8 14 19.5 27.5t19.5 19.5q3 3 13.5 9.5t22.5 13t22.5 11.5t13.5 5z" />
    <glyph glyph-name="bracketleft" unicode="[" horiz-adv-x="292" 
d="M253 806q8 0 18 -9.5t10 -23.5q0 -4 -15.5 -9.5t-33.5 -11.5t-33.5 -12.5t-15.5 -13.5v-223q-2 -8 -4 -15q-2 -6 -3 -12t-1 -9l8 -136v-56l-2 -50q0 -11 0.5 -27.5t0.5 -32.5t0.5 -29t0.5 -16v-120v-47q0 -3 3 -9.5t7.5 -13t9.5 -11.5t8 -5l36 -22q15 -7 23 -14.5
t8 -22.5q0 -7 -7.5 -8.5t-18.5 -1t-22.5 2.5t-18.5 2h-19h-17h-19l-39 8q-15 0 -23 -2.5t-16 -2.5q-7 0 -17.5 5.5t-10.5 13.5q0 10 4 17.5t9 14t10.5 13.5t7.5 16q2 15 1 23t-1 16v28v208v240v33q0 53 1 96q0 37 0.5 68t0.5 36q0 27 -9 40.5t-16 17.5q-4 2 -7.5 11t-3.5 34
q0 4 1 8q1 3 2.5 6t5.5 3h19h7.5t9.5 1q5 0 11 1q4 0 11 -1l14 -2q8 -1 17 -2q12 0 22 1.5t16 1.5z" />
    <glyph glyph-name="backslash" unicode="\" horiz-adv-x="539" 
d="M61 603l21 21t14.5 12.5t14.5 8t22 8.5q17 8 26 14t30 6q25 0 37 -8.5t17 -23t6 -34.5t4 -43q1 -6 10 -31t19.5 -53.5t19 -52.5t9.5 -29q2 -11 8.5 -42t15.5 -72t19.5 -85.5t21.5 -83.5t20.5 -67t17.5 -34q6 -6 20 -5t27.5 3t22 1t5.5 -13q-11 -25 -29.5 -38.5
t-39.5 -28.5q-5 -2 -11.5 -5.5t-10.5 -8.5q-8 -5 -11 -9t-6 -6t-7 -3t-13 -1q-20 0 -31 11.5t-13 30.5q0 12 1.5 27t-4.5 25q-1 3 -4.5 15t-8 25.5t-8 25.5t-4.5 15q-5 23 -5 42q0 2 -2.5 14.5t-7 30.5t-9.5 38.5t-9 38t-7.5 30.5t-3.5 15q-1 2 -3.5 12l-5.5 22t-6 22.5
t-5 12.5q-2 3 -6.5 15t-10 25.5t-11 25.5t-8.5 15q-1 3 -4 21t-7 38.5t-7 38.5t-4 21q-5 7 -12.5 8.5t-7.5 5.5q-8 5 -12.5 6.5t-14.5 1.5q-13 0 -25.5 -8t-25.5 -8q-12 0 -16.5 7t-2.5 18q5 13 11 19z" />
    <glyph glyph-name="bracketright" unicode="]" horiz-adv-x="292" 
d="M47 -156q-6 0 -15.5 9.5t-9.5 24.5q0 5 15.5 11t33.5 12.5t33.5 13.5t15.5 13v66l2 16q1 7 2 13.5t1 9.5l-5 134v105l2 48q0 7 -0.5 24.5t-1 40.5t-1 48t-1 46.5t-1 36.5t-0.5 18v117q0 8 1.5 17t1.5 30q0 3 -3.5 9.5t-8 13t-9 11.5t-7.5 5l-39 22q-13 6 -20.5 14
t-7.5 22q0 7 7.5 9t18.5 1.5t22 -2.5t19 -2h19h17h19l39 -9q13 0 22 3t17 3q7 0 17.5 -5.5t10.5 -14.5q0 -10 -4.5 -17.5t-9.5 -14t-9.5 -13.5t-4.5 -16q-2 -14 -1 -22.5t1 -16.5v-27v-312v-286v-36q-2 -9 -3 -18q-1 -8 -1.5 -15.5t-0.5 -11.5q0 -27 9.5 -40.5t17.5 -17.5
q5 -2 7 -10.5t2 -31.5q0 -6 -1 -10q-2 -9 -8 -9h-19q-5 0 -9 -0.5t-9 -1.5t-10 -1t-11.5 1t-12.5 3q-7 2 -15 4q-17 0 -26.5 -2.5t-17.5 -2.5z" />
    <glyph glyph-name="asciicircum" unicode="^" horiz-adv-x="478" 
d="M311 131q0 6 -1.5 15t-12.5 15q-4 7 -7 13q-2 5 -4 11.5t-2 11.5q0 2 -3 12.5t-8 23t-12 25.5t-14 20l-2 14q-2 0 -3 10t-3 12q0 -2 -1.5 -12.5t-1.5 -12.5q-3 -3 -6 -9.5t-5 -13.5q-3 -8 -5 -16q-5 -6 -14.5 -21.5t-19.5 -33.5t-17.5 -34.5t-7.5 -24.5q0 -4 -5.5 -22
t-16.5 -31q0 -6 -4 -7.5t-10 -3.5q-2 0 -3.5 -1t-3.5 -2l-4 -2h-16.5t-15.5 2t-11 7t-4 16q0 8 5 24.5t11 30.5l6 14q1 1 2 3q2 4 4 6v-3q6 8 11.5 21t10.5 26q2 3 4 7q3 6 10 13l2 5q2 8 8 18t12 18q15 37 26 68q10 26 18.5 50t8.5 32q2 7 2.5 11.5t2.5 11.5q0 10 3.5 18.5
t24.5 8.5h6q2 0 2.5 1t2 1.5t5.5 -1t12 -6.5q6 -4 11 -17h2q1 0 1.5 -1t2.5 -2v-12t2 -13q3 -3 3 -5v-3v-14q0 5 2 -2t4 -12q0 -2 1 -4t1 -4q5 -11 9 -17t8 -17q2 -12 8.5 -25t19.5 -30q1 -7 3 -13q2 -5 2.5 -10.5t2.5 -7.5h-3l9 -22q1 -2 6 -8t10 -13l14 -18
q5 -13 8.5 -24.5t5.5 -19.5q5 -13 8 -23.5t3 -18.5q0 -27 -25 -31l-33 -19l-22 8z" />
    <glyph glyph-name="underscore" unicode="_" horiz-adv-x="500" 
d="M375 -100q9 -2 22 -1t27 2.5t28.5 2t25.5 -3.5q15 2 33.5 2t47.5 -2q-1 -3 -2 -7q-2 -3 -3.5 -7t-3.5 -8q-1 -3 -2 -6.5t-5.5 -7t-14 -7t-28.5 -7.5q-6 1 -22 0.5t-35.5 -1t-39.5 0t-33 3.5h-19t-29.5 -0.5t-31 -2t-23.5 -3.5q-17 -4 -44 -2t-59 2h-18t-24.5 0.5t-24.5 1
t-19 1.5q-8 -2 -15.5 -3t-16 -0.5t-19.5 1.5t-27 2q-10 -1 -19 -2q-8 -1 -16.5 -1h-14.5q1 3 6 10.5t12 16t15.5 16t16.5 10.5q48 4 98.5 2t98.5 -2q15 2 40.5 0t57.5 0h80z" />
    <glyph glyph-name="grave" unicode="`" horiz-adv-x="334" 
d="M33 945q5 -8 12.5 -19t18.5 -17q11 -8 21 -19.5t18 -22.5q19 -20 33.5 -39t27.5 -38q3 -1 6.5 -6.5t7.5 -11.5t8 -11t9 -5q3 -8 9 -17t12.5 -18.5t11.5 -20t6 -22.5q6 -2 6.5 -6.5t6.5 -4.5q5 -6 1 -13.5t-6 -14.5q-2 -11 -15.5 -19t-26.5 -6q-6 1 -15.5 9.5t-18.5 19.5
t-16.5 21l-10.5 14q-8 11 -16.5 18t-16.5 21q-13 17 -21.5 37.5t-23.5 46.5q-1 9 -7 25t-14 33t-17 34.5t-15 29.5q-6 17 3.5 23.5t21.5 -1.5z" />
    <glyph glyph-name="a" unicode="a" horiz-adv-x="381" 
d="M336 484q21 0 30 -12t9 -33q0 -4 -3 -17.5t-7.5 -30t-9.5 -33.5t-8 -27q0 -8 -1 -16.5t-7 -22.5q-8 -6 -8 -19.5v-19.5l-3 -53v-39q0 -3 0.5 -10.5t2 -15t5.5 -13t11 -5.5l14 22q6 5 14 12.5t16 14.5q9 8 18 17q6 0 10 -5t4 -11l-4 -8q-4 -8 -8 -12q-7 -20 -18 -34.5
t-24 -28t-26.5 -27.5t-25.5 -32l-22 -31q0 -9 -5.5 -18.5t-13 -15t-16 -5t-13.5 11.5q-6 18 -6 35.5t3 34t6 31.5t3 29v36v20q0 5 -7 7q-4 1 -7 1t-15 -17.5t-27.5 -40t-31.5 -45.5t-26 -33q-3 -4 -9.5 -11.5t-14 -14.5t-16.5 -12.5t-16 -5.5q-14 0 -23 10t-14 23.5t-7.5 27
t-2.5 19.5l-3 72l14 117q0 3 3 14t8 24t11.5 25.5t13.5 20.5q29 27 56 66q13 18 25 26t24 12.5t24 7t27 10.5q6 0 15.5 6.5t17.5 12.5h28h17zM208 373q-18 -15 -34 -34.5t-28 -39.5t-19 -37.5t-7 -27.5q0 -5 -1 -18.5t1 -28t7.5 -26t19.5 -11.5q13 0 30.5 23t33 52t26 54
t10.5 30q0 4 1 19.5t-1.5 30t-11 21t-27.5 -6.5z" />
    <glyph glyph-name="b" unicode="b" horiz-adv-x="311" 
d="M259 884h27q8 0 15.5 -4t15.5 -4l28 8h16q7 0 15.5 -4.5t16 -11.5t12 -14.5t4.5 -13.5q0 -15 -4 -32t-14 -33.5t-26 -29.5t-40 -19h-8h-11q-11 0 -24.5 -6t-25.5 -15.5t-20 -21t-8 -21.5q-8 -7 -10.5 -22.5t-9.5 -27.5q-8 -9 -9.5 -24.5t-1.5 -23.5l-11 -36q0 -14 -6 -28
t-13.5 -30t-13.5 -34.5t-6 -40.5v-20q0 -5 4 -7q2 -1 5 -1q7 0 14 12t18 27t27 27t41 12l22 8q23 0 35 -13.5t12 -36.5v-8l-8 -20l4 -16q2 -7 3 -14.5t1 -13.5q0 -11 -3 -14q-2 -5 -3.5 -8.5t-1.5 -5.5q0 -4 1 -6.5t2 -6.5t0.5 -10t-3.5 -16v-30q0 -3 -5.5 -12.5
t-12.5 -21.5t-15 -26t-12 -27l-11 -44q-18 -26 -34 -47q-14 -18 -26.5 -35t-17.5 -21q-11 -7 -17 -13t-12 -10t-15 -6t-28 -2l-28 -8q-8 0 -11 4.5t-4 12t-2 16.5t-5 17q0 5 -3 10.5t-5 11.5q-7 8 -13.5 15.5t-6.5 18.5q0 8 5 21q3 7 6 15v30l9 92v20l19 94v28v8q0 8 5.5 34
t5.5 61v28l28 114v8q0 7 2.5 22.5t5.5 31.5q4 18 9 40l8 28q2 15 8.5 26.5t19.5 32.5zM203 347q-14 0 -28.5 -21t-26.5 -48t-20 -52.5t-8 -33.5v-39q0 -10 2 -18q2 -7 4 -12.5t7 -5.5h12q14 5 30.5 18t30.5 29t23.5 33t9.5 31v25v22l-5 20l5 16q0 36 -36 36z" />
    <glyph glyph-name="c" unicode="c" horiz-adv-x="281" 
d="M231 473q13 -2 28.5 -6t27.5 -11.5t19 -20t5 -32.5q0 -11 -4.5 -21t-11 -18.5t-14.5 -13.5t-14 -5q-8 1 -13.5 1.5t-8.5 0.5h-6h-8q-17 0 -38 -1t-29 -7q-8 0 -9.5 -5t-1.5 -12l-14 -22q-2 -12 -4 -23l-4 -18t-3 -12v-16l-8 -28q-2 -4 -5 -8q-2 -4 -4 -7.5t-3 -6.5
q0 -9 3 -24.5t8 -30t11.5 -25.5t14.5 -12q15 0 31 12t31.5 26.5t30 26t26.5 10.5q15 -2 17 -7.5t0 -11.5q-1 -14 -11.5 -32t-25 -35.5t-30 -32t-25.5 -20.5q-33 -21 -59 -35t-58 -12q-14 1 -23 14.5t-14 31t-7.5 34.5t-2.5 25l3 9q0 4 -1 13.5t-1.5 20t-1 20.5t0.5 15
q0 31 7 48.5t7 37.5l11 25v23q1 3 5 15.5t9.5 28t10.5 31.5t8 25q0 6 7 15t16.5 17.5t20 14.5t18.5 6q6 2 7 3t1 2t1 2.5t7 3.5q15 2 23 4.5t15 5t13.5 4t18.5 0.5z" />
    <glyph glyph-name="d" unicode="d" horiz-adv-x="398" 
d="M528 876h28q4 0 8 -6t6 -14q3 -9 5 -19v-28q0 -35 -24 -59t-62 -24q-2 2 -5 4q-6 4 -11 4q-7 0 -14 -2t-11 -6q-6 -6 -13.5 -22t-14 -33.5t-11.5 -33t-6 -20.5l-5 -25q-6 -17 -12.5 -30t-11 -27t-7.5 -30t-3 -38q-4 -7 -9.5 -28.5t-10 -45t-7.5 -43t-3 -22.5v-19
q0 -5 -1.5 -16t-3 -23t-3 -22.5t-1.5 -13.5q-3 -11 -3.5 -20t0.5 -15q1 -8 3 -13q0 -3 -1.5 -11t-1.5 -17t2 -15.5t10 -6.5q13 0 26.5 9t24.5 20.5t19.5 20.5t12.5 9q6 0 11.5 -6t5.5 -14q-10 -11 -17 -22q-7 -10 -12 -20.5t-5 -21.5q-4 -11 -12 -21.5t-18 -22.5
t-19.5 -24.5t-16.5 -25.5q0 -3 -4.5 -7.5t-10.5 -8.5t-12.5 -7.5t-9.5 -4.5q-23 -17 -39 -25t-16 3q-10 -5 -14 2.5t-5.5 22t-0.5 33t1.5 34.5t-0.5 27t-6 11q-8 0 -20.5 -10.5t-26.5 -25.5q-9 -8 -21 -23t-24.5 -29.5t-24 -25.5t-17.5 -11q-10 0 -20 5.5t-17.5 13.5
t-12.5 18.5t-5 21.5v16v45q0 3 2 14.5t5 25.5q3 16 7 35q0 4 1.5 11t3.5 13q3 7 6 15v8l4 20q2 8 3 16t1 11q6 15 8.5 28t11.5 28q3 22 15.5 38t29.5 29t34.5 24.5t31.5 25.5q6 0 11 1q10 2 17 10q18 3 28.5 5t17 6.5t9 11.5t3.5 21l8 28l9 61l8 39q0 3 2 14t5 23t6 22.5
t4 12.5q2 5 2 8v9q0 4 3 12t7 18t9 19.5t9 17.5q10 13 22 30t25 32t27 26.5t29 14.5h8q15 0 18.5 4t9.5 4zM236 364q-20 0 -39 -13t-33.5 -32t-23.5 -39t-9 -35q0 -4 -2.5 -21.5t-1 -35t10.5 -29.5t32 -6q19 5 36.5 25t30 47t19 56.5t5.5 54.5q0 8 -3 14q-2 5 -7.5 9.5
t-14.5 4.5z" />
    <glyph glyph-name="e" unicode="e" horiz-adv-x="284" 
d="M242 475q21 0 35.5 -7.5t23.5 -20.5t13 -30t3 -36q0 -27 -20 -43.5t-41 -28.5q-19 -13 -40.5 -23t-40 -22t-31 -28t-13.5 -41v-42q-2 -17 7 -33.5t23 -16.5q1 -1 8 3t15.5 9.5t17 11.5t12.5 9q15 7 23.5 11.5t12.5 2.5q7 0 12 -2t5 -15q-2 -22 -19 -42.5t-37 -38
t-39 -30.5t-25 -19q-17 -15 -31.5 -16t-29.5 -1q-9 1 -18.5 8t-17 16.5t-11.5 19.5t-3 17v17q0 7 -4 15q-2 4 -4 7l3 20v16q0 4 2 21.5t5 38t5.5 39t3.5 24.5q4 3 4 6t-1 6t-1 7.5t4 10.5q0 12 5 25l6 14l14 33q2 22 21 45.5t44.5 42.5t52.5 30.5t46 9.5zM197 400
q-5 0 -10 -7.5t-10 -16.5q-5 -11 -10 -23q-1 -5 -3 -11.5t-3 -12t1 -9t8 -3.5q5 -1 15 2t20.5 9t19 14.5t9.5 18.5v17q0 5 -3 9t-7 6q-4 3 -10 5z" />
    <glyph glyph-name="f" unicode="f" horiz-adv-x="267" 
d="M356 884q15 4 29 -1.5t25 -16t17.5 -24t6.5 -25.5q0 -6 -3.5 -17t-9 -22.5t-10.5 -21t-8 -11.5q-7 -7 -14.5 -9.5t-14.5 -3t-14 -1.5t-13 -5q-8 -3 -20 -5.5t-24 -7t-23.5 -12.5t-18.5 -23q-3 -11 -10 -41t-14 -62q-8 -38 -17 -83q0 -11 5.5 -17t13.5 -10t17 -5t16 -1h31
q3 0 7.5 -2t9.5 -4q5 -3 11 -5v-20q0 -3 -4.5 -10.5t-11 -15t-13 -13t-10.5 -5.5h-47q-29 0 -38.5 -9t-9.5 -30q-2 -6 -4 -11t-3 -9.5t-1 -7.5q0 -35 -4 -65.5t-4 -43.5q0 -4 -2.5 -19.5t-6 -34t-6 -35.5t-2.5 -24l-3 -48q0 -3 -1.5 -11t-3 -17t-2.5 -17.5t-1 -12.5
q0 -17 -1.5 -26.5t-4 -15.5t-4 -10.5t-1.5 -11.5q0 -4 -3.5 -17.5t-8 -29.5t-10 -31t-9.5 -22q-12 -15 -20 -26.5t-16 -34.5q-6 -3 -20.5 -16.5t-31.5 -28.5t-33.5 -27t-28.5 -12q-11 0 -17.5 -1.5t-12.5 -4t-11.5 -4t-14.5 -1.5h-8q-6 0 -10.5 1t-6.5 -1q-4 -2 -8.5 -2.5
t-10.5 -0.5q-5 0 -15 1t-20.5 2t-19.5 2t-12 1q-4 0 -16 2.5t-24.5 8t-22 13t-9.5 18.5q0 3 4.5 11.5t10.5 18.5t12 19t9 12q0 4 8.5 12.5t20.5 16.5t25 14.5t21 6.5h17q2 -2 6 -5q2 -2 5.5 -4.5t5.5 -4.5l25 -8q7 -2 13 -3q5 -2 11 -2.5t9 -0.5h22q21 0 36.5 9.5t30.5 26.5
q5 1 11 18t13 41t13.5 52.5t12 54t8.5 44.5t3 24v19q0 2 2 17t5.5 36.5t8 47.5t8.5 51t8 46t7 33q0 7 1 15.5t3 15.5l4 16q0 13 -11.5 19t-26 9t-26 7t-11.5 15q0 7 1.5 14.5t9.5 13.5q6 7 17 9.5t22 4t20.5 5.5t13.5 14q4 5 8 19t7 33t6 41t5 41.5t3 35t1 22.5q5 8 11 21.5
t6 25.5t6 24.5t14.5 24.5t18 22t17.5 16q14 14 23 26t24 26q7 3 13 8.5t12.5 10.5t14 8.5t18.5 3.5h17z" />
    <glyph glyph-name="g" unicode="g" horiz-adv-x="278" 
d="M211 467q18 0 30.5 -9t21 -22t12 -27.5t3.5 -24.5v-9v-28q0 -11 -6 -39.5t-13.5 -59t-13.5 -57t-6 -33.5v-19q0 -6 -7.5 -18.5t-16 -31t-16 -43.5t-7.5 -57v-28v-28q8 -14 10.5 -30t17.5 -36q8 -15 10.5 -34t8.5 -33q3 -18 4.5 -28t2.5 -18t1 -16v-22v-38
q-3 -15 -11 -25.5t-17.5 -19.5t-19.5 -16.5t-16 -14.5q-14 -14 -31.5 -26t-23.5 -12l-28 -9h-19q-9 0 -25 -4t-23 -4h-58q-14 0 -25 6t-20 14.5t-16.5 18t-13.5 16.5q-6 3 -13 10.5t-13 16t-9.5 17.5t-3.5 15v28q0 17 4.5 29t12.5 29q4 13 18 31.5t21 32.5q4 5 11 8.5
t14 7.5t14 8.5t11 11.5q14 8 23 15t24 13q7 0 14.5 4.5t14.5 11t13.5 13t12.5 10.5q9 6 14.5 8.5t5.5 10.5q8 7 19.5 13.5t19.5 14.5q5 18 9 35q4 14 7 28.5t3 22.5q0 13 -12 15t-27 2h-8q-4 0 -13.5 6t-19.5 14.5t-17.5 16t-7.5 10.5v20q0 20 -4.5 30.5t-4.5 24.5
q0 21 10.5 52.5t24 62.5t25.5 57t15 37q7 6 17.5 9.5t10.5 18.5q15 12 34.5 28t40.5 16zM170 331q-11 0 -18.5 -11.5t-13 -26.5t-8 -29t-2.5 -19v-45q5 -16 9 -28q4 -11 9 -19t10 -8l14 13q8 28 15 52q5 20 10 39.5t5 25.5q0 5 -0.5 14.5t-3.5 18.5t-9 16t-17 7zM108 -133
q-14 0 -26 -8.5t-26 -22.5q0 -4 -11.5 -14.5t-25 -27t-25 -39.5t-11.5 -52q0 -11 13.5 -20t30.5 -16t33.5 -11t22.5 -4q10 0 22.5 7.5t23 19.5t17.5 26t7 28v39q0 4 -1.5 19.5t-6.5 32t-13.5 30t-23.5 13.5z" />
    <glyph glyph-name="h" unicode="h" horiz-adv-x="375" 
d="M334 903q21 0 35 -11t23 -26t13 -31t4 -26q0 -8 -12 -22t-26 -28q-17 -17 -37 -36q-7 -7 -15 -8t-16 -1q-11 0 -19.5 -1.5t-16.5 -9.5q-21 -12 -33 -30t-20 -39q0 -4 -2.5 -14t-6 -21t-6 -21t-2.5 -14l-11 -44q-1 -3 -5.5 -22t-9.5 -43t-9 -47t-4 -33q0 -4 1 -8
q2 -8 8 -8q12 0 29 15t38 29q6 6 17 16t23 19.5t23.5 16t19.5 6.5h17q19 0 29 -17t14.5 -38t5.5 -39.5t1 -21.5l-3 -34q0 -6 1.5 -25t1.5 -33q0 -3 -1.5 -7.5t-3.5 -9.5t-4 -11v-19q0 -13 -2.5 -17.5t-2.5 -18.5q-5 -16 -11 -23q-7 -6 -10.5 -15t-9.5 -15q-4 -15 -13 -35
t-23 -35q-7 -7 -13 -19.5t-12.5 -25t-16 -21.5t-22.5 -9h-11h-36q-3 0 -11 0.5t-16 3t-14 8t-6 16.5q0 7 5.5 17t12 19.5t13.5 18t10 12.5q15 12 28 25t20 19q20 15 24.5 29.5t11.5 29.5q14 27 22 44.5t8 38.5v39q0 4 -2 12t-7 15.5t-12.5 13.5t-17.5 6q-6 0 -9.5 -5.5
t-17.5 -13.5q-36 -27 -57 -58.5t-38 -66.5q-6 -21 -10 -44.5l-8 -47t-8 -45.5t-10 -41q-8 -13 -19.5 -20.5t-19.5 -7.5q-15 0 -22.5 8t-11.5 19t-4.5 22.5t-0.5 17.5v94q0 4 6 27t13.5 51.5t13.5 55.5t6 41q3 8 4.5 15t3.5 13q2 7 3 14v28q0 4 0.5 6.5t5.5 4.5q0 2 1 4t1 4
v20q0 3 3 13.5t7 23.5t7 26t3 20v61q0 29 7.5 52t11.5 37l3 28q1 7 7.5 21.5t14.5 29.5t16 28t12 16q6 3 8.5 11t5 17t7 17.5t15.5 12.5q2 0 6 0.5t8 2.5q2 2 6 2h8q8 8 23.5 17t31.5 17q18 9 40 16z" />
    <glyph glyph-name="i" unicode="i" horiz-adv-x="242" 
d="M167 481q17 0 28 -12.5t11 -26.5l-9 -28q6 -6 8 -17q1 -5 1 -11q0 -20 -4.5 -37t-4.5 -38v-8q0 -5 -1 -11.5t-3 -12.5q-2 -7 -4 -15v-11q0 -11 -3.5 -18t-7.5 -18q-2 -8 -6.5 -16.5t-4.5 -19.5q0 -4 2 -10.5t6 -13t9.5 -11t12.5 -4.5q8 0 14.5 5t10.5 11q5 5 10.5 8.5
t12.5 3.5h19q6 0 7 -6t1 -14q0 -3 -9 -12t-20 -19.5t-22 -20t-15 -12.5q-3 -7 -13 -24t-22 -34.5t-25.5 -31t-23.5 -13.5q-7 0 -15.5 4.5t-15.5 12t-11.5 15.5t-4.5 16v16q0 8 -1 14t-7 6v19l8 28v47q0 15 4 24t4 23v9q0 7 4.5 20t9.5 28t9.5 29.5t4.5 25.5q0 8 -6.5 17.5
t-21.5 9.5q-6 0 -10.5 -4t-25.5 -4q-2 1 -4 5q-4 6 -4 15v16q0 9 17.5 26.5t40 35t43.5 31t27 13.5zM170 717q4 0 10.5 1.5t13.5 3t13.5 3t9.5 1.5q14 -5 18 -17t12 -25q0 -8 1.5 -16t1.5 -15q0 -6 -4 -14.5t-4 -21.5q-2 -7 -5.5 -17t-9 -18.5t-13 -14t-17.5 -3.5
q-14 0 -30.5 9.5t-24.5 24.5q-7 6 -5 18t2 21q0 27 9 44t22 36z" />
    <glyph glyph-name="j" unicode="j" horiz-adv-x="220" 
d="M175 39q0 -5 -1.5 -12t-3 -13t-2.5 -11t-1 -6q-1 -20 -3 -30t-3.5 -16t-3 -10t-1.5 -11q0 -3 -4 -16t-9.5 -29t-11.5 -31t-11 -21q-9 -14 -21.5 -29t-20.5 -32q-6 -4 -18.5 -17.5t-27.5 -28t-31 -26t-29 -11.5q-1 0 -6 -1t-10.5 -2t-10.5 -2t-6 -1q-3 -2 -6 -3
q-6 -2 -8 -2h-14q-11 0 -16.5 -3t-22.5 -3q-2 0 -15 1.5t-24 1.5q-6 1 -10.5 2t-6.5 1h-5q-3 0 -13.5 2t-21.5 6.5t-20 12t-9 17.5q0 2 3.5 8.5t8.5 15t10.5 16.5t8.5 13q2 4 10 11.5t17.5 15t20 13t16.5 5.5h19q3 -3 7 -6q7 -5 10 -5l25 -6q2 0 7 -1.5t10.5 -3t10 -2.5
t5.5 -1q8 0 11.5 -3t5.5 -3q8 0 18 4.5t19.5 11t19.5 14t18 12.5t16.5 25t15 44t11 45.5t4.5 29.5l17 120q0 1 2.5 14t6 32t8 41t8.5 41v11q0 10 3 19l2 9q0 10 9 22q2 14 5 26.5t3 20.5q0 5 -0.5 11t-2.5 11t-6.5 8.5t-12.5 3.5q-7 0 -20 -8.5t-28 -8.5q-4 0 -8.5 5.5
t-4.5 13.5q0 7 -1.5 8.5t-1.5 3.5q0 9 20.5 27.5t46.5 37t50.5 32.5t32.5 14q13 0 22 -11t9 -25l-3 -34q1 -3 2 -7.5t2 -8.5t1 -9q0 -17 -5.5 -36t-5.5 -36v-14q0 -2 -1.5 -7.5t-3 -11.5t-2.5 -11t-1 -6v-11q0 -19 -7 -33.5t-7 -33.5q0 -4 -1.5 -14.5t-3 -22t-3.5 -22.5
t-3 -16q-2 -8 -6.5 -29t-10.5 -46zM228 714q14 0 18 6t13 6q12 0 25 -8t13 -20q0 -23 -7 -37.5t-15 -35.5q-3 -7 -6.5 -17t-8 -19t-10 -15.5t-11.5 -6.5h-31q-14 0 -17 1.5t-8 9.5q-8 8 -9.5 24.5t-1.5 22.5q0 21 2.5 38.5t17.5 34.5q6 6 9.5 11t18.5 5h8z" />
    <glyph glyph-name="k" unicode="k" horiz-adv-x="439" 
d="M334 895q15 -1 29.5 -6t25.5 -13.5t16 -21t1 -28.5q0 -8 -0.5 -10.5t-2.5 -9.5q0 -3 -3 -12t-7.5 -18.5t-9.5 -17t-8 -7.5q-19 -14 -40.5 -22t-41 -17t-34.5 -22t-20 -37l-8 -19q-17 -35 -27 -70.5t-18 -68.5v-20q-8 -20 -13.5 -35.5t-5.5 -28.5q-1 -4 -0.5 -10.5
t3 -12.5t6 -10.5t7.5 -4.5q6 -1 16.5 10t24 24.5t30 24.5t35.5 10q13 -1 25 -13t20.5 -26.5t13.5 -27.5t5 -16q-1 -15 -10 -32.5t-19.5 -34.5t-19 -32.5t-9.5 -25.5q0 -12 4.5 -32.5t13.5 -40.5t22.5 -35t31.5 -15q6 -1 10.5 3.5t8.5 11t8 14.5t9 13q11 6 18 18t18 12h9
q4 -1 5.5 -6t1.5 -11t-1 -11.5t-1 -7.5q0 -5 -7 -20t-17.5 -34t-23.5 -39.5t-25.5 -37.5t-22.5 -28t-15 -10q-22 0 -37 13t-26 31t-18.5 38t-13.5 35q-3 10 -9 27.5t-15 34t-21.5 29.5t-29.5 14q-7 0 -12 -7t-8 -16t-4.5 -18t-2.5 -12v-30q-2 -27 13 -37t34 -16
q17 -5 30.5 -15.5t11.5 -37.5q0 -7 -4.5 -12.5t-10.5 -9t-12.5 -5t-9.5 -1.5q-8 2 -24.5 7t-22.5 7h-28q-15 0 -27 5l-12 6q-6 0 -13.5 -5.5t-13.5 -5.5q-8 1 -19 1t-21.5 2t-17.5 6.5t-6 15.5q0 17 11.5 27.5t26 23t26.5 32t13 53.5q2 15 1.5 24t1.5 24q0 8 1.5 14.5
t9.5 13.5l3 105q0 21 1.5 29.5t1.5 15.5q6 14 8.5 23t2.5 24v36q2 8 7 22t7 28l11 67q8 54 28.5 102t43.5 101q4 9 10.5 23t16 27.5t22 24.5t29.5 14q8 0 15 3t13 5q8 5 16 8t15 3zM231 345q-29 2 -47 -16t-20 -45q0 -5 0.5 -12t2.5 -13t7.5 -10t14.5 -4q9 -1 20.5 6.5
t21 19t16 24.5t6.5 22q0 11 -8 19.5t-14 8.5z" />
    <glyph glyph-name="l" unicode="l" horiz-adv-x="300" 
d="M395 876q29 0 36.5 -18t7.5 -41v-19q0 -14 -9 -30t-22 -29.5t-27.5 -23t-24.5 -9.5q-13 0 -22 4t-17 4q-21 0 -43.5 -13t-28.5 -42q-8 -15 -7.5 -26.5t-3.5 -23.5q-9 -21 -18.5 -54.5t-9.5 -62.5q0 -3 -1.5 -10t-3.5 -15q-2 -9 -4 -19v-31l-14 -81q2 -14 -0.5 -32.5
t-7.5 -42.5t-10 -52t-7 -59q0 -6 2.5 -19.5t9.5 -13.5q9 0 19.5 6t20.5 15t20.5 19t19.5 18q19 19 39 34.5t39 15.5l6 -8q0 -11 -6 -25.5t-15 -29.5t-20 -28t-21 -20q-20 -14 -32.5 -34t-33.5 -41q-7 -15 -21.5 -24.5t-28.5 -17.5q-15 -6 -36.5 -15.5t-36.5 -9.5
q-11 0 -15.5 3.5t-5.5 10.5t0.5 18t1.5 27v64q0 14 5.5 28t5.5 27v20q0 -8 2 7.5t5 46t5 72.5t2 88q0 6 5.5 17.5t5.5 18.5v36q6 29 9 57t6 55t8 54.5t16 55.5q8 27 26 52t32 54q7 13 15.5 24t21.5 18q14 23 38.5 36.5t47.5 13.5h75v0z" />
    <glyph glyph-name="m" unicode="m" horiz-adv-x="620" 
d="M200 464q15 0 18.5 -10.5t2 -25t-4.5 -29.5t-2 -24v-28q0 -3 1 -10.5t5 -13t11.5 -6.5t21.5 8q5 4 15 16.5t21.5 28t24 33t23.5 31.5t20 23.5t13 9.5q15 0 26.5 -7.5t20 -18.5t13 -22.5t4.5 -18.5l-6 -25q0 -3 -1 -11t0.5 -14.5t5.5 -8.5t15 6q6 5 21 23t33 37t37 34
t34 15q20 0 29.5 -12.5t9.5 -26.5q0 -3 -2 -11.5t-5 -18t-5 -18.5t-2 -13v-20q0 -15 -9 -42.5t-19.5 -58.5t-19 -60t-8.5 -47q0 -5 -1 -12.5t0 -13t6 -6.5t17 7q5 3 16 11t22 13.5t19 5t7 -15.5q-18 -22 -34 -40q-14 -16 -28 -31.5t-21 -23.5q-15 -11 -24 -21t-16.5 -18.5
t-16.5 -13.5t-24 -5q-11 0 -18 6.5t-12 14.5t-7 16.5t-2 12.5q0 28 7.5 53.5t17.5 48.5t19 45.5t12 44.5q0 4 1 10t3 12l4 14q0 7 -1 19t-4.5 22.5t-9.5 17t-15 2.5q-20 -7 -35 -33.5t-28 -62t-24 -75t-22 -72.5t-22.5 -55t-24.5 -22q-7 0 -16.5 3t-18.5 7.5t-15 9.5t-6 8
q-1 25 6 49t15.5 45t16 38.5t7.5 31.5v8q0 19 14 53q4 13 10 25t4 20q0 12 -11 19.5t-17 2.5q-17 -5 -31 -20.5t-24.5 -33t-18 -33t-10.5 -21.5q-14 -21 -21 -41t-15 -37q0 -2 -5 -23t-15 -45t-25.5 -43.5t-37.5 -19.5q-6 0 -11.5 4.5t-9 11t-5.5 13t-2 10.5q0 6 -4.5 14.5
t1.5 21.5q4 8 14 38t20.5 65.5t18 68.5t6.5 48q0 6 4 12t4 13q0 14 -2.5 22t-16.5 8q-6 0 -11.5 -4t-11.5 -9.5t-13.5 -9.5t-19.5 -4q-7 0 -13 4q-3 2 -4 4q0 14 8.5 26.5t19.5 12.5q13 14 27 27.5t29 19.5q3 3 13.5 13t23.5 20.5t26 19t20 8.5z" />
    <glyph glyph-name="n" unicode="n" horiz-adv-x="445" 
d="M189 464q11 0 17 -7t11 -15q3 -7 2 -19t-3.5 -24t-5 -23t-2.5 -15l3 -16l11 -20q4 0 15.5 11.5t27 28.5t32.5 36.5t33 36.5t29 28.5t19 11.5q8 0 13.5 -10t10.5 -21q5 -13 9 -30q1 -14 -2 -39t-9.5 -54.5t-14 -60t-14 -56t-11 -42.5t-4.5 -18q0 -4 -1 -9.5t-1 -10
t2.5 -7.5t10.5 -3l12 8q5 4 11 8t13 9q17 11 31.5 20.5t18.5 9.5q6 0 13 -6.5t7 -12.5q0 -2 -6.5 -11t-15.5 -19t-18 -18t-13 -8q0 -8 -5.5 -15t-11.5 -7q-16 -17 -27 -33t-22 -29.5t-24 -21.5t-33 -8q-7 0 -14.5 5t-13.5 12.5t-9.5 16t-3.5 14.5l-3 36q6 27 15.5 58
t17.5 58q8 23 13 44t7 40v11q-4 28 -20 28q-24 0 -38 -10.5t-23 -27t-15.5 -35.5t-14.5 -36q-5 -6 -6.5 -11.5t0.5 -13.5q-2 -12 -4.5 -24t-6.5 -23q-11 -32 -21 -63.5t-18 -58.5q5 -8 -1.5 -9.5t-12.5 -1.5t-17 0.5t-21.5 3.5t-19 9t-9.5 17q-2 17 4 35.5t13.5 34.5
t14.5 28t7 16v17v19l-5 17q0 6 4 15.5t8.5 19t8.5 17.5t4 12v14l-3 39q0 6 -1.5 12.5t-9.5 6.5q-6 0 -13.5 -3t-15 -6.5t-14 -6.5t-10.5 -3h-8q-7 4 -3.5 15.5t3.5 17.5q25 35 48.5 61.5t56.5 47.5q7 4 19 10t23 6z" />
    <glyph glyph-name="o" unicode="o" 
d="M220 475q14 0 34.5 -1t34.5 -7q15 0 19.5 -12t11.5 -27q4 -4 9.5 -11t10 -14.5t7.5 -15.5t3 -14l-8 -89q0 -28 -12 -62t-35 -61q-8 -8 -11.5 -17.5t-7 -19.5t-8 -20.5t-12.5 -20.5q-6 -7 -13.5 -17t-16 -20.5t-18 -19t-19.5 -12.5q-15 -8 -25 -14t-18 -10t-16.5 -5.5
t-18.5 -1.5q-15 0 -28 7t-22.5 18.5t-15.5 26t-6 29.5v67q0 6 -4 11t-4 28q-1 29 14 70t35.5 80.5t41 70t31.5 37.5t18.5 15.5t14.5 15.5t14.5 11.5t19.5 4.5zM225 361q-16 0 -32.5 -13.5t-30.5 -31t-25 -35t-15 -25.5l-10 -38q-4 -14 -6.5 -27t-2.5 -16v-19q4 -3 7 -12
t7.5 -18t10.5 -16t17 -7q20 9 37 18q14 8 27.5 17t18.5 18q6 14 13.5 33t14.5 36q-2 8 4.5 16t6.5 15v28q0 5 -2.5 17.5t-8 26t-13.5 23.5t-18 10z" />
    <glyph glyph-name="p" unicode="p" horiz-adv-x="345" 
d="M208 570q3 0 10.5 -3.5t15 -9t13.5 -12.5t6 -14q-9 -22 -17 -41q-7 -17 -14 -33.5t-11 -25.5q-3 -4 -11 -16.5t-17 -27t-15.5 -28.5t-6.5 -20l9 -14q10 0 30.5 20t43.5 44t45 44t36 20q15 0 23 -15.5t12.5 -34.5t5.5 -36t1 -20q0 -6 -4.5 -23.5t-6.5 -31.5q-4 -3 -4 -6.5
t1 -5.5q1 -3 3 -5q-1 -11 -8.5 -31.5t-16.5 -40.5t-17 -36.5t-11 -19.5q-11 -17 -23.5 -30t-26.5 -25q-14 -13 -34 -25.5t-33 -33.5q-15 -14 -31.5 -24t-30.5 -21.5t-22 -26t-5 -36.5v-20q-1 -14 -3 -23.5t-4.5 -20t-4.5 -23.5t-2 -35q-1 -18 -2.5 -28t-4 -16t-4.5 -10
t-3 -10v-21.5t-2 -34.5v-22q0 -21 10.5 -24.5t25.5 -3.5h19q15 0 25.5 -13.5t10.5 -28.5q0 -6 -7.5 -12t-19.5 -13q-15 0 -30.5 -9t-36.5 -7h-39q-21 -5 -43 -6.5t-43 -7.5q-11 1 -16.5 0t-10 -3l-9 -4t-11.5 -2q-6 1 -11.5 6t-9 11.5t-5.5 12.5t-2 9q1 12 7.5 17.5t15.5 8
t18.5 2.5h16.5q4 3 9.5 4.5t10 4t8 6t3.5 10.5q3 7 6.5 19t6.5 23t5.5 20.5t3.5 12.5v9q0 4 3 20.5t8 34.5q4 21 11 47q2 6 5 11q2 5 4 9.5t2 7.5q0 7 1.5 23.5t1.5 54.5l11 28l11 64l3 28q0 3 3 9.5t7 14.5t7 17t3 17q1 14 1.5 26t1.5 23t2 23q3 14 7 27l6 22t7 18l2 56
q0 19 -19 19q-8 0 -15.5 -7t-17.5 -15q-22 -22 -34 -22q-5 1 -6 2.5t-2 3.5t0 5q0 20 13 36.5t26 35.5q15 28 36 54t43 52.5t41.5 54t32.5 59.5q5 2 9 4q10 4 18 4zM245 306q-8 0 -19.5 -7t-23 -16.5t-19.5 -18t-8 -11.5q-14 -29 -22.5 -52.5t-19.5 -50.5v-28q0 -8 3.5 -18
t24.5 -12q6 0 17.5 8t22.5 19q13 12 27 28q8 5 15 12.5t16 15.5q6 13 7 17.5t1 18.5q0 3 -1 7.5t-2 9.5q-2 5 -3 11v20v10.5t-1 15t-4.5 14t-10.5 7.5z" />
    <glyph glyph-name="q" unicode="q" 
d="M306 470h11q3 0 10 -5.5t15 -12.5q9 -8 19 -18v-11l-8 -56v-8q0 -11 -4 -25t-10 -28q-4 -13 -9 -27.5t-5 -25.5v-8l-8 -67l-8 -50l-3 -28l-9 -17v-30q-2 -7 -7.5 -18.5t-5.5 -17.5v-20q0 -3 -3.5 -18.5t-8 -34t-8.5 -36.5t-5 -25l-3 -28q0 -12 -4.5 -33t-6.5 -50l-6 -47
l-5 -31q0 -16 1 -23.5t1.5 -12t1.5 -9t1 -13.5q0 -12 5.5 -16t13.5 -5.5t17.5 -3.5t18.5 -8t15 -19.5t8 -39.5q0 -8 -5.5 -9.5t-14.5 -1.5q-6 0 -19 8.5t-28 8.5q-9 -1 -20.5 -1.5t-22 -1t-19.5 -0.5h-13q-6 -1 -14 -8t-18 -14.5t-22 -14.5t-26 -8h-20q-6 0 -19.5 -6
t-27.5 -8h-17q-17 0 -33.5 11t-16.5 26q-1 13 5 24t15.5 18.5t21 11.5t22.5 4h19q10 1 25 6t29 13.5t24 19.5t11 25v28q0 4 2 13.5t5 19.5q3 11 7 25q1 24 0 30t-2 6t-1 -1t3 10q2 14 8 23t6 24q0 21 8 41.5t14 41.5q0 3 2 11t5 16.5t5 16.5t2 12v11q0 6 3.5 20t8 29t8 27.5
t3.5 15.5l2 30q0 3 1.5 9l3 12t0.5 10.5t-5 4.5q-3 0 -14 -11.5t-26 -29.5t-33 -38t-34 -38t-28.5 -29.5t-17.5 -11.5q-17 0 -27.5 15t-16.5 34.5t-8.5 39.5t-2.5 31v27q8 15 10.5 34t8.5 33q15 34 38 75t40 83q2 10 9.5 22t17.5 23t20 19.5t17 11.5q6 0 14 5.5t14 5.5
q6 6 19 7t17 1q12 4 18.5 9t11 9t9 7t11.5 3h17zM225 345l-30 -17q-12 0 -23.5 -10.5t-22.5 -26.5t-19.5 -36t-15.5 -38.5t-10.5 -33.5t-3.5 -22v-39q2 -8 6 -14q2 -5 5.5 -9t5.5 -4q4 0 20.5 17.5t36.5 41.5t38.5 48.5t26.5 39.5q0 3 2.5 15t6 26.5t6 26.5t2.5 15
q0 7 -2.5 13.5t-17.5 6.5h-11z" />
    <glyph glyph-name="r" unicode="r" horiz-adv-x="359" 
d="M189 481q11 2 14.5 -3t16.5 -11q11 -6 19 -14t8 -19q-1 -5 -2 -11q-2 -13 2 -25q0 -9 -3.5 -21.5t-1.5 -20.5q2 -4 6 -8q3 -3 6.5 -5.5t6.5 -0.5q10 2 21.5 19t22.5 38t22 41t20 27l31 8q6 2 13.5 1t11.5 -1q19 -11 24 -30.5t7 -30.5q1 -14 -9.5 -37t-26.5 -38
q-7 -4 -13 -6.5t-12 -4.5q-5 0 -7.5 0.5t-6.5 2.5q-5 2 -9.5 2.5t-10.5 0.5q-13 0 -24.5 -10t-22.5 -21q-17 -21 -26.5 -47.5t-9.5 -49.5q-7 -7 -16.5 -17.5t-14.5 -24.5q-6 -14 -5.5 -29t-5.5 -29q1 -12 0 -27.5t-3.5 -32.5t-6.5 -32.5t-9 -27.5q-7 -5 -17 -9t-21 -6
q-12 -3 -26 -4q-5 0 -13 8q-4 4 -7 8l-14 28q-1 7 2 24t7 34.5t7.5 31.5t3.5 16q22 33 29 69.5t15 72.5l-8 66q-5 13 -12.5 13t-15.5 -2q-16 -3 -23 -8.5t-12 -11.5t-11 -11.5t-21 -7.5q-8 0 -10 10t-4 18q-2 9 3 17.5t13.5 16t19.5 15t20 15.5q12 13 21 28.5t18 29t20.5 23
t29.5 11.5z" />
    <glyph glyph-name="s" unicode="s" horiz-adv-x="272" 
d="M289 484q15 0 27 -14t12 -28q0 -11 -16 -18.5t-36 -14t-39.5 -12.5t-25.5 -13q-9 -9 -13 -20.5t-4 -23.5t4 -23t10 -20q7 -14 16.5 -29.5t17.5 -35.5t13.5 -45t5.5 -56q0 -27 -18 -54.5t-46 -48.5q-22 -12 -34 -19.5t-21 -12t-17.5 -6t-21.5 -1.5h-36q-5 0 -13 -1t-16 -3
q-10 -2 -21 -4h-6h-22q-28 0 -28 27q0 7 9 22t22.5 29t28.5 25t26 11q3 0 10 -4.5t16.5 -9.5t21.5 -9.5t27 -4.5q10 0 18.5 6t14.5 14.5t9 18t3 16.5q0 17 -13 41.5t-29 50t-29 48.5t-13 38v11q4 17 12 35t18 33t22 26.5t26 14.5q7 4 14.5 13t13.5 17q8 8 14.5 15.5
t13.5 9.5q8 7 25 8t25 1h22v0z" />
    <glyph glyph-name="t" unicode="t" horiz-adv-x="250" 
d="M261 625q9 0 17.5 -0.5t16 -3t12 -8t4.5 -15.5q0 -6 -14 -22.5t-30.5 -36t-30.5 -38t-14 -28.5q0 -8 4.5 -12t10.5 -5.5t12.5 -2t9.5 -0.5h33q2 2 6 5q8 6 13 6q15 0 21.5 -12t6.5 -27v-8v-19q0 -11 -12 -17t-26.5 -9t-28 -4t-16.5 -1q-15 0 -17 1.5t-8 1.5h-20
q-6 0 -17 -6t-11 -14q0 -11 -1 -19.5t-2 -14.5q-1 -7 -2 -13q-3 -6 -6 -11q-5 -10 -5 -17v-11q0 -17 -5 -37t-9 -24q-5 -5 -8 -9.5t-3 -23.5v-20q0 -6 2 -14.5t7 -15.5t12 -12t18 -5q13 0 22 7q4 3 8 7q8 0 12.5 -4.5t8.5 -9.5q4 -6 7 -14q0 -8 -6.5 -21t-15.5 -25.5
t-19 -22t-17 -9.5t-13.5 -11.5t-6.5 -16.5q-3 0 -11 -2l-16 -4q-10 -3 -20 -5q-13 0 -20.5 1.5t-7.5 9.5q-3 2 -9 14.5t-12 27.5t-10.5 29.5t-4.5 20.5v47q0 4 2.5 18.5t6 32t6 35t2.5 28.5v17q8 23 15 41q5 16 10 29.5t5 15.5v31q0 13 -8 16q-6 5 -13 10t-7 13
q0 6 4.5 12.5t11 13.5t13 14.5t10.5 14.5q7 15 13.5 18.5t14.5 9.5q13 15 28 25t28 31q8 14 12 28t18 22q13 4 23 15.5t16 11.5z" />
    <glyph glyph-name="u" unicode="u" horiz-adv-x="456" 
d="M222 470q9 0 13 -10t4 -18q-18 -63 -32 -115q-6 -22 -12 -43.5t-10.5 -39.5t-7 -30.5t-2.5 -16.5q0 -7 -2.5 -23t0 -29.5t13 -18t36.5 12.5q2 5 13 13t24 20q8 8 10 16.5t6 8.5q0 8 7 15t7 13q2 7 11 26t20 46q9 19 17 41t14 43t9.5 38.5t3.5 28.5t5 17t12.5 9t15.5 3.5
t14 0.5h23q12 0 19.5 -12t7.5 -27q0 -3 -2.5 -18.5t-6 -35.5t-8.5 -41t-10 -35q-21 -45 -41 -89.5t-20 -86.5q0 -5 4 -11q2 -3 4 -5q13 0 26.5 8t24 17t18.5 17t11 8t6.5 -3t6.5 -6q4 -4 7 -8q0 -4 -9.5 -19.5t-22 -33t-24 -32.5t-14.5 -18q-10 -7 -17.5 -12.5t-13.5 -11
t-12.5 -13t-14.5 -18.5q-13 -13 -27 -18t-29 -5q-7 0 -13.5 4.5t-11.5 11t-8 14t-3 12.5v17v11l8 24q3 10 6 21t3 19q0 6 -1.5 12.5t-9.5 6.5q-6 0 -14 -7.5t-16 -17t-15 -18.5t-11 -12q-6 -8 -22 -24.5t-34 -33t-34.5 -29.5t-23.5 -13q-6 0 -12 5.5t-10.5 13t-7.5 15
t-3 10.5v28q0 8 1 16q1 7 1.5 14t0.5 12q0 6 2.5 16.5t2.5 24.5q0 13 3.5 27t5.5 21l8 38q2 7 10.5 24t8.5 46q0 14 1 19.5t-12 5.5q-6 0 -12.5 -2t-17.5 -6q-8 -5 -16 -8t-12 -3q-6 0 -13 7.5t-7 19.5t6 18.5t14.5 11t16.5 9t11 11.5q13 10 31 28.5t37 36.5t36.5 31
t31.5 13h19z" />
    <glyph glyph-name="v" unicode="v" horiz-adv-x="398" 
d="M200 361q4 -17 8.5 -28.5t8 -22t6 -22t2.5 -27.5l6 -44q0 -15 1.5 -22.5t3.5 -13.5q2 -5 4.5 -15t6.5 -10q5 0 10 10t10 12q6 6 17 14t11 19q0 13 11 25.5t11 19.5q0 14 -1.5 24.5t-1.5 30.5q0 6 -4.5 14t-10.5 15.5t-10.5 15.5t-4.5 14q0 13 2.5 18.5t6.5 9t9 8.5t9 19
q5 21 18 32.5t32 26.5q15 -7 18.5 -13.5t9.5 -14.5q15 -19 20 -32t5 -32v-39q0 -5 1.5 -8t1.5 -17q0 -19 -5 -35t-17 -37q0 -6 -1.5 -8t-3 -3t-3 -3t-1.5 -8q-6 -7 -10 -13q-4 -5 -6.5 -11t-2.5 -10q0 -3 -4.5 -8t-9.5 -11.5t-9.5 -13.5t-4.5 -14q-11 -14 -19.5 -23
t-16.5 -17.5t-17 -18t-19 -22.5q-14 -17 -23.5 -34.5t-19.5 -32t-23 -24t-34 -9.5q-7 0 -12 2t-5 15l8 47q-6 13 -7 21.5t-1 14.5q0 21 1.5 37t1.5 30q0 13 -2 23t-5 19t-5 17t-2 19q0 3 -5 18.5t-10.5 34t-10.5 35t-5 20.5q0 13 -15 20.5t-29 7.5q-8 0 -11.5 -2t-7 -5
t-9 -5t-17.5 -2q-6 0 -11 5q-3 3 -5 6q0 13 9.5 26t18.5 13q14 13 27.5 25.5t30.5 19.5q3 4 10.5 12t17 15.5t19 13.5t17.5 6q13 0 19 -9t7.5 -21t1.5 -24t2 -18z" />
    <glyph glyph-name="w" unicode="w" horiz-adv-x="600" 
d="M181 361q1 -10 2 -15.5t2 -10.5t2 -12t2 -20q0 -19 1.5 -31t9.5 -25q2 -8 1 -16.5t-2 -15.5t0.5 -11t8.5 -4q15 0 20 6.5t11 13.5q11 14 25.5 33t19.5 33q3 15 3 23.5t-1 15t-1.5 13t1.5 15.5v3q0 7 -0.5 10t-2 4t-4.5 1.5t-9 3.5h-14q-8 0 -13 7q-3 3 -4 7q-2 7 3 14
t13 11.5t17.5 7.5t16.5 3q7 9 12.5 12t10 4.5t9 2.5t10.5 4q6 8 20 15t27 7q19 -5 18.5 -18.5t-7.5 -34.5v-11q0 -6 1 -13t8 -7q7 1 22.5 14t33.5 28t35 27t28 12q15 0 29.5 -5t27.5 -12.5t23 -18t15 -20.5q10 -14 12.5 -33.5t-1.5 -38.5l-34 -100q-4 -17 -18.5 -32
t-25.5 -32q-13 -19 -29 -39.5t-35 -40.5q-9 -11 -15 -16t-11.5 -9.5t-12.5 -11t-17 -19.5q-5 -8 -15.5 -18t-22.5 -19t-25 -15t-23 -6q-21 0 -35 6.5t-12 20.5q4 15 4.5 22.5t0.5 13.5l6 17q-2 21 -6 37.5t0 37.5q5 23 1.5 38t-9.5 15q-17 0 -33 -21.5t-31 -42.5
q-8 -13 -8 -21t-9 -21q-8 -17 -16.5 -27t-10.5 -23q-5 -7 -9.5 -15.5t-9.5 -15.5t-12 -11.5t-17 -4.5q-7 0 -15.5 2t-15 6t-10.5 9.5t-3 13.5q6 22 9.5 38t1.5 45q0 19 -3.5 36.5t0.5 38.5l3 33l-1.5 19.5t-1 12l-1 11l-1.5 16.5q-2 6 -2.5 10.5t-1.5 6.5q-1 3 -2 5v25v3
q0 13 -9.5 19t-23.5 6q-6 0 -9.5 -2.5t-7.5 -6t-10 -6t-18 -2.5q-7 0 -12 5q-3 3 -5 6q0 13 10 25t18 12q15 14 24 23t23 15q3 4 13.5 15t23 21.5t25 19t19.5 8.5q15 0 21.5 -10.5t8.5 -25t1.5 -29t-0.5 -21.5v-28zM389 311q-3 -14 -2 -24t3.5 -20t5 -22t2.5 -28
q-2 -8 -2 -21.5t2 -26.5t7 -23t12 -10q12 0 26.5 10t27.5 24t22.5 29t12.5 26q4 21 6 35.5t0.5 27t-7.5 25t-16 29.5q-4 8 -18.5 13.5t-28.5 5.5q-6 0 -15 -5t-17 -12.5t-14 -16.5t-7 -16z" />
    <glyph glyph-name="x" unicode="x" horiz-adv-x="512" 
d="M83 375q0 19 7 35.5t18.5 29t27.5 20t34 7.5q26 0 55 -17q15 0 29.5 -8.5t20.5 -16.5q15 -12 21.5 -19t6.5 -20q6 -14 14 -26.5t22 -12.5q6 0 8.5 11t11.5 17q12 21 24.5 42.5t41.5 35.5q13 13 18.5 17.5t17.5 4.5q23 0 33 -3.5t23 -10.5q17 -20 28 -37t11 -38
q0 -14 -10 -22t-18 -17q-4 -10 -5.5 -17t-3.5 -11t-6.5 -6t-14.5 -2q-12 0 -20 7t-15 15.5t-14.5 15.5t-17.5 7q-12 0 -23.5 -7.5t-20.5 -17t-14.5 -20t-5.5 -16.5q0 -15 8.5 -26.5t8.5 -23.5v-28q0 -8 1 -12t1 -10q0 -7 1.5 -12t1.5 -13q0 -11 3.5 -17t8.5 -10.5t10.5 -9
t8.5 -11.5q6 -14 13.5 -23t27.5 -16q7 -3 16 -4t17 -3t13 -7t5 -16q0 -27 -13.5 -45.5t-42.5 -18.5q-6 0 -8.5 -3t-11.5 -3q-6 0 -13.5 3t-13.5 3q-15 0 -24.5 5t-17.5 13t-15.5 18.5t-17.5 21.5q-7 5 -13.5 8t-6.5 20q-4 6 -7.5 10t-6 7.5t-4 7.5t-1.5 11q0 15 -3.5 25.5
t-7.5 10.5q-1 0 -6 -4t-10.5 -10t-10 -12t-4.5 -10q-6 -14 -7 -17.5t-1 -10.5t-3.5 -11t-8 -7.5t-9 -7.5t-7.5 -10q-21 -29 -45.5 -43.5t-68.5 -14.5q-3 -2 -6 -3q-6 -3 -14 -3q-2 1 -5 3q-2 1 -6 2t-8 1q-21 0 -34 17.5t-13 40.5q0 10 1.5 16t4.5 10.5t8 8.5t11 10
q14 14 19 26.5t20 12.5q10 0 17.5 -7.5t15.5 -16.5t17.5 -16.5t24.5 -7.5q7 0 13 4.5t11.5 11t9.5 13t7 10.5q21 13 38.5 36.5t17.5 52.5v23v19q0 14 1.5 25t-12.5 19q-8 10 -13.5 17.5t-11 13t-12.5 10t-16 9.5q-14 9 -23.5 10.5t-26.5 1.5q-2 3 -5 1.5t-7 -4.5l-8 -6
t-8 -3q-12 0 -20 8t-8 20z" />
    <glyph glyph-name="y" unicode="y" horiz-adv-x="450" 
d="M459 453q20 0 29.5 -12t9.5 -27l-12 -67v-16q0 -11 -2 -22.5t-8 -21.5t-16.5 -16.5t-28.5 -6.5q-8 0 -10 -6q-1 -3 -1 -5q-14 -14 -20.5 -27.5t-11 -27t-9 -26.5t-12.5 -25q-6 -6 -11.5 -13.5t-5.5 -22.5q-6 -10 -10 -19q-5 -8 -9 -15t-6 -10q-4 -12 -8 -18.5t-8.5 -13.5
t-9.5 -15t-10 -23q-4 -11 -7.5 -17t-6 -11t-4.5 -10t-4 -12l-8 -22q-5 -8 -7 -12.5t-13 -15.5q-11 -14 -19.5 -26t-8.5 -18q-16 -40 -58 -87q-19 -25 -34.5 -47t-29.5 -30q-70 -42 -111 -87q-7 -2 -20.5 -9t-27.5 -15q-17 -9 -36 -20h-11q-6 0 -18 -5.5t-18 -5.5h-30
q-5 0 -17.5 5.5t-19.5 5.5q-3 0 -9.5 -2t-13.5 -4q-8 -3 -16 -5q-12 0 -21.5 7.5t-22.5 20.5q-8 0 -20.5 7t-18.5 15q0 2 -1.5 9t-3 16t-2.5 17.5t-1 12.5q0 14 9 27t22 23.5t27 16.5t25 6t24.5 -6t28.5 -14q19 -8 34.5 -16.5t26.5 -8.5l33 -5q10 7 22.5 9l25 4t24.5 5.5
t23 14.5q21 6 42 20.5t41 35.5q7 6 17 19.5t17 27.5q14 14 27.5 33t19.5 34q10 10 20.5 25t18 31.5t12.5 33.5t5 32v17v22q2 10 4 19q2 8 3 15.5t1 12.5q0 7 -4 10.5t-4 17.5v8q-3 3 -5 7q-4 8 -4 13v8q0 18 -7 38.5t-18 40t-26.5 36t-31.5 27.5q-8 8 -10.5 4t-9.5 -4h-8
h-22l-17 -8q-8 0 -19 6.5t-11 20.5q0 3 12 18t27.5 32.5t29.5 33t17 19.5q8 8 20.5 14t26.5 6q21 0 31 -13.5t25 -34.5q14 -29 23 -51t16 -43q3 -17 7 -28.5t7.5 -21.5t5 -20t-0.5 -25q-2 -7 0.5 -16t7 -17t10.5 -13.5t10 -5.5q6 0 12.5 13t12.5 29.5t11 33t8 24.5
q8 11 14 20.5t12 18t13.5 17t19.5 19.5q8 11 11.5 24t7.5 26q2 12 6 24t11 20q8 15 16 27t23 12z" />
    <glyph glyph-name="z" unicode="z" horiz-adv-x="553" 
d="M270 478q4 0 15 -8.5t24 -19.5q10 -8 18 -13.5t12 -5.5q5 -5 10.5 -5.5t11.5 -0.5q5 0 9 -1t8 -7q5 0 11 -2t14 -4q6 -4 13.5 -7.5t11.5 -3.5q13 0 24.5 3.5t22.5 7.5q11 2 21 4t21 2q23 0 27 -12t4 -35v-20q0 -21 -15 -31t-35 -16q-23 -8 -46 -10.5t-43 -8.5
q-8 -5 -14 -12t-13 -14.5t-15 -14t-20 -9.5q-11 -8 -20.5 -17t-19 -19t-20.5 -19.5t-26 -17.5q0 -3 -3.5 -5.5t-7.5 -4.5t-7.5 -5t-3.5 -7q0 -3 16 -14.5t36.5 -23.5t40 -22t27.5 -10q3 -3 9 -3.5t12 0.5q7 1 15 3q22 0 35 10t23.5 22t22 22t30.5 10q14 0 22.5 -3.5
t8.5 -26.5q-4 -24 -8 -44q-4 -17 -10 -33t-13 -20q-23 -17 -45.5 -25.5t-51.5 -16.5h-31l-25 3l-8 -2t-8.5 -1h-8.5q-31 24 -61 44q-26 17 -55 33t-51 23h-22q-14 0 -23 -5t-16.5 -10.5t-14 -10.5t-13.5 -5q-23 0 -35 12.5t-12 29.5q0 15 3.5 30.5t24.5 36.5q7 4 17.5 6.5
t21.5 3.5t22 1h19q21 17 41 23.5t34 12.5q23 23 46 41.5t46 41.5q7 15 17.5 24t10.5 15q0 9 -5 14.5t-11.5 8.5t-13 4t-9.5 1h-8q-6 2 -11 5q-5 2 -10.5 4t-9.5 2q-5 0 -14.5 1.5t-20.5 3.5q-12 3 -26 6q-23 0 -38.5 -14t-30 -30.5t-31.5 -30.5t-42 -14q-8 0 -9.5 7t-1.5 13
v11q0 26 20.5 56.5t51.5 57t66.5 44t64.5 17.5h31z" />
    <glyph glyph-name="braceleft" unicode="{" horiz-adv-x="350" 
d="M292 745q-1 -6 -5 -10.5t-8.5 -9t-9.5 -10t-8 -12.5q-6 -19 -8 -30.5t-8 -30.5v-39q4 -14 3.5 -18.5t-6.5 -17.5q0 -4 -4 -10t-4 -12q-1 -8 -1 -9t0.5 -2.5t1 -6.5t-0.5 -21v-100q0 -15 -10 -31.5t-10 -27.5q0 -12 8.5 -31.5t8.5 -40.5q-1 -51 -1.5 -75.5t-0.5 -31.5
t-0.5 -2.5t-0.5 11.5t0.5 11t1.5 -4t2.5 -33.5t3.5 -78.5v-61q0 -5 0.5 -14l1 -18t1 -17t0.5 -12q0 -17 16.5 -35.5t34.5 -34t29.5 -27t2.5 -14.5q-14 -21 -34.5 -21t-37.5 12q-25 7 -43.5 11t-33.5 9t-28 13.5t-28 25.5q-8 14 -15.5 22t-1.5 22q4 12 6.5 17.5t6.5 8
t9.5 2.5h16.5q10 4 13.5 10t3.5 15t-1.5 21t-1.5 29q0 23 -2 42.5t-4 54.5q1 10 1 13.5v5.5t0.5 5.5t1.5 14.5q0 15 -0.5 19.5t-1 8.5t-1 11.5t-0.5 27.5q0 15 -6 32.5t-19 17.5q-8 0 -12.5 -2.5t-12.5 -2.5q-5 0 -13.5 0.5t-16.5 2.5t-14 6t-6 10q0 12 8 21.5t18.5 18.5
t21.5 18t16 20q15 22 22.5 32t11.5 18t4.5 20t0.5 38q0 12 0.5 15t1 4.5t1 4t0.5 12.5q4 17 5 36t3 42q0 13 -4.5 30.5t-17.5 19.5q-5 3 -8 4.5l-5 2.5t-5.5 1.5t-9.5 2.5q-11 7 -17 17.5t1 21.5q5 19 13.5 26t18.5 11t21 8.5t22 18.5q16 9 33.5 20t35.5 20.5t36 14.5t36 1
q9 -4 9.5 -13.5t-4 -20.5t-12 -23t-12.5 -21z" />
    <glyph glyph-name="bar" unicode="|" horiz-adv-x="292" 
d="M89 -147q-3 0 -7.5 2.5t-8.5 7t-6 11.5t0 15q1 5 5.5 11t10 12t10 12.5t4.5 14.5v55v39v189q0 4 -0.5 12.5t-0.5 17t-0.5 16t-0.5 10.5l2 47v203v28v139q0 6 -1.5 15.5t-6.5 17.5q-8 7 -20.5 17t-12.5 22q0 13 6.5 19t15 7t18 0t15.5 -1q17 0 29 1t27 -3q14 0 30.5 4
t24.5 4q9 0 11.5 -8t2.5 -14q0 -12 -5.5 -19.5t-12.5 -14.5t-12.5 -13t-5.5 -15v-38v-128v-203v-150l3 -170l-2 -22q-1 -9 -1 -17v-11q4 -31 9 -42t10.5 -16.5t12.5 -13t15 -31.5q0 -6 -1 -10q-2 -9 -10 -9h-19h-14q-5 0 -9 1t-9 3l-10 4q-8 0 -16.5 -1t-16.5 -3
q-9 -2 -17 -4h-8h-28z" />
    <glyph glyph-name="braceright" unicode="}" horiz-adv-x="350" 
d="M56 748q-5 10 -12.5 22t-12 23.5t-4.5 20.5t9 14q18 4 36 -0.5t36 -13.5t35.5 -20.5t34.5 -20.5q10 -15 21.5 -19.5t21.5 -8t18.5 -9.5t13.5 -24q6 -15 0 -26t-14 -19q-7 -2 -10.5 -2.5t-6 -1.5t-5.5 -1.5t-9 -2.5q-12 -5 -17 -21t-5 -26q2 -26 3.5 -45t7.5 -33v-89
q0 -26 0.5 -31.5t4 -5.5t11 -2.5t21.5 -24.5q7 -8 18.5 -12.5l23 -9t19.5 -11t8 -17.5q0 -6 -4 -15t-10.5 -16.5t-14 -13t-13.5 -5.5t-17.5 4t-18.5 4q-13 0 -19 -17.5t-6 -32.5q0 -20 -0.5 -27.5t-1 -11.5t-1 -8.5t-0.5 -19.5q1 -11 1.5 -14.5t1.5 -6t1.5 -6t1.5 -14.5
q-2 -36 -4 -55.5t-2 -42.5q0 -33 5 -45.5t9 -20.5q12 -8 18 -10t9 -4t5.5 -6t6.5 -14q3 -8 2.5 -14t-3 -10.5t-7 -9t-8.5 -10.5q-30 -16 -45.5 -24.5t-27 -14.5t-24 -10.5t-37.5 -11.5q-17 -13 -37.5 -11.5t-34.5 22.5q-9 2 2.5 13t29.5 26.5t34.5 33.5t16.5 35
q0 4 0.5 12.5t1 18t1 18t0.5 12.5v61q1 31 -0.5 53.5t-2 40.5t1 33.5t7.5 34.5q0 9 5 23t11.5 28.5t11.5 27.5t5 21q0 5 -5 11t-12 14t-14 20t-11 30l3 55q-2 29 0 52t0 37q0 7 -4 12t-4 13q-7 11 -7.5 14.5t4.5 16.5v42q-5 19 -7 30.5t-7 30.5q-8 14 -19.5 21t-13.5 18z
" />
    <glyph glyph-name="asciitilde" unicode="~" horiz-adv-x="681" 
d="M75 175q0 16 4 27t4 32q0 23 11.5 40.5t30.5 28.5q6 0 11 1t11 7q13 7 21 16t21 9q19 0 33 -1t31 -7q6 0 12.5 -1t12.5 -7q13 0 25 -5.5t25 -11.5q17 -11 39.5 -26.5t41.5 -23.5q19 -5 37 -5.5t35 -0.5q6 0 16.5 0.5t16.5 5.5q6 4 10 10.5t6 13.5l4 14t5 12
q7 6 10.5 17.5t3.5 24.5q0 6 -2.5 8.5t-2.5 13.5q0 21 14 32.5t33 11.5q13 0 24 -5t18 -11q12 -8 19 -14t11 -14q7 -5 8 -15.5t1 -23.5q0 -29 -10 -54.5t-29 -39.5q-7 -9 -13 -19.5t-12 -17.5q-26 -17 -63.5 -32t-73.5 -15q-28 0 -52 7.5t-46.5 18t-44.5 21.5t-46 17
q-12 0 -24 4t-23 4q-32 0 -57.5 -8t-48.5 -31q-6 -3 -9.5 -7.5t-6.5 -8t-7 -6.5t-10 -3h-25v17z" />
    <glyph glyph-name="exclamdown" unicode="&#xa1;" horiz-adv-x="250" 
d="M17 -345q-3 0 -10.5 4t-15 10t-13.5 13.5t-6 14.5q5 12 9 24q4 11 8.5 22.5t7.5 22.5q4 3 7.5 12t6.5 19t4.5 20t1.5 16q6 11 12 24q5 11 10 26.5t8 33.5q0 19 7.5 48t12.5 52q2 14 8 29.5t8 28.5q2 19 3.5 27.5t2.5 13t2.5 8.5t3.5 15q1 9 2.5 16.5t3 15.5t3.5 17t4 23
q2 2 2.5 6t0.5 8q2 8 -4 12.5t-4 12.5q0 5 8.5 14t10.5 11q5 6 14 10.5t19 7t20.5 1.5t19.5 -5q-2 -4 -2 -10.5t0.5 -12.5t0.5 -11.5t-2 -7.5l-17 -136l-8 -103l-6 -89q0 -6 -1 -11.5t1 -10.5h14q8 8 16 6.5t15 -3.5q5 -3 5 -7v-4q0 -11 -3 -17t-7.5 -11t-11.5 -11.5
t-14 -16.5q-18 -24 -35 -41.5t-33.5 -35.5t-31.5 -39.5t-28 -52.5q-6 -3 -11 -5t-10 -3t-9 -1zM125 512q6 7 10 11.5t8 8.5t9.5 7.5t14.5 8.5q4 2 7 5.5t6 7.5t6.5 6.5t8.5 2.5q8 0 13 -4t8.5 -11l7.5 -15t10 -15q12 -14 25 -29.5t13 -28.5q-2 -11 -13.5 -23.5t-19.5 -26.5
q-8 -11 -15.5 -19.5t-20.5 -8.5q-11 0 -15.5 8t-12.5 14q-11 7 -15 11t-10 12q-8 14 -12 16.5t-18 10.5q-7 5 -12 12.5t-5 15.5q0 11 8 13.5t14 9.5z" />
    <glyph glyph-name="cent" unicode="&#xa2;" horiz-adv-x="353" 
d="M203 183q2 -4 2 -12t-2 -13q27 13 52 26t42 13q15 -2 17 -8t0 -14q-1 -12 -11 -25t-24 -24t-29 -21t-25 -16q-14 -8 -27.5 -16t-27.5 -15q-2 -4 -3 -5t-3 -6q-6 -27 -16.5 -51.5t-16.5 -56.5q-15 -11 -29 -13.5t-19 -0.5l3 8q2 21 2.5 37t8.5 24q2 11 6.5 22.5t4.5 19.5
l3 6h-19q-13 2 -21.5 15.5t-14 30.5t-7.5 34t-2 25v6q1 3 0.5 12t-2 20t-2.5 22t-1 18q4 27 9 43.5t7 37.5l9 25l2 16q0 4 4 17.5t10 29t11.5 30.5t8.5 24q0 6 7 14.5t16 16.5t19 13.5t16 5.5q7 2 8.5 3t1.5 2.5t1 3.5t9 5q19 2 37 5.5t35 5.5q0 4 0.5 9.5t2.5 9.5
q11 32 16.5 57t5.5 46q4 1 12 5.5t16.5 10t16.5 10t11 5.5q4 0 7.5 -5t5.5 -9q5 -17 2.5 -25t-2.5 -23q-6 -14 -10 -24t-6 -23q-1 -4 -2.5 -10.5t-3 -12.5t-3.5 -10t-5 -3q0 -5 -2 -7t-4 -7q21 -4 36.5 -19t13.5 -42q0 -11 -4.5 -21.5t-11.5 -19t-15.5 -13.5t-15.5 -4
q-12 0 -21 9q-4 4 -9 10h-3q-6 -16 -11.5 -34t-10.5 -34.5t-10 -30.5t-10 -21q2 -5 -2 -21.5t-10.5 -35.5t-13.5 -36t-10 -21zM178 261q6 9 11 29t9.5 43t11 44t15.5 32q-17 -5 -31 -10t-19 -10q-6 0 -7.5 -4t-3.5 -12l-14 -20q-3 -11 -6 -21q-5 -18 -5 -26l-3 -17l-5 -28
q-1 -4 -3 -8t-3.5 -7.5t-2.5 -6.5q0 -8 1 -22t4 -28t7.5 -25t10.5 -14q4 12 9.5 30t11 35t9 30t3.5 16z" />
    <glyph glyph-name="sterling" unicode="&#xa3;" horiz-adv-x="559" 
d="M367 367q10 -2 17 -2.5t12.5 -0.5t11.5 -0.5t15 -2.5q8 -8 16 -17t3 -13q-1 -3 -7.5 -10t-14 -15t-14 -16.5t-8.5 -14.5q-23 2 -46 4.5t-55 4.5h-58v-12v-30q0 -2 3 -8t5 -6v-28q0 -2 -1 -7t-1 -7v-16q0 -2 -3 -8.5t-3 -8.5q0 -8 1 -18t4.5 -20t11 -16.5t19.5 -6.5
q1 0 6.5 0.5t11.5 1.5q7 1 16 3l38 3q18 2 37 12t35 21.5t27 21.5t13 12q11 6 18.5 14t20.5 8q14 0 18 -10t4 -18q0 -7 -6.5 -26.5t-18 -43t-27 -48t-34.5 -40.5q-7 -5 -14.5 -6t-13.5 -5q-1 -1 -11.5 -1.5t-23.5 -1t-23.5 -0.5h-11.5q-4 0 -6 1q-3 1 -5 2q-9 0 -15.5 1.5
t-13 4t-15 4t-22.5 1.5q-2 0 -7 1.5t-16 1.5q-14 -1 -25 -2t-21 -1h-15q-27 0 -49 -5.5t-43 -5.5q-3 -1 -7 -1q-3 0 -7 -0.5t-8 1.5q-11 2 -18 8t-7 17q0 4 2.5 14t8.5 16q7 7 21 14t27.5 13.5t24.5 14.5t13 17q-1 7 -1 13q-1 5 -1 9v5v39q0 2 1 7t1 7v48l9 41q-9 2 -17 0
q-4 -1 -8 -3q-11 1 -18 1t-13.5 -1.5t-14 -4t-18.5 -6.5q0 7 -6.5 11.5t-4.5 11.5q0 2 4 8t10.5 13.5t14.5 15.5t15 13q13 4 29 4.5t35 0.5q4 19 6.5 37t5.5 35.5t8 35.5t13 37q9 21 26 48.5t30 56.5q8 13 17 25.5t22 19.5q14 21 38.5 34t47.5 13h75q27 0 36 -17.5t9 -38.5
v-22q0 -14 -9 -29.5t-22.5 -29.5t-28 -23t-24.5 -9q-12 0 -21 4t-18 4q-10 0 -21.5 -4t-21.5 -11t-18 -16.5t-11 -21.5q-8 -11 -7.5 -18t-6.5 -18q-6 -15 -14.5 -36t-10.5 -42q5 2 12 0t13 0q0 3 5 4.5t12 2t14 0.5t11 -1q14 0 24.5 4t25.5 4z" />
    <glyph glyph-name="currency" unicode="&#xa4;" horiz-adv-x="567" 
d="M373 373q11 0 18 0.5t12.5 0.5h11t13.5 -1q8 -11 17.5 -16.5t7.5 -11.5q0 -3 -6.5 -9.5t-14.5 -13.5t-15 -14.5t-8 -12.5q-23 -2 -42.5 -2t-55.5 2q-25 -5 -57 -7.5t-51 -6.5v-31v-14q4 0 12 1.5t13 1.5l47 3q13 -2 27.5 3t31.5 -3q18 15 58 11q-1 -2 -2 -5
q-1 -2 -1 -5.5v-6.5t-3 -10t-9 -15.5t-14.5 -16.5t-20.5 -13h-23t-38 2q-4 1 -12.5 1t-18.5 -0.5l-20 -1t-16 -1.5q6 -19 17.5 -37t28 -32t38.5 -23.5t49 -10.5l26 8q33 0 52 9.5t42 26.5q7 5 10.5 9t6 7.5t6 7t10.5 7.5q19 8 39 8q3 -2 7 -5q2 -2 4.5 -6t2.5 -8
q0 -21 -18.5 -47t-45 -48.5t-55 -37.5t-48.5 -15h-13q-20 -3 -37 -6q-14 -2 -28 -3.5t-19 -1.5q-11 0 -32 7t-42.5 16.5t-39.5 20t-22 17.5q-5 3 -14 18.5t-17.5 34.5t-15 37.5t-6.5 29.5l-11 6q-13 -2 -29 -0.5t-35 5.5l-14 6q0 6 5 17.5t17 18.5q17 4 27 6.5t21 4.5
q0 7 5 17v22q-17 0 -29 1.5t-29 -4.5q4 6 -3.5 9.5t-7.5 10.5q2 6 16 17.5t28 23.5q5 0 10 0.5t10 2.5l8 28l11 11v17q10 16 21 29q8 11 17.5 21.5t14.5 15.5q4 18 20.5 33t39.5 27.5t50.5 23.5t53.5 22q16 2 30 4q12 2 23 3t16 1h70l42 11q21 0 30.5 -6.5t12.5 -15.5t2 -19
t-1 -17v-19q-5 -11 -8.5 -22t-9 -20t-15 -14.5t-25.5 -5.5q-9 0 -20 6t-23.5 13.5t-26 13.5t-28.5 6q-73 0 -122.5 -35.5t-60.5 -94.5h33q8 2 17 4q16 3 28 7q3 3 10 4.5t15 2t16.5 0t13.5 -1.5q10 2 15 7t22 5z" />
    <glyph glyph-name="yen" unicode="&#xa5;" horiz-adv-x="639" 
d="M492 331q9 -1 14 -1t8.5 0.5t7.5 0t12 -2.5q8 -8 13 -15.5t3 -12.5q-1 -3 -6 -8t-11.5 -10.5t-12.5 -11.5t-8 -11q-21 2 -39.5 2.5t-47.5 2.5h-11q-4 -17 -7.5 -31.5t-3.5 -26.5v-6h8q10 -2 23 2.5t27 -5.5q11 5 23 8.5t33 -2.5l-2 -4q-1 -2 -2.5 -4.5t-3.5 -5.5
q-1 -2 -3.5 -9t-7.5 -15.5t-13 -16.5t-21 -12q-8 2 -22 3t-31 6h-13v-3q0 -3 1 -14t3 -23t5 -21t7 -9q7 -3 29 -7t45.5 -9t41.5 -13t18 -18q0 -5 -1 -9q-2 -8 -10 -8q-5 -4 -5 -7t0.5 -5.5t0 -5.5t-4.5 -7q-8 0 -19 -4t-25 -4q-7 0 -21.5 -3t-28.5 -3h-67q-8 0 -16 1
q-7 1 -15.5 2.5t-15.5 5.5h-45q-17 0 -25 -4.5t-25 -4.5h-17q-18 0 -31.5 -1t-23.5 0.5t-15 7.5t-5 21q0 14 16 26.5t37 12.5l50 17q6 0 14.5 3.5t15 8.5t9.5 12t0 15l-5 44q-11 0 -26.5 -3t-26.5 -3t-27 2t-37 4l-14 6l3 9t5 12t7.5 11t9.5 6q25 5 50 9.5t50 4.5v9
q0 8 2 16.5t4 16.5q0 7 5 17q-11 0 -20.5 -1.5t-15.5 -1.5q-9 1 -12 -2q-2 -2 -2 -4q-21 2 -35 2.5t-34 -7.5q0 4 -4.5 8.5t-4.5 10.5q1 1 4 6t7.5 11t10.5 13t12 12q12 0 31.5 0.5t40.5 2.5q-8 8 -18 15t-18 18q-7 15 -26.5 28t-40.5 28q-6 14 -18 29t-18 29q-6 5 -13 7
t-15 7q-19 5 -39 8q-17 7 -26.5 18.5t-9.5 31.5q0 17 7.5 28t28.5 11h48q14 0 27 -5.5t20 -5.5h47q3 0 11 -1t17.5 -1.5t19.5 -1.5t16 -1h22q7 0 8 -1.5t1 -9.5t-6 -15t-12.5 -15.5t-12.5 -17.5t-6 -19q0 -11 11 -28t25 -34q16 -19 37 -41q0 -3 2 -9t4.5 -12t6 -10.5
t6.5 -4.5q7 0 14 10t13 23t11 24.5t9 14.5q0 4 6 14t13.5 21.5t13.5 23t6 19.5q0 6 -8 10t-17 9.5t-17 13.5t-8 23q0 4 4.5 7t11 5t13 3t10.5 1q6 -2 11 -3t9.5 -1.5t7.5 -0.5h19q15 4 26 4.5t38 0.5q10 0 16.5 1.5t11 4t9.5 4t13 1.5q6 0 15.5 -2t18.5 -4.5t15.5 -5
t6.5 -4.5q0 -23 -13 -36.5t-34 -13.5h-31q-14 0 -21 -5t-11.5 -12.5t-6.5 -18t-5 -20.5q-5 -6 -9 -12t-11 -10q-4 -7 -9.5 -13t-9.5 -12q-7 -8 -16 -28.5t-20 -41.5q4 -2 8 -2.5t6 -2.5q10 4 20.5 8.5t23.5 2.5z" />
    <glyph glyph-name="brokenbar" unicode="&#xa6;" horiz-adv-x="222" 
d="M145 645q2 -15 -1 -26t-5 -24q6 -8 9 -22.5t-3 -19.5q-2 -6 -2.5 -12.5t-1.5 -11.5l-2 -12q0 -14 2 -21t6 -15q-5 -15 -6 -29t-0.5 -27t1 -25.5t-2.5 -24.5q-3 -8 -9 -18t-12.5 -18.5t-12.5 -15.5t-8 -9q-6 -4 -10.5 0.5t-8.5 -0.5q3 15 2 25.5t-2.5 20t-2 19.5t2.5 24
q0 34 -0.5 66.5t-2.5 72.5q-6 32 -10.5 57.5t-6.5 48.5q6 3 13 10t13 14.5t11 15t8 10.5q11 4 30 -6q9 -12 8 -21.5t4 -25.5zM147 103q0 -21 4 -37t2 -27q0 -32 -4.5 -60.5t-9.5 -61.5q-5 -11 -20 -20t-22 -14v11q-6 19 -11 35.5t-3 28.5q-2 8 1.5 21t1.5 24q2 21 -1.5 37.5
t-1.5 28.5q5 11 3.5 26t-3.5 22q-6 19 -7 29t-1 18q3 12 10 22.5t15 18.5t15 13.5t10 6.5q4 2 8 3.5t7 3.5q4 1 7 2q5 -17 3.5 -29t-5.5 -24q5 -5 4.5 -11.5t-2 -13l-3 -13t0.5 -10.5z" />
    <glyph glyph-name="section" unicode="&#xa7;" horiz-adv-x="550" 
d="M445 161q-3 -11 -14.5 -25.5t-26.5 -28.5t-33 -27t-35 -22q2 -2 9 -14t14 -16l36 -47q1 -1 4 -8.5t6.5 -18.5t6 -25t2.5 -29q0 -24 -14 -45t-35 -38.5t-46.5 -32t-48.5 -24t-40 -15.5t-22 -6h-61q-22 0 -51.5 3.5t-56.5 14t-45.5 29t-18.5 47.5q0 9 7.5 19.5t18 19.5
t23 14.5t23.5 5.5q17 0 20 -2.5t5 -9.5q9 -29 22 -42.5t26 -19t25 -7t19 -6.5q13 0 19.5 1.5t11.5 1.5q10 0 13.5 -1.5t5.5 -1.5q11 0 21.5 5t14.5 9l22 17q0 8 8.5 19t8.5 28v36q-11 22 -16.5 32.5t-10 16t-9 10.5t-11.5 16q-4 4 -16.5 12.5t-29.5 21.5t-35.5 30t-34 39
t-25.5 48.5t-9 57.5q2 13 8.5 30t21 34.5t37 35.5t55.5 33q-7 6 -18.5 18t-23 28.5t-19.5 37t-8 44.5q0 42 23.5 75t56 56t67.5 35t58 12q5 0 9.5 -1.5t13.5 -1.5q8 0 14.5 1.5t12.5 1.5q37 -8 60.5 -18.5t37 -19.5t18 -15.5t4.5 -7.5v-22q0 -17 -9 -33.5t-38 -16.5
q-18 0 -25 11t-15 24.5t-24.5 25t-52.5 11.5q-9 0 -27 -6t-35.5 -17.5t-30.5 -28.5t-13 -40q0 -38 26.5 -64.5t68.5 -51.5q1 -10 15.5 -20t32 -21t32 -24.5t14.5 -29.5l11 -19q0 -9 3 -12.5t3 -10.5q0 -12 -3 -27t-5 -26zM253 131q6 -8 9.5 -12.5t18.5 -4.5q12 0 25 6.5
t24 16.5t19 21.5t10 22.5q0 12 -9 26t-22.5 27t-28 24.5t-24.5 19.5q-25 -5 -48 -17.5t-30 -26.5l-5 -31q0 -8 5 -14.5t11 -10.5z" />
    <glyph glyph-name="dieresis" unicode="&#xa8;" horiz-adv-x="595" 
d="M114 709q1 11 8 18.5t16.5 12t21.5 7.5t23 6q7 3 12.5 9.5t10.5 13t10.5 11.5t14.5 5q12 0 16.5 -14t11.5 -25q6 -12 13.5 -21.5t14.5 -19t11.5 -20t4.5 -25.5q0 -6 -5 -10t-12 -7.5t-14.5 -7t-12.5 -8.5q-6 -6 -9.5 -12.5t-6.5 -11t-7.5 -7.5t-13.5 -3q-11 0 -18 5.5
t-13 13t-13 16t-17 13.5q-8 5 -16.5 15t-15.5 19.5t-11 17.5t-4 9zM398 737q14 14 29 23.5t34 20.5q5 2 8 6.5t6 8.5t6 7t8 3q9 0 14.5 -6t9.5 -14.5t8 -18t10 -16.5q6 -9 14 -14t14.5 -10.5t11 -12t4.5 -16.5q0 -9 -5.5 -15.5t-13 -12t-15.5 -11.5t-13 -14
q-6 -11 -13 -19.5t-20 -8.5t-18 8t-16 14q-8 7 -16.5 9.5t-16.5 13.5q-8 14 -12 19.5t-18 13.5q-7 5 -15 7t-8 12q0 9 8 12t15 11z" />
    <glyph glyph-name="copyright" unicode="&#xa9;" horiz-adv-x="726" 
d="M361 589h23l39 -8h19q15 -5 28 -10q11 -5 21 -9.5t15 -8.5q14 -8 36 -14t36 -22q4 -3 8.5 -10t9 -15t9 -15t7.5 -10q39 -32 50 -61.5t11 -52.5l-3 -72v-34q0 -11 -9.5 -35.5t-22 -50.5t-24.5 -48.5t-16 -29.5q-7 -23 -25.5 -37.5t-35.5 -20.5q-32 -25 -57.5 -44.5
t-56.5 -19.5q-15 0 -27 3t-35 3h-44h-20q-8 0 -21.5 3t-25.5 8q-15 4 -30 11q-16 8 -32 15t-30 16t-26.5 21t-20.5 31q-23 57 -42 115.5t-19 112.5q0 13 2 21.5t5 17.5t7 19t8 26q0 14 6 30t14 31q0 4 10 20.5t24 35t30 33t27 14.5l34 19q13 0 23.5 1t23.5 7q22 14 45 14h52
zM275 545q-22 0 -46 -19t-44 -44t-33 -49t-13 -33l-6 -97l6 -86q0 -21 18 -58.5t51 -75.5q29 -31 65.5 -53t65.5 -22h59q26 0 58 14.5t60.5 39.5t48 58t19.5 69q2 7 5 13q2 5 4 11.5t2 11.5l-11 109q0 26 -6.5 40.5t-17.5 28t-26.5 31.5t-33.5 50q-9 7 -23 16t-30 16.5
t-32 12.5t-31 5h-23q-10 0 -24 1.5t-28 3.5q-16 3 -34 6zM439 453q8 0 12.5 -3.5t6.5 -9t2.5 -12t0.5 -11.5v-11q-4 -15 -13.5 -27t-22.5 -12q-11 0 -21 8.5t-23 8.5q-15 0 -27.5 -9.5t-22 -22.5t-15 -26t-5.5 -20v-17v-28q0 -6 2.5 -23.5t8 -36.5t14.5 -33.5t23 -14.5
q0 -2 2 -3t4.5 -1.5t7.5 1.5q12 0 30 5.5t31 16.5q4 7 13 9.5t20 4.5q6 2 9 -0.5t8 -4.5q0 -3 -1 -6q-2 -8 -5 -11q-6 -11 -17 -23.5t-23 -23t-24.5 -18t-21.5 -7.5l-14 -6q-9 -1 -17 -2q-7 -1 -13 -1h-9q-4 0 -13 4t-18.5 10t-18 13t-11.5 12q-2 1 -8 11t-12 22.5t-11 25.5
t-5 19l-3 17l-2 8q-1 3 -1 7v7q0 7 1 13q1 5 1.5 11.5t0.5 11.5v14q0 3 -2 11q-1 3 -1 6l3 19l3 11q5 10 10 19q4 8 8.5 14.5t6.5 8.5q2 12 10.5 22t20.5 18t26 15t26 15q7 1 13 2q5 1 10.5 2t7.5 1t4.5 -1t4.5 -2q3 -1 5 -2h22z" />
    <glyph glyph-name="ordfeminine" unicode="&#xaa;" horiz-adv-x="381" 
d="M336 567q17 0 24 -10t7 -29q0 -3 -2.5 -14t-5.5 -25t-7 -28t-7 -22q0 -6 -1 -13t-8 -20q-6 -6 -5.5 -18t0.5 -18l-3 -45v-30q0 -3 0.5 -9t2 -12t5 -10.5t9.5 -4.5l11 16q12 12 26 23q8 6 16 13q4 0 7.5 -3.5t3.5 -10.5q-1 -2 -3 -5q-2 -2 -3.5 -5t-2.5 -6
q-6 -16 -15.5 -26t-21 -19t-23.5 -19.5t-23 -27.5l-20 -22q0 -8 -4 -13.5t-10 -7.5t-12 1t-10 11q-6 15 -7 25t0.5 18.5t4 17t2.5 20.5v33l3 17q0 4 -6 4q-3 0 -5 -1q-3 0 -13.5 -15t-23.5 -34.5t-26.5 -39t-22.5 -28.5l-7.5 -7.5t-12.5 -11t-14 -10t-13 -4.5
q-12 0 -19.5 8.5t-12 20t-6 23t-1.5 17.5l-6 59l14 100q0 2 2.5 11t6.5 20.5t10 23t12 17.5q12 11 24 24t23 32q11 15 21.5 21.5t20.5 10t21 6.5t23 9q6 0 13.5 5t14.5 12h22h14zM225 473q-16 -12 -29 -28.5t-22.5 -33.5t-15 -32t-5.5 -23q0 -3 -1 -15t0 -24.5t6 -22.5
t17 -10t26.5 20t27 44.5t21.5 45.5t9 23q0 5 0.5 18.5t-2 25.5t-9.5 17.5t-23 -5.5zM222 67q4 0 9 2t10 3.5t10 1t10 -6.5q7 6 17 10.5t22 0.5l-2 -6q-1 -3 -1 -11q-2 -3 -6 -11.5t-10 -17.5t-14 -17.5t-17 -11.5h-33q-7 2 -17.5 3t-21.5 -3q-8 -7 -22 -6.5t-28 0.5
q-8 0 -17 -5.5t-14 -5.5q-11 -4 -24.5 0t-28.5 6l-8 2q2 7 7.5 23.5t12.5 21.5q25 6 47 15t47 7q8 5 20.5 4.5t26.5 1.5h25z" />
    <glyph glyph-name="guillemotleft" unicode="&#xab;" horiz-adv-x="392" 
d="M234 373q-1 -1 -3 -2t-6 -1q-11 -2 -14 -3t-11 -3q-14 -4 -20 -10.5t-19 -17.5q-12 -8 -20 -20t-12.5 -24.5t-6 -24t-2.5 -20.5q-1 -14 2.5 -28t10 -25.5t15 -19t16.5 -7.5q2 0 7 -6t7 -8q11 -6 13.5 -11t0.5 -20q-7 -25 -18.5 -36t-37.5 -11q-12 0 -20 5t-19 12
q-8 4 -15.5 7.5t-12.5 11.5q-4 8 -6.5 14t-4.5 17q-4 8 -6 13.5t-2 14.5q2 12 -2.5 26.5t-0.5 23.5q2 11 4.5 18t4.5 18q2 6 2.5 11t2.5 11l5.5 16.5t8.5 16.5q3 7 6.5 12t8 9.5t9 10t9.5 13.5q7 8 11 12t7 6t6.5 4t9.5 6q8 6 12.5 10t15.5 6q4 2 8.5 3t10.5 3q19 6 21.5 7
t9.5 1q11 0 18 -4t7 -15q0 -8 -3.5 -15t-7.5 -7zM423 373q-1 -1 -3 -2t-6 -1q-11 -2 -14 -3t-11 -3q-14 -4 -28.5 -9t-26.5 -16q-13 -8 -20.5 -20t-12 -24.5t-6.5 -24.5t-3 -20q-1 -6 2 -18t8.5 -24t14 -21t17.5 -9q2 0 4 1.5t4 1.5q4 0 7 -3t10 -3q2 0 7 -1.5t7 -3.5
q10 -7 12.5 -16t0.5 -23q-6 -26 -25 -41t-44 -15q-13 0 -18 5t-15 12q-9 4 -16.5 7.5t-11.5 11.5q-5 8 -7 14t-4 17q-5 8 -7 13.5t-2 14.5q2 10 -1.5 17t-3.5 13t-2.5 10.5t-0.5 9.5q2 11 4 18t4 18q2 6 3 11t3 11l5.5 16.5t8.5 16.5q3 7 6.5 12t7.5 9.5t9 10t10 13.5
q7 8 12.5 12t10 6l9 4t10.5 6q8 6 12.5 10t15.5 6q4 2 8.5 3t10.5 3q19 6 21.5 7t9.5 1q11 0 18 -4t7 -15q0 -8 -3.5 -15t-7.5 -7z" />
    <glyph glyph-name="logicalnot" unicode="&#xac;" horiz-adv-x="698" 
d="M467 400q7 -1 19.5 0.5t26.5 3t28.5 2t25.5 -2.5h45q10 11 24 11.5t12 -14.5q0 -9 -0.5 -24.5t-0.5 -31v-29t1 -18.5q2 -14 1.5 -33.5l-1 -39t-1 -35.5t0.5 -22q-4 -19 -8 -29t-7.5 -14.5t-6.5 -5.5t-6 -1q-7 -5 -14 -7q-4 -2 -8 -2q-2 29 -3.5 46.5t3.5 34.5
q-4 12 -4 26t1.5 28.5t3 26.5t-0.5 19v64q-2 0 -4.5 -1.5t-4.5 -1.5q-6 1 -21.5 0.5t-34.5 -1t-38.5 0t-33.5 3.5h-18.5t-29.5 -0.5l-32 -1t-25 -1.5q-17 -4 -43.5 -2.5t-59.5 -0.5q-6 1 -18 1.5t-24.5 0.5t-24.5 1t-19 3q-8 -3 -21 -7t-29 -7t-33.5 -4.5t-33.5 -0.5
q-3 2 -6 5q-5 5 -5 11q2 3 7 11t12 16t15 15.5t16 10.5q48 4 99.5 1t97.5 -1q15 0 42 -2t56 2z" />
    <glyph glyph-name="uni00AD" unicode="&#xad;" horiz-adv-x="322" 
d="M272 289q13 2 19.5 4.5t17.5 -1.5q6 -8 11 -15t5 -13q-1 -3 -5.5 -10t-10 -16t-9.5 -17.5t-5 -14.5q-15 -5 -33.5 -4.5t-39.5 -4.5q-31 -8 -57 -16.5t-51 -16.5q-5 1 -7 -2q-1 -2 -1 -4q-9 -2 -15 -3t-12 -2.5t-13 -4.5t-16 -9q2 6 -1.5 8.5t-1.5 10.5q0 7 8.5 26
t19.5 30q8 6 17.5 9.5t19.5 6.5t20 6.5t21 10.5q6 0 11.5 0.5t16.5 5.5l8 4t8 3.5t9 3.5q2 8 13 9t17 -1q11 5 18.5 11t17.5 6z" />
    <glyph glyph-name="registered" unicode="&#xae;" horiz-adv-x="723" 
d="M384 589l39 -8h19q15 -5 28 -10q11 -5 21 -9.5t15 -8.5q14 -8 36 -14t36 -22q4 -3 8.5 -10t9 -15t9 -15t7.5 -10q39 -32 50 -61.5t11 -52.5l-3 -72v-34q0 -11 -9.5 -35.5t-22 -50.5t-24.5 -48.5t-16 -29.5q-7 -23 -25.5 -37.5t-35.5 -20.5q-32 -25 -57.5 -44.5
t-56.5 -19.5q-15 0 -27 3t-35 3h-44h-20q-8 0 -21.5 3t-25.5 8q-15 4 -30 11q-16 8 -32 15t-30 16t-26.5 21t-20.5 31q-23 57 -42 115.5t-19 112.5q0 13 2 21.5t5 17.5t7 19t8 26q0 14 6 30t14 31q0 4 10 20.5t24 35t30 33t27 14.5l34 19q13 0 23.5 1t23.5 7q22 14 45 14h75
zM275 545q-22 0 -46 -19t-44 -44t-33 -49t-13 -33l-6 -97l6 -86q0 -21 18 -58.5t51 -75.5q29 -31 65.5 -53t65.5 -22h59q19 0 40.5 7t42.5 19.5t39.5 30t32.5 38.5q-11 -2 -23.5 -2t-12.5 2q-4 2 -12 1.5t-10 3.5q-17 7 -24 13t-18 12q-6 2 -18.5 15.5t-23.5 26.5
q-14 17 -21 32t-17 21q-7 6 -11 11.5t-12 5.5q-6 0 -9.5 -4.5t-5 -11t-1.5 -13v-10.5l5 -28v-11q0 -16 8.5 -23.5t19 -12t19.5 -8.5t9 -12q0 -6 -3.5 -8.5t-7.5 -2.5h-23l-33 3h-75q-1 0 -9.5 1.5t-18 4.5t-17.5 7t-8 9t5 10l6 4q2 0 5.5 -1t6.5 -2q4 -2 8 -3h8q11 0 19.5 6
t8.5 14v158l5 42q-2 7 -2.5 15.5t-2 15.5t-5.5 12t-12 7h-25q-11 0 -23.5 7t-12.5 24q0 3 8 7q4 2 9 4l100 5h61h5.5t9.5 1q6 1 13 2h22q13 0 23.5 -8.5t18.5 -19.5q3 -11 16 -19q2 -2 5.5 -6t5.5 -11q1 0 3 -5.5t4 -12.5t3.5 -13.5t1.5 -7.5q0 -19 -10 -39.5t-18 -35.5
q-5 -6 -13.5 -9t-8.5 -16q0 -6 3.5 -16.5t9 -21t11 -19t9.5 -10.5q13 -10 24.5 -26t28.5 -21q4 -2 16.5 -3.5t16.5 -7.5q8 17 12.5 32t4.5 32q2 7 5 13q2 5 4 11.5t2 11.5l-11 109q0 26 -6.5 40.5t-17.5 28t-26.5 31.5t-33.5 50q-9 7 -23 16t-30 16.5t-32 12.5t-31 5h-23
q-10 0 -24 1.5t-28 3.5q-16 3 -34 6zM361 395q-2 0 -5 -1q-2 -1 -5 -2t-6 -3q-11 0 -11 -16v-48q0 -2 -3 -5.5t-3 -8.5q1 0 3 -1q3 -3 3 -4q-2 -6 0.5 -12t7 -10t10 -6.5t9.5 -2.5q7 3 12 7q5 2 9.5 4.5t6.5 2.5l9 -5q9 0 14.5 6t9 13.5t5.5 14t4 7.5l-6 20q0 4 -0.5 7
t-4.5 9q0 5 -0.5 11.5t-5.5 11.5q-2 0 -9 1.5t-16 4t-17 4t-11 1.5z" />
    <glyph glyph-name="macron" unicode="&#xaf;" horiz-adv-x="500" 
d="M370 689q11 0 23 5.5t27 -2.5q11 7 22.5 10t30.5 1q-1 -1 -2 -4q-1 -2 -2 -5t-2 -7q0 -3 -1.5 -11.5t-5 -18.5t-10 -19.5t-16.5 -14.5q-11 2 -26.5 1t-34.5 1q-5 1 -14.5 1t-20 -0.5t-20.5 -2t-15 -3.5q-11 -5 -27 -3t-37 -3q-11 2 -29 -2.5t-27 -2.5q-12 -5 -29.5 -3.5
t-36.5 6.5h-14q0 2 1.5 8.5t4.5 14t7 14.5t9 10q32 6 64 15.5t61 9.5q11 4 28 2.5t36 2.5h56z" />
    <glyph glyph-name="macron" unicode="&#x2c9;" horiz-adv-x="500" 
d="M370 689q11 0 23 5.5t27 -2.5q11 7 22.5 10t30.5 1q-1 -1 -2 -4q-1 -2 -2 -5t-2 -7q0 -3 -1.5 -11.5t-5 -18.5t-10 -19.5t-16.5 -14.5q-11 2 -26.5 1t-34.5 1q-5 1 -14.5 1t-20 -0.5t-20.5 -2t-15 -3.5q-11 -5 -27 -3t-37 -3q-11 2 -29 -2.5t-27 -2.5q-12 -5 -29.5 -3.5
t-36.5 6.5h-14q0 2 1.5 8.5t4.5 14t7 14.5t9 10q32 6 64 15.5t61 9.5q11 4 28 2.5t36 2.5h56z" />
    <glyph glyph-name="degree" unicode="&#xb0;" horiz-adv-x="317" 
d="M139 550q19 9 45 6t47 -3q12 -2 25 -13.5t19 -22.5q3 -5 5.5 -14.5t3.5 -19.5t1.5 -17.5t0.5 -9.5q-1 -33 -5 -60.5t-14 -48.5t-27.5 -36.5t-44.5 -24.5q-23 -14 -54.5 -15.5t-57.5 4.5q-4 2 -10 11t-12 11q-11 5 -16.5 16t-8 23.5t-3 26t-0.5 23.5q-2 19 3.5 33.5
t13.5 33.5q14 34 38 56t51 41zM139 481q-9 -4 -13 -8.5t-5.5 -9t-2.5 -10t-4 -11.5q0 -2 -4 -10t-2 -12q0 -8 0.5 -11t0.5 -4.5v-4.5t-1 -11q0 -8 5.5 -16t11.5 -14q11 -19 31 -23q4 -1 9.5 1t10.5 4.5t9.5 6t6.5 5.5q25 25 27.5 56.5t-24.5 60.5q-5 6 -11.5 7.5t-11.5 3.5
q-6 2 -16.5 3t-16.5 -3z" />
    <glyph glyph-name="plusminus" unicode="&#xb1;" horiz-adv-x="453" 
d="M183 284q0 12 -8.5 14t-21.5 2q-4 0 -13 -1.5t-19 -4t-19 -4t-13 -1.5q-12 0 -18 3t-8.5 9.5t-2 16t0.5 21.5v24.5t14 11.5q19 0 42 -4t44 -4q8 0 16.5 5.5t8.5 16.5q0 13 -3 20t-6.5 12t-6.5 11.5t-3 20.5q0 19 14 22t33 3q7 0 15 3t15 5.5t11 2t4 -7.5
q0 -11 -1.5 -23.5t-1.5 -23.5q0 -9 -2 -17.5t-3 -15t2 -11t14 -6.5q6 -2 13 -1t17 1q21 0 39 2.5t39 2.5q11 0 12.5 -8.5t1.5 -19.5q0 -7 -1 -16t-3 -16.5t-6.5 -12.5t-11.5 -5q-25 0 -43.5 1.5t-45.5 1.5q-8 0 -10 2t-7 -5q-3 -5 -5.5 -7.5t-4.5 -4t-3 -4.5t-1 -9
q2 -10 1.5 -15t-1 -9t1 -9t7.5 -14q0 -11 2 -19.5t-11 -8.5q-7 0 -11 -0.5t-7 -1t-7 -1t-11 -0.5q-5 0 -13.5 -3t-16.5 -5t-14 -2t-6 5q0 12 3.5 21.5t7.5 19t7.5 19t3.5 21.5zM300 156q5 -1 11 1t12 3.5t13 1.5t14 -4q11 7 22.5 10t30.5 -1v-4q0 -2 -1 -4.5t-2 -5.5
q0 -3 -1.5 -11.5t-6 -18.5t-11.5 -19.5t-17 -14.5q-8 2 -25 1.5t-36 1.5q-5 1 -14.5 1t-20 -0.5t-19.5 -2.5t-13 -4q-11 -4 -28.5 -2.5t-40.5 -2.5q-3 1 -10.5 -0.5t-15.5 -3t-16.5 -2.5t-13.5 0q-11 -6 -27 -4t-37 4h-14q1 3 2.5 10t3.5 15t5.5 15t8.5 10q33 6 66 14t64 8
q11 7 27.5 5.5t36.5 0.5z" />
    <glyph glyph-name="twosuperior" unicode="&#xb2;" horiz-adv-x="303" 
d="M69 470q-10 -8 -18.5 -4.5t-14.5 9.5q-2 1 -3.5 2.5l-3.5 3.5t-4 3q-4 3 -2 8.5t7 11.5t11.5 12.5l11.5 11.5q14 11 37.5 24.5t48.5 11.5h8q2 -2 6 -1t8 1q7 3 19 1t24 -7t22.5 -11.5t15.5 -12.5q13 -19 17.5 -30.5t4.5 -22.5q0 -6 -3.5 -17.5t-10.5 -24.5
q0 -8 -4.5 -19.5t-9.5 -19.5q-2 -6 -12 -13.5l-18 -13.5q-5 -7 -8.5 -9.5t-5.5 -4.5q-7 -9 -11.5 -17.5t-10.5 -19.5q-2 -4 -8.5 -11.5t-14.5 -15.5q-4 -7 -8.5 -13t-2.5 -12q11 2 19.5 2h16.5h25q5 0 14 7.5t20 15.5q12 4 23 9t24 5q10 0 9 -16t-8 -35.5t-15 -36t-11 -18.5
q-11 -6 -29 -4t-32 7q-10 2 -14 3l-8 2h-17q-11 0 -29 0.5t-35 2.5h-14q-11 -2 -17 -3.5t-11 3.5q-8 6 -14.5 18t-4.5 18q2 7 9.5 11t15.5 9l5.5 5.5t8.5 5.5q6 8 16.5 16.5t16.5 16.5q6 6 10.5 19t9.5 17q4 8 10 18t15 21l16 30t6 34q-5 21 -19 37t-31 16q-13 0 -31 -20
l-17 -16v0z" />
    <glyph glyph-name="threesuperior" unicode="&#xb3;" 
d="M53 512q3 8 14.5 16t27.5 14.5t34 11t35 5.5q8 4 17 0q14 0 18.5 1t8.5 -1q23 -5 41 -17.5t26 -27.5q10 -27 -2 -55.5t-31 -47.5q-2 -2 -12.5 -5.5t-18.5 -5.5q-6 -2 -7 -2h-4q-2 -2 3 -3t11 -3q17 -2 32.5 -6.5t25.5 -15.5q11 -13 18 -25t7 -23q2 -14 -3 -35.5
t-16 -36.5q-8 -11 -23 -19t-30 -14l-14 -6q-12 -4 -28 -6t-30 -2h-28q-6 0 -10.5 1.5t-6.5 1.5q-19 0 -30 3t-17 8q-11 2 -23.5 11t-12.5 19q0 5 4.5 6.5t6.5 7.5q4 6 9 12.5t11 9.5t14 1t19 -12q3 -4 10 -10.5t16.5 -12.5t20.5 -10.5t22 -4.5q5 0 12 2t13 9q7 6 13.5 16.5
t6.5 24.5q0 23 -12 46.5t-33 31.5q-4 2 -13 5.5t-20 5.5h-11q-8 -2 -14 -1t-11 7t-4 17t10 13q4 0 11.5 1.5t15.5 1.5q15 0 32.5 5t31.5 26q2 4 2.5 11t0.5 14q0 11 -5.5 26t-16.5 13q-5 -2 -8.5 -1t-5.5 1q-3 0 -4 1l-2 2q-4 0 -8.5 -3.5t-10.5 -5.5l-3 -5q-4 -7 -11 -15
t-19 -16q-15 -5 -28.5 -0.5t-13.5 25.5v8q0 2 -1 4.5t1 7.5z" />
    <glyph glyph-name="acute" unicode="&#xb4;" horiz-adv-x="303" 
d="M278 770q0 15 4 22.5t4 13.5q13 15 24 30.5t24 28.5q14 19 27.5 38t27.5 34q7 0 14.5 1.5t13.5 9.5q8 0 15 4t16 4q12 0 14 -11t2 -19v-17v-19q0 -14 -3 -22.5t-9 -16t-14.5 -15t-20.5 -19.5q-14 -14 -23.5 -27.5t-23.5 -27.5q-7 -7 -9 -13.5t-8 -14.5q-7 -12 -14 -19.5
t-13 -14.5t-12 -16t-11 -22l-5.5 -11t-8 -14t-10 -12t-12.5 -5q-13 0 -23 8t-10 23q0 8 5 14.5t11 21.5q0 8 6 18.5t11 17.5q0 17 5.5 25.5t5.5 21.5z" />
    <glyph glyph-name="mu" unicode="&#xb5;" horiz-adv-x="584" 
d="M53 -264q-15 6 -19 18.5t-12 20.5q-2 14 -7 27t-9 26q-3 7 -5.5 18.5t-2.5 23.5t2.5 24t7.5 20q2 8 2.5 22t0.5 22q3 9 10.5 27.5t15.5 39.5t14 39.5t5 27.5q2 8 6 20t8.5 24.5t9.5 25t9 21.5q1 8 4 15q2 6 4.5 13t5.5 14q0 3 3 6q2 11 9 24.5t13 30.5q3 7 9.5 24.5
t16 40t21.5 46t26.5 43.5t30 33t32.5 13h11q12 0 18.5 -6.5t10 -15.5t4.5 -19.5t1 -19.5q0 -10 -8.5 -27.5t-20.5 -39.5t-27 -46t-27 -46t-20.5 -40.5t-8.5 -28.5q0 -23 10.5 -41t28 -27.5t40.5 -8t49 18.5q2 5 13 13t23 20q9 8 11 16.5t6 8.5q0 8 7 15t7 13q2 7 11 26
t20 46q19 37 35 79.5t28 71.5q9 20 27.5 28t31.5 8h22q13 0 20.5 -12.5t7.5 -26.5q0 -3 -7 -19.5t-16 -37.5t-18.5 -43t-14.5 -36q-10 -22 -18.5 -39.5t-15 -34t-10 -33.5t-3.5 -38v-36q-1 -12 3.5 -20.5t10.5 -14.5t12.5 -9t9.5 -3t9 -3t12 -7q7 -4 15 -10q0 -8 3 -14
t3 -14q0 -9 -0.5 -11.5t-2.5 -4t-6.5 -5t-12.5 -15.5q-13 -12 -31.5 -17t-32.5 -5q-8 0 -17 4.5t-17 11t-13.5 14t-5.5 12.5l-8 16v11q-8 9 -13 19q-5 8 -8.5 17t-3.5 17q0 7 -1.5 13.5t-10.5 6.5q-6 0 -13 -7.5t-14 -17.5t-13 -19t-10 -12q-6 -7 -21 -22.5t-33 -31.5
t-35 -28t-27 -12q-13 0 -30 8.5t-23 18.5q-4 10 -7 20q-7 19 -7 30q0 9 -3.5 17t-8.5 10.5t-10.5 -3.5t-10.5 -24q-8 -31 -15 -57q-6 -23 -11.5 -45t-7.5 -31q-2 -29 7.5 -44t20.5 -25q5 -9 16 -13t17 -18q1 -2 1 -10.5t-1 -18t-3 -19t-5 -13.5q-4 -8 -13 -15t-20 -11
t-22.5 -3t-19.5 9l-11 6v0z" />
    <glyph glyph-name="paragraph" unicode="&#xb6;" horiz-adv-x="684" 
d="M320 3q-49 0 -95.5 16t-83 46.5t-58.5 73.5t-22 97l8 48v61q0 6 6 18.5t6 20.5q4 12 10 24q5 11 11.5 22.5t14.5 22.5q3 7 11.5 17.5t20 19.5t24.5 15.5t24 6.5l20 2q8 0 19 1.5t21.5 4t19 4t12.5 1.5h28q11 0 22 4.5t20 4.5h39h77h23q5 1 9 2t7.5 2t5.5 1l28 -5h27h28
q7 0 13 -1t12 -8q4 0 12 -0.5t16 -2.5t14 -7.5t6 -14.5q0 -6 -7.5 -13t-16.5 -13q-11 -7 -24 -13h-25l-36 -8q-8 2 -15 4q-6 2 -13 3t-11 1q-9 0 -14.5 -6t-7.5 -14t-2.5 -16.5t-0.5 -13.5v-19v-42v-16v-62v-47v-33v-47q0 -26 9.5 -44t35.5 -18q14 0 19 3t20 3l25 -6h16
q8 0 18 -5.5t10 -13.5q0 -14 -15.5 -23.5t-35.5 -16.5t-39.5 -10t-26.5 -3h-19q-5 0 -11.5 5.5t-10.5 5.5q-9 -3 -17 -6q-15 -5 -22 -5h-39h-14q-21 -2 -39 -4q-15 -2 -29 -3t-18 -1zM403 97q4 0 9.5 4t11 9.5t9 12.5t3.5 13q-2 4 -3 8q-2 10 -2 17v28q0 9 -0.5 14t-1 9.5
t-1 9.5t-0.5 14v117v47q-4 6 -5 14t-2.5 15.5t-5 14t-12.5 9.5h-8h-22q-10 0 -15.5 -19t-8.5 -47t-4.5 -60.5t-2.5 -59.5q-1 -36 1 -67t6.5 -54t11 -36t14.5 -13h9h19z" />
    <glyph glyph-name="periodcentered" unicode="&#xb7;" horiz-adv-x="286" 
d="M147 350q2 0 17 -8.5t31.5 -23.5t30 -34.5t13.5 -41.5q0 -15 -9.5 -31t-23.5 -29.5t-30 -22.5t-29 -9q-10 0 -25 13t-28.5 29.5t-23 31.5t-9.5 18q0 26 12 44.5t27 31t29 20.5t18 12z" />
    <glyph glyph-name="cedilla" unicode="&#xb8;" horiz-adv-x="245" 
d="M11 -111q0 12 16 22t29 22q6 7 13.5 8t13.5 1q7 8 9 13.5t8 5.5q13 0 26 -1t21 -7q5 0 7 -6.5t10 -13.5q6 -6 12.5 -13.5t6.5 -22.5q0 -27 -8.5 -50t-27.5 -50q-8 -6 -15 -9t-15 -16q-2 -7 -6.5 -11t-10.5 -7.5t-12.5 -7.5t-12.5 -10q-7 -8 -11.5 -12t-9 -6.5t-10.5 -4.5
t-16 -5h-9t-12 1t-10.5 2.5t-4.5 4.5q0 10 6 17.5t15.5 13.5t20.5 12t22 13q6 6 8.5 17t10.5 19q13 13 19 20.5t6 15.5q0 13 -5 16t-12 9q-6 8 -13.5 14t-13.5 6q-3 0 -5.5 -3t-5 -7t-6.5 -7t-11 -3t-12 6.5t-5 13.5z" />
    <glyph glyph-name="onesuperior" unicode="&#xb9;" horiz-adv-x="267" 
d="M36 520q8 2 20.5 7.5t29.5 11.5q19 7 38.5 14t36.5 9q17 0 31 -9q2 -2 4 -8q1 -3 1 -6q0 -33 -3 -63t-5 -59q-2 -13 -3 -25t-3 -25v-86q0 -15 8 -22.5t20 -13.5q-4 2 3 -2.5t11 -6.5q7 -2 11 -5.5t6 -5.5q8 -8 4.5 -15.5t-15.5 -9.5q-7 0 -14 2t-9 4q-4 2 -8 3.5t-17 1.5
q-6 0 -11.5 0.5t-10.5 2.5q-11 2 -26 0.5t-29 -3.5q-21 -2 -40 -4t-30 4q-11 8 -11 14q1 6 9.5 12t19 10.5t20 8t12.5 5.5q7 11 9 41t2 62v111q1 2 2 5t1 6v6q-4 2 -6.5 0.5t-7.5 -3.5q-8 -8 -25 -8q-13 0 -22 1.5t-14 12.5q-2 6 0 13t8 12h3z" />
    <glyph glyph-name="ordmasculine" unicode="&#xba;" 
d="M231 567q12 0 28.5 -0.5t29.5 -4.5q13 0 17 -10.5t8 -23.5q8 -6 16.5 -21t8.5 -26l-5 -78q0 -23 -11 -51.5t-28 -54.5q-6 -5 -9.5 -12.5t-6.5 -16t-7 -17.5t-11 -17q-11 -13 -25 -33t-33 -26q-23 -13 -35.5 -20.5t-28.5 -7.5q-27 0 -44 22t-17 48l-3 58q0 7 -4 11t-4 23
q0 24 13 59t30.5 68.5t35.5 59.5t29 32q17 13 27 26t29 13zM234 470q-14 0 -28 -11t-26 -26t-21 -29t-12 -20q-4 -18 -7 -33q-3 -13 -5 -24t-2 -13v-17q2 -3 4 -10.5t5.5 -16t9.5 -14.5t15 -6q17 7 31 15q12 7 23.5 15.5t14.5 16.5q7 13 13 29.5t12 29.5q0 6 3 13.5t3 14.5
v22q0 3 -1.5 13.5t-5.5 21.5t-10.5 20t-15.5 9zM197 75q4 0 8.5 2t9.5 3.5t10.5 0.5t10.5 -6q8 8 17.5 12t21.5 2v-6q0 -3 -1 -6t-2 -8q-1 -3 -4.5 -11t-8.5 -17t-12.5 -17.5t-15.5 -12.5h-36q-7 2 -17.5 2t-19.5 -5q-8 -6 -21.5 -5.5t-28.5 0.5q-8 0 -17.5 -7t-15.5 -7
q-8 -5 -22 -2t-28 7l-8 3q0 5 5 21.5t11 23.5q26 8 46.5 16.5t45.5 8.5q8 6 20.5 4.5t29.5 3.5h22z" />
    <glyph glyph-name="guillemotright" unicode="&#xbb;" horiz-adv-x="445" 
d="M245 117q1 0 3 1q4 2 5 2q11 2 14 2.5t11 2.5q14 5 20 11t19 17q12 8 20 20t12.5 24.5t6.5 24.5t3 20q1 13 -3 27.5t-10.5 26t-15 19t-16.5 7.5q-2 0 -7 6t-7 8q-11 7 -13.5 11.5t-0.5 19.5q7 25 19 36t37 11q13 0 20.5 -5t18.5 -11q8 -5 15.5 -8.5t12.5 -11.5
q4 -8 6.5 -14t4.5 -17q4 -8 6 -13.5t2 -13.5q-2 -13 2.5 -27.5t0.5 -22.5q-2 -11 -4 -18.5t-4 -17.5q-2 -7 -3 -11.5t-3 -11.5l-5.5 -16.5t-8.5 -16.5q-6 -15 -14 -21.5t-19 -23.5q-8 -8 -11.5 -12t-6.5 -6t-6.5 -3.5t-9.5 -5.5q-8 -7 -12.5 -11t-14.5 -6q-5 -2 -9.5 -3
t-10.5 -3q-9 -3 -14 -4.5t-7.5 -2.5t-4 -1h-4.5q-11 0 -18 4.5t-7 15.5q0 8 3 15t8 7zM56 117q1 0 3 1q4 2 5 2q11 2 14 2.5t11 2.5q14 5 28.5 9.5t27.5 15.5q12 8 19.5 20t12 24.5t6.5 24.5t3 20q1 6 -1.5 18t-8.5 24t-14 21t-17 9q-2 0 -4.5 -1t-4.5 -1q-4 0 -7 2.5
t-9 2.5q-2 0 -7 2t-7 4q-11 6 -13.5 15t-0.5 24q6 25 25 40t44 15q13 0 18 -5t16 -11q8 -5 15.5 -8.5t11.5 -11.5q5 -8 7.5 -14t4.5 -17q4 -8 6 -13.5t2 -13.5q-2 -11 1.5 -18t3.5 -13t2.5 -10.5t0.5 -8.5q-4 -19 -8 -36q-2 -7 -3 -11.5t-3 -11.5l-5.5 -16.5t-8.5 -16.5
q-6 -15 -14 -21.5t-19 -23.5q-7 -8 -12 -12t-9.5 -6t-9.5 -3.5t-11 -5.5q-8 -7 -12.5 -11t-14.5 -6q-5 -2 -9.5 -3t-10.5 -3q-19 -6 -21.5 -7t-9.5 -1q-10 0 -17.5 4.5t-7.5 15.5q0 8 3.5 15t8.5 7z" />
    <glyph glyph-name="onequarter" unicode="&#xbc;" horiz-adv-x="739" 
d="M292 97q-11 -17 -19.5 -32t-16.5 -26q-13 -25 -27.5 -46t-31.5 -49q-5 -4 -13.5 -6.5t-16.5 -3.5t-15 -1h-10l5 11q5 19 8.5 35t11.5 24q2 11 12.5 20.5t15.5 15.5q10 19 16 34.5t14 26.5q8 8 15.5 21.5t9.5 20.5q2 9 12 25.5t21 33t19.5 30t8.5 16.5q10 10 20.5 29.5
t21 40.5t20.5 39.5t19 27.5q19 31 35.5 60t33.5 65q13 29 22 53.5t20 43.5q6 0 15.5 2.5t18.5 6t16.5 6.5t10.5 4q8 0 14.5 -5.5t10.5 -13.5q0 -14 -3.5 -22t-10.5 -22q-6 -13 -13.5 -22t-13.5 -20l-3 -9t-4.5 -12t-6 -10.5t-6.5 -4.5q-5 -7 -8.5 -12t-6.5 -10q-4 -5 -7 -9
q-8 -11 -10 -17t-4 -19q-12 -8 -25.5 -28.5t-26 -43t-24 -42.5t-18.5 -28q-2 -8 -11 -25t-19.5 -34.5t-20 -32.5t-13.5 -19q0 -6 -4 -11.5t-9 -10t-9.5 -9t-5.5 -8.5zM637 111q-2 -2 -3 -5q-3 -5 -3 -11v-20l3.5 -10.5t-0.5 -8.5q2 -9 2.5 -16t11.5 -7q6 0 13.5 -3t14.5 -8
v-14q2 -6 -9 -8.5t-30 -2.5q-9 2 -16 2.5t-15 0.5q-5 0 -10.5 -0.5t-11.5 -2.5q-17 0 -32 0.5t-21 2.5q-25 9 -25 17q-5 12 5 16t23 6q6 2 13.5 9t2.5 21q-4 11 0 17v28q-8 -2 -24.5 -2.5t-33.5 -0.5q-23 0 -45.5 0.5t-26.5 2.5q-5 2 -8 11t-3 14q-2 6 2.5 14.5t12.5 17.5
t17 17.5t15 14.5q4 6 7.5 11.5t11.5 13.5l9 11q4 5 10 12t4 5q4 4 6 9t10 13q2 5 10.5 11t14.5 8q2 5 6.5 8.5t4.5 5.5q2 2 8.5 10t15.5 15.5t19 13t19 3.5q2 0 6.5 -3.5t9.5 -8t9 -9.5t5 -7q-2 -2 -1.5 -3.5t-3.5 -7.5q0 -2 -0.5 -4t-2.5 -13v-19v-61q-2 -5 -2.5 -10
t-0.5 -10v-33q0 -3 1 -3h2q6 0 17 3.5t22 7.5q2 0 4 1.5t4 1.5q10 10 20 0q6 -6 6.5 -13.5t-1.5 -14.5q-2 -2 -2.5 -4.5t-0.5 -0.5q-2 -5 -3 -11.5t1 -8.5q-8 -15 -23 -19q-8 0 -10 0.5t-4 2.5q-6 2 -12.5 3.5t-14.5 1.5zM495 164q6 2 12 2.5t10 0.5q8 0 16 -1.5t15 -1.5
q2 14 3.5 32t1.5 35v14q-4 -5 -8 -9t-6 -11l-25 -33zM36 520q8 2 20.5 7.5t29.5 11.5q19 7 38.5 14t36.5 9q17 0 31 -9q2 -2 4 -8q1 -3 1 -6q0 -33 -3 -63t-5 -59q-2 -13 -3 -25t-3 -25v-86q0 -15 8 -22.5t20 -13.5q-4 2 3 -2.5t11 -6.5q7 -2 11 -5.5t6 -5.5q8 -8 4.5 -15.5
t-15.5 -9.5q-7 0 -14 2t-9 4q-4 2 -8 3.5t-17 1.5q-6 0 -11.5 0.5t-10.5 2.5q-11 2 -26 0.5t-29 -3.5q-21 -2 -40 -4t-30 4q-6 5 -9.5 7.5t-1.5 6.5q2 5 11 10.5t19 10.5t19 9t12 6q7 11 9 41t2 62v111q1 2 2 5t1 6v6q-4 2 -6.5 0.5t-7.5 -3.5q-8 -8 -25 -8q-13 0 -22 1.5
t-14 12.5q-2 6 0 13t8 12h3z" />
    <glyph glyph-name="onehalf" unicode="&#xbd;" horiz-adv-x="753" 
d="M292 97q-11 -17 -19.5 -32t-16.5 -26q-13 -25 -27.5 -46t-31.5 -49q-5 -4 -13.5 -6.5t-16.5 -3.5t-15 -1h-10l5 11q5 19 8.5 35t11.5 24q2 11 12.5 20.5t15.5 15.5q10 19 16 34.5t14 26.5q8 8 15.5 21.5t9.5 20.5q2 9 12 25.5t21 33t19.5 30t8.5 16.5q10 10 20.5 29.5
t21 40.5t20.5 39.5t19 27.5q19 31 35.5 60t33.5 65q13 29 22 53.5t20 43.5q6 0 15.5 2.5t18.5 6t16.5 6.5t10.5 4q8 0 14.5 -5.5t10.5 -13.5q0 -14 -3.5 -22t-10.5 -22q-6 -13 -13.5 -22t-13.5 -20l-3 -9t-4.5 -12t-6 -10.5t-6.5 -4.5q-5 -7 -8.5 -12t-6.5 -10q-4 -5 -7 -9
q-8 -11 -10 -17t-4 -19q-12 -8 -25.5 -28.5t-26 -43t-24 -42.5t-18.5 -28q-2 -8 -11 -25t-19.5 -34.5t-20 -32.5t-13.5 -19q0 -6 -4 -11.5t-9 -10t-9.5 -9t-5.5 -8.5zM506 259q-11 -9 -19 -5t-14 10q-2 1 -3.5 2t-3.5 3q-3 2 -5 3q-4 3 -2 8.5t7 12t11.5 13l11.5 11.5
q15 11 38 24.5t48 11.5h9q2 -2 5.5 -1t8.5 1q7 3 18.5 1t23.5 -7t22.5 -12t15.5 -13q13 -19 18 -30t5 -22q0 -7 -4 -18t-10 -24q0 -8 -5 -19.5t-9 -19.5q-2 -6 -12.5 -13.5t-18.5 -14.5q-4 -6 -8 -9t-6 -5q-6 -8 -11 -16.5t-11 -19.5q-2 -4 -8 -11.5t-14 -16.5q-5 -6 -9 -12
t-2 -13q11 2 19.5 2.5t16.5 0.5h25q4 0 13 7t20 15q13 5 24 9.5t23 4.5q10 0 9 -15.5t-7.5 -35t-15 -36t-11.5 -18.5q-10 -7 -28 -4.5t-33 6.5q-3 1 -7 2t-7 2l-8 2h-17q-11 0 -29 0.5t-35 2.5h-13q-11 -2 -17.5 -3.5t-10.5 3.5q-8 6 -15 18t-5 18t9.5 10.5t15.5 8.5
q2 2 6 5.5t8 5.5q7 9 17 17.5t17 16.5q6 6 10 18.5t9 17.5q5 8 11 18t14 21q8 14 16 29.5t6 34.5q-4 21 -18.5 37t-31.5 16q-6 0 -14 -6t-16 -14zM36 520q8 2 20.5 7.5t29.5 11.5q19 7 38.5 14t36.5 9q17 0 31 -9q2 -2 4 -8q1 -3 1 -6q0 -33 -3 -63t-5 -59q-2 -13 -3 -25
t-3 -25v-86q0 -15 8 -22.5t20 -13.5q-4 2 3 -2.5t11 -6.5q7 -2 11 -5.5t6 -5.5q8 -8 4.5 -15.5t-15.5 -9.5q-7 0 -14 2t-9 4q-4 2 -8 3.5t-17 1.5q-6 0 -11.5 0.5t-10.5 2.5q-11 2 -26 0.5t-29 -3.5q-21 -2 -40 -4t-30 4q-11 8 -11 14q1 6 9.5 12t19 10.5t20 8t12.5 5.5
q7 11 9 41t2 62v111q1 2 2 5t1 6v6q-4 2 -6.5 0.5t-7.5 -3.5q-8 -8 -25 -8q-13 0 -22 1.5t-14 12.5q-2 6 0 13t8 12h3z" />
    <glyph glyph-name="threequarters" unicode="&#xbe;" horiz-adv-x="731" 
d="M637 111q-2 -2 -3 -5q-3 -5 -3 -11v-20l3.5 -10.5t-0.5 -8.5q2 -9 2.5 -16t11.5 -7q6 0 13.5 -3t14.5 -8v-14q2 -6 -9 -8.5t-30 -2.5q-9 2 -16 2.5t-15 0.5q-5 0 -10.5 -0.5t-11.5 -2.5q-17 0 -32 0.5t-21 2.5q-25 9 -25 17q-5 12 5 16t23 6q6 2 13.5 9t2.5 21
q-4 11 0 17v28q-8 -2 -24.5 -2.5t-33.5 -0.5q-23 0 -45.5 0.5t-26.5 2.5q-5 2 -8 11t-3 14q-2 6 2.5 14.5t12.5 17.5t17 17.5t15 14.5q4 6 7.5 11.5t11.5 13.5l9 11q4 5 10 12t4 5q4 4 6 9t10 13q2 5 10.5 11t14.5 8q2 5 6.5 8.5t4.5 5.5q2 2 8.5 10t15.5 15.5t19 13t19 3.5
q2 0 6.5 -3.5t9.5 -8t9 -9.5t5 -7q-2 -2 -1.5 -3.5t-3.5 -7.5q0 -2 -0.5 -4t-2.5 -13v-19v-61q-2 -5 -2.5 -10t-0.5 -10v-33q0 -3 1 -3h2q6 0 17 3.5t22 7.5q2 0 4 1.5t4 1.5q10 10 20 0q6 -6 6.5 -13.5t-1.5 -14.5q-2 -2 -2.5 -4.5t-0.5 -0.5q-2 -5 -3 -11.5t1 -8.5
q-8 -15 -23 -19q-8 0 -10 0.5t-4 2.5q-6 2 -12.5 3.5t-14.5 1.5zM303 97q-11 -17 -19.5 -32t-16.5 -26q-15 -25 -27.5 -46t-33.5 -49q-4 -4 -11.5 -6.5t-16 -3.5t-15.5 -1h-10l3 11q4 19 9 35t13 24q4 11 14.5 20.5t10.5 15.5q13 19 19 34.5t14 26.5q8 8 15.5 21.5t9.5 20.5
q2 9 11.5 25.5t20.5 33t19.5 30t9.5 16.5q10 10 20.5 29.5t21 40.5t20.5 39.5t19 27.5q19 31 35 60t35 65q12 29 22.5 53.5t18.5 43.5q6 0 15.5 2.5t18.5 6t16.5 6.5t10.5 4q7 0 13.5 -5.5t14.5 -13.5q0 -14 -5 -22t-11 -22q-5 -13 -14 -22t-17 -20q0 -3 -1.5 -9t-3.5 -12
t-5.5 -10.5t-6.5 -4.5q-5 -7 -8.5 -12t-6.5 -10q-4 -5 -7 -9q-8 -11 -11 -17t-3 -19q-11 -8 -24 -28.5t-26 -43t-24.5 -42.5t-19.5 -28q-2 -8 -11 -25t-19.5 -34.5t-21 -32.5t-15.5 -19q2 -6 -1.5 -11.5t-8 -10t-9.5 -9t-6 -8.5zM53 512q3 8 14.5 16t27.5 14.5t34 11t35 5.5
q8 4 17 0q14 0 18.5 1t8.5 -1q23 -5 41 -17.5t26 -27.5q10 -27 -2 -55.5t-31 -47.5q-2 -2 -12.5 -5.5t-18.5 -5.5q-5 -2 -11 -2q-4 -2 1 -3t13 -3q17 -2 32.5 -6.5t25.5 -15.5q11 -13 18 -25t7 -23q2 -14 -3 -35.5t-16 -36.5q-8 -11 -23 -19t-30 -14l-14 -6q-12 -4 -28 -6
t-30 -2h-28q-6 0 -10.5 1.5t-6.5 1.5q-19 0 -30 3t-17 8q-11 2 -23.5 11t-12.5 19q0 5 4.5 6.5t6.5 7.5q4 6 9 12.5t11 9.5t14 1t19 -12q3 -4 10 -10.5t16.5 -12.5t20.5 -10.5t22 -4.5q5 0 12 2t13 9q7 6 13.5 16.5t6.5 24.5q0 23 -12 46.5t-33 31.5q-4 2 -13 5.5t-20 5.5
h-11q-8 -2 -14 -1t-11 7t-4 17t10 13q4 0 11.5 1.5t15.5 1.5q15 0 32.5 5t31.5 26q2 4 2.5 11t0.5 14q0 11 -5.5 26t-16.5 13q-5 -2 -8.5 -1t-5.5 1q-3 0 -4 1l-2 2q-4 0 -8.5 -3.5t-10.5 -5.5l-3 -5q-4 -7 -11 -15t-19 -16q-15 -5 -28.5 -0.5t-13.5 25.5v8q0 2 -1 4.5
t1 7.5zM495 164q6 2 12 2.5t10 0.5q8 0 16 -1.5t15 -1.5q2 14 3.5 32t1.5 35v14q-4 -5 -8 -9t-6 -11l-25 -33z" />
    <glyph glyph-name="questiondown" unicode="&#xbf;" horiz-adv-x="402" 
d="M235 -35q8 0 15.5 -12t-2.5 -41q-3 -9 -9.5 -18t-15.5 -17.5t-18.5 -16t-16.5 -11.5q-9 -6 -22 -15.5t-27 -19t-28 -16t-25 -4.5q-16 2 -34 6.5t-34.5 12t-29 19t-16.5 29.5q-1 4 -6 16t-10 25.5t-8 26t0 18.5q5 6 3.5 13.5t-3.5 15.5t-2 15.5t7 13.5q29 26 51.5 48
t56.5 40q-1 4 6.5 7t6.5 8q-3 12 10 20.5t29 16.5t29 17t10 23q-2 8 -6.5 12t-6.5 15q-2 7 -4 13t-4 14q-2 6 -5.5 10t-5.5 12q-3 14 12 23t30 12q13 3 25.5 -1t22.5 -12.5t17 -20.5t10 -25q4 -20 -5 -35t-23 -28.5t-30 -27t-26 -30.5q-9 -13 -15.5 -20.5t-13.5 -12.5
t-15.5 -10.5t-20.5 -14.5q-12 -8 -19.5 -25t-22.5 -25q-15 -9 -17.5 -23.5t2 -29t15 -26t21.5 -14.5q9 1 15.5 -3t13 -9t13 -9.5t15.5 -5.5q28 -2 45.5 10t29.5 27.5t19.5 28t16.5 11.5zM308 464q0 -16 -10 -30.5t-23.5 -26t-27.5 -18t-22 -6.5q-10 0 -17 4.5t-13 10.5
t-12 13.5t-14 13.5t-18 10.5t-10 16.5q0 13 5 21.5t13.5 15t18.5 13t19 14.5q7 5 11 13.5t8 16t9.5 13t15.5 5.5q9 0 14.5 -5.5t8.5 -14.5t5.5 -20t5.5 -22q1 -5 6.5 -9t11.5 -8.5t10.5 -9.5t4.5 -11z" />
    <glyph glyph-name="Agrave" unicode="&#xc0;" horiz-adv-x="612" 
d="M359 589q22 0 33 -9.5t15.5 -24.5t6 -32.5t3.5 -33.5v-36q6 -11 15.5 -29.5t9.5 -37.5v-25q0 -3 5 -18t11.5 -33t11.5 -34.5t5 -22.5q0 -19 5 -50.5t13 -61.5t18.5 -52t22.5 -22q14 0 22 -3t14 -3q3 0 10.5 -1t16 -4t14.5 -8.5t6 -14.5q0 -20 -14 -28t-33 -8l-67 3h-28
h-50h-22l-28 -3q-6 0 -19.5 1t-13.5 8q0 14 12.5 23t29.5 15q14 5 23.5 11t9.5 20q0 3 -2.5 15t-6 25.5t-8 24t-8.5 10.5q-3 10 -4.5 22t-4 21.5t-8 14.5t-16.5 3h-34h-11.5t-17.5 -1t-17.5 -2.5t-11.5 -4.5q-13 -6 -10.5 -17.5t2.5 -24.5q-3 -4 -9 -15.5t-11.5 -24.5
t-9.5 -24t-4 -14q0 -12 6.5 -17t14.5 -9.5t14.5 -12.5t6.5 -27q0 -6 -4 -9.5t-9.5 -5t-11 -2t-8.5 -0.5q0 -3 -2 -4t-5.5 -1t-9.5 5h-10.5t-13.5 1l-18 2q-13 0 -21 -3t-21 -3q-14 0 -20 -1.5t-8.5 -3t-3.5 -2.5t-4 -1q-5 0 -17.5 1t-25.5 3.5t-22.5 7t-9.5 10.5
q0 19 11.5 32t30.5 13l19 5q2 0 7.5 3.5t11.5 8.5t12.5 10.5t10.5 8.5q6 25 21.5 54.5t28.5 56.5q6 17 15.5 35.5t17.5 31.5q10 19 17 37t13 36.5t13 37.5t16 39q7 15 11 32.5t7.5 36t9 37.5t14.5 38q6 5 13 12t20 13h17zM347 406q-7 0 -12.5 -6t-9.5 -13.5t-6 -15t-2 -10.5
v-13.5t-1 -8t-2.5 -9.5t-4.5 -19v-8q0 -6 9 -11.5t16 -5.5h9.5t13 1t11.5 4t5 9q0 13 -7 20t-7 14v44q0 6 -3.5 17t-8.5 11zM172 945q5 -8 12.5 -19t18.5 -17q11 -8 21 -19.5t18 -22.5q19 -20 33.5 -39t27.5 -38q3 -1 6.5 -6.5t7.5 -11.5t8 -11t9 -5q3 -8 9 -17t12.5 -18.5
t11.5 -20t6 -22.5q6 -2 6.5 -6.5t6.5 -4.5q5 -6 1 -13.5t-6 -14.5q-2 -11 -15.5 -19t-26.5 -6q-6 1 -15.5 9.5t-18.5 19.5t-16.5 21l-10.5 14q-8 11 -16.5 18t-16.5 21q-13 17 -21.5 37.5t-23.5 46.5q-1 9 -7 25t-14 33t-17 34.5t-15 29.5q-6 17 3.5 23.5t21.5 -1.5z" />
    <glyph glyph-name="Aacute" unicode="&#xc1;" horiz-adv-x="612" 
d="M359 589q22 0 33 -9.5t15.5 -24.5t6 -32.5t3.5 -33.5v-36q6 -11 15.5 -29.5t9.5 -37.5v-25q0 -3 5 -18t11.5 -33t11.5 -34.5t5 -22.5q0 -19 5 -50.5t13 -61.5t18.5 -52t22.5 -22q14 0 22 -3t14 -3q3 0 10.5 -1t16 -4t14.5 -8.5t6 -14.5q0 -20 -14 -28t-33 -8l-67 3h-28
h-50h-22l-28 -3q-6 0 -19.5 1t-13.5 8q0 14 12.5 23t29.5 15q14 5 23.5 11t9.5 20q0 3 -2.5 15t-6 25.5t-8 24t-8.5 10.5q-3 10 -4.5 22t-4 21.5t-8 14.5t-16.5 3h-34h-11.5t-17.5 -1t-17.5 -2.5t-11.5 -4.5q-13 -6 -10.5 -17.5t2.5 -24.5q-3 -4 -9 -15.5t-11.5 -24.5
t-9.5 -24t-4 -14q0 -12 6.5 -17t14.5 -9.5t14.5 -12.5t6.5 -27q0 -6 -4 -9.5t-9.5 -5t-11 -2t-8.5 -0.5q0 -3 -2 -4t-5.5 -1t-9.5 5h-10.5t-13.5 1l-18 2q-13 0 -21 -3t-21 -3q-14 0 -20 -1.5t-8.5 -3t-3.5 -2.5t-4 -1q-5 0 -17.5 1t-25.5 3.5t-22.5 7t-9.5 10.5
q0 19 11.5 32t30.5 13l19 5q2 0 7.5 3.5t11.5 8.5t12.5 10.5t10.5 8.5q6 25 21.5 54.5t28.5 56.5q6 17 15.5 35.5t17.5 31.5q10 19 17 37t13 36.5t13 37.5t16 39q7 15 11 32.5t7.5 36t9 37.5t14.5 38q6 5 13 12t20 13h17zM347 406q-7 0 -12.5 -6t-9.5 -13.5t-6 -15t-2 -10.5
v-13.5t-1 -8t-2.5 -9.5t-4.5 -19v-8q0 -6 9 -11.5t16 -5.5h9.5t13 1t11.5 4t5 9q0 13 -7 20t-7 14v44q0 6 -3.5 17t-8.5 11zM375 770q0 15 4.5 22.5t4.5 13.5q12 15 23 30.5t24 28.5q14 19 27.5 38t27.5 34q7 0 14.5 1.5t13.5 9.5q8 0 15.5 4t15.5 4q13 0 15 -11t2 -19v-17
v-19q0 -14 -3 -22.5t-9 -16t-15 -15t-21 -19.5q-14 -14 -23.5 -27.5t-23.5 -27.5q-6 -7 -8 -13.5t-9 -14.5q-7 -12 -14 -19.5t-13 -14.5t-12 -16t-11 -22q-2 -4 -5 -11t-7.5 -14t-10.5 -12t-13 -5q-13 0 -23 8t-10 23q0 8 5 14.5t11 21.5q0 8 6.5 18.5t10.5 17.5
q0 17 5.5 25.5t5.5 21.5z" />
    <glyph glyph-name="Acircumflex" unicode="&#xc2;" horiz-adv-x="612" 
d="M359 589q22 0 33 -9.5t15.5 -24.5t6 -32.5t3.5 -33.5v-36q6 -11 15.5 -29.5t9.5 -37.5v-25q0 -3 5 -18t11.5 -33t11.5 -34.5t5 -22.5q0 -19 5 -50.5t13 -61.5t18.5 -52t22.5 -22q14 0 22 -3t14 -3q3 0 10.5 -1t16 -4t14.5 -8.5t6 -14.5q0 -20 -14 -28t-33 -8l-67 3h-28
h-50h-22l-28 -3q-6 0 -19.5 1t-13.5 8q0 14 12.5 23t29.5 15q14 5 23.5 11t9.5 20q0 3 -2.5 15t-6 25.5t-8 24t-8.5 10.5q-3 10 -4.5 22t-4 21.5t-8 14.5t-16.5 3h-34h-11.5t-17.5 -1t-17.5 -2.5t-11.5 -4.5q-13 -6 -10.5 -17.5t2.5 -24.5q-3 -4 -9 -15.5t-11.5 -24.5
t-9.5 -24t-4 -14q0 -12 6.5 -17t14.5 -9.5t14.5 -12.5t6.5 -27q0 -6 -4 -9.5t-9.5 -5t-11 -2t-8.5 -0.5q0 -3 -2 -4t-5.5 -1t-9.5 5h-10.5t-13.5 1l-18 2q-13 0 -21 -3t-21 -3q-14 0 -20 -1.5t-8.5 -3t-3.5 -2.5t-4 -1q-5 0 -17.5 1t-25.5 3.5t-22.5 7t-9.5 10.5
q0 19 11.5 32t30.5 13l19 5q2 0 7.5 3.5t11.5 8.5t12.5 10.5t10.5 8.5q6 25 21.5 54.5t28.5 56.5q6 17 15.5 35.5t17.5 31.5q10 19 17 37t13 36.5t13 37.5t16 39q7 15 11 32.5t7.5 36t9 37.5t14.5 38q6 5 13 12t20 13h17zM347 406q-7 0 -12.5 -6t-9.5 -13.5t-6 -15t-2 -10.5
v-13.5t-1 -8t-2.5 -9.5t-4.5 -19v-8q0 -6 9 -11.5t16 -5.5h9.5t13 1t11.5 4t5 9q0 13 -7 20t-7 14v44q0 6 -3.5 17t-8.5 11zM406 926q6 -5 12.5 -15.5t12.5 -20.5q7 -12 16.5 -24t18.5 -27t16 -33.5t10 -41.5l14 -22l8 -14q5 -17 8 -29.5t3 -31.5q0 -5 -1 -14.5t-4 -18.5
t-9 -15.5t-16 -6.5q-9 0 -15 6.5t-9.5 15.5t-6 17.5t-5.5 12.5q-7 9 -13.5 21t-17.5 18q-6 23 -11 39.5t-11 33.5q-5 14 -14.5 25t-21.5 22q-5 -5 -8.5 -12t-5.5 -13l-9 -20q-18 -15 -24.5 -24.5t-11 -18.5t-12.5 -19.5t-29 -26.5l-14 -13q-13 -13 -20.5 -21.5t-12.5 -15.5
t-9.5 -12t-10.5 -10h-6q-8 0 -11.5 4t-7.5 4q2 9 4 16.5t7 11.5l6 14q4 17 13 30t20 26l14 22q5 5 16 23t24.5 40t29 44.5t30.5 37.5q6 6 11 13.5t11 13.5l28 23z" />
    <glyph glyph-name="Atilde" unicode="&#xc3;" horiz-adv-x="612" 
d="M359 589q22 0 33 -9.5t15.5 -24.5t6 -32.5t3.5 -33.5v-36q6 -11 15.5 -29.5t9.5 -37.5v-25q0 -3 5 -18t11.5 -33t11.5 -34.5t5 -22.5q0 -19 5 -50.5t13 -61.5t18.5 -52t22.5 -22q14 0 22 -3t14 -3q3 0 10.5 -1t16 -4t14.5 -8.5t6 -14.5q0 -20 -14 -28t-33 -8l-67 3h-28
h-50h-22l-28 -3q-6 0 -19.5 1t-13.5 8q0 14 12.5 23t29.5 15q14 5 23.5 11t9.5 20q0 3 -2.5 15t-6 25.5t-8 24t-8.5 10.5q-3 10 -4.5 22t-4 21.5t-8 14.5t-16.5 3h-34h-11.5t-17.5 -1t-17.5 -2.5t-11.5 -4.5q-13 -6 -10.5 -17.5t2.5 -24.5q-3 -4 -9 -15.5t-11.5 -24.5
t-9.5 -24t-4 -14q0 -12 6.5 -17t14.5 -9.5t14.5 -12.5t6.5 -27q0 -6 -4 -9.5t-9.5 -5t-11 -2t-8.5 -0.5q0 -3 -2 -4t-5.5 -1t-9.5 5h-10.5t-13.5 1l-18 2q-13 0 -21 -3t-21 -3q-14 0 -20 -1.5t-8.5 -3t-3.5 -2.5t-4 -1q-5 0 -17.5 1t-25.5 3.5t-22.5 7t-9.5 10.5
q0 19 11.5 32t30.5 13l19 5q2 0 7.5 3.5t11.5 8.5t12.5 10.5t10.5 8.5q6 25 21.5 54.5t28.5 56.5q6 17 15.5 35.5t17.5 31.5q10 19 17 37t13 36.5t13 37.5t16 39q7 15 11 32.5t7.5 36t9 37.5t14.5 38q6 5 13 12t20 13h17zM347 406q-7 0 -12.5 -6t-9.5 -13.5t-6 -15t-2 -10.5
v-13.5t-1 -8t-2.5 -9.5t-4.5 -19v-8q0 -6 9 -11.5t16 -5.5h9.5t13 1t11.5 4t5 9q0 13 -7 20t-7 14v44q0 6 -3.5 17t-8.5 11zM158 620q0 13 3 21t3 21q0 19 9 33t22 22q4 0 8.5 0.5t10.5 5.5q8 6 14 12.5t14 6.5q14 0 24.5 -1t25.5 -7q4 0 9.5 -0.5t7.5 -2.5q8 0 18 -4.5
t20 -9.5q13 -8 30.5 -19.5t28.5 -16.5q17 -6 37 -10t32 -4q7 0 14 0.5t11 2.5q11 6 13 17t7 22q4 4 0.5 16t-3.5 23q0 4 -2.5 6t-2.5 13q0 13 10.5 20.5t25.5 7.5q21 0 30 -11q11 -5 16 -8.5t9 -8.5q5 -6 5.5 -14t0.5 -19q0 -43 -31 -72q-4 -5 -8 -12t-8 -13
q-21 -13 -50 -25t-56 -12q-20 0 -37.5 6t-34 14t-33 17t-34.5 14q-8 0 -18 2.5t-21 2.5q-21 0 -40 -6t-38 -27q-8 -2 -11 -9.5t-11 -7.5h-20v14z" />
    <glyph glyph-name="Adieresis" unicode="&#xc4;" horiz-adv-x="612" 
d="M359 589q22 0 33 -9.5t15.5 -24.5t6 -32.5t3.5 -33.5v-36q6 -11 15.5 -29.5t9.5 -37.5v-25q0 -3 5 -18t11.5 -33t11.5 -34.5t5 -22.5q0 -19 5 -50.5t13 -61.5t18.5 -52t22.5 -22q14 0 22 -3t14 -3q3 0 10.5 -1t16 -4t14.5 -8.5t6 -14.5q0 -20 -14 -28t-33 -8l-67 3h-28
h-50h-22l-28 -3q-6 0 -19.5 1t-13.5 8q0 14 12.5 23t29.5 15q14 5 23.5 11t9.5 20q0 3 -2.5 15t-6 25.5t-8 24t-8.5 10.5q-3 10 -4.5 22t-4 21.5t-8 14.5t-16.5 3h-34h-11.5t-17.5 -1t-17.5 -2.5t-11.5 -4.5q-13 -6 -10.5 -17.5t2.5 -24.5q-3 -4 -9 -15.5t-11.5 -24.5
t-9.5 -24t-4 -14q0 -12 6.5 -17t14.5 -9.5t14.5 -12.5t6.5 -27q0 -6 -4 -9.5t-9.5 -5t-11 -2t-8.5 -0.5q0 -3 -2 -4t-5.5 -1t-9.5 5h-10.5t-13.5 1l-18 2q-13 0 -21 -3t-21 -3q-14 0 -20 -1.5t-8.5 -3t-3.5 -2.5t-4 -1q-5 0 -17.5 1t-25.5 3.5t-22.5 7t-9.5 10.5
q0 19 11.5 32t30.5 13l19 5q2 0 7.5 3.5t11.5 8.5t12.5 10.5t10.5 8.5q6 25 21.5 54.5t28.5 56.5q6 17 15.5 35.5t17.5 31.5q10 19 17 37t13 36.5t13 37.5t16 39q7 15 11 32.5t7.5 36t9 37.5t14.5 38q6 5 13 12t20 13h17zM347 406q-7 0 -12.5 -6t-9.5 -13.5t-6 -15t-2 -10.5
v-13.5t-1 -8t-2.5 -9.5t-4.5 -19v-8q0 -6 9 -11.5t16 -5.5h9.5t13 1t11.5 4t5 9q0 13 -7 20t-7 14v44q0 6 -3.5 17t-8.5 11zM114 709q1 11 8 18.5t16.5 12t21.5 7.5t23 6q7 3 12.5 9.5t10.5 13t10.5 11.5t14.5 5q12 0 16.5 -14t11.5 -25q6 -12 13.5 -21.5t14.5 -19t11.5 -20
t4.5 -25.5q0 -6 -5 -10t-12 -7.5t-14.5 -7t-12.5 -8.5q-6 -6 -9.5 -12.5t-6.5 -11t-7.5 -7.5t-13.5 -3q-11 0 -18 5.5t-13 13t-13 16t-17 13.5q-8 5 -16.5 15t-15.5 19.5t-11 17.5t-4 9zM398 737q14 14 29 23.5t34 20.5q5 2 8 6.5t6 8.5t6 7t8 3q9 0 14.5 -6t9.5 -14.5
t8 -18t10 -16.5q6 -9 14 -14t14.5 -10.5t11 -12t4.5 -16.5q0 -9 -5.5 -15.5t-13 -12t-15.5 -11.5t-13 -14q-6 -11 -13 -19.5t-20 -8.5t-18 8t-16 14q-8 7 -16.5 9.5t-16.5 13.5q-8 14 -12 19.5t-18 13.5q-7 5 -15 7t-8 12q0 9 8 12t15 11z" />
    <glyph glyph-name="Aring" unicode="&#xc5;" horiz-adv-x="612" 
d="M353 795q17 6 40.5 4t40.5 -4q11 0 22.5 -11t16.5 -20q3 -4 5 -12.5t3.5 -17.5t2 -16t0.5 -9q0 -57 -16 -94.5t-62 -58.5q6 -14 7.5 -32t3.5 -35v-36q6 -11 15.5 -29.5t9.5 -37.5v-25q0 -3 5 -18t11.5 -33t11.5 -34.5t5 -22.5q0 -19 5 -50.5t13 -61.5t18.5 -52t22.5 -22
q14 0 22 -3t14 -3q3 0 10.5 -1t16 -4t14.5 -8.5t6 -14.5q0 -20 -14 -28t-33 -8l-67 3h-100l-28 -3q-6 0 -19.5 1t-13.5 8q0 14 12.5 23t29.5 15q14 5 23.5 11t9.5 20q0 3 -2.5 15t-6 25.5t-8 24t-8.5 10.5q-3 10 -4.5 22t-4 21.5t-8 14.5t-16.5 3h-34h-11.5t-17.5 -1
t-17.5 -2.5t-11.5 -4.5q-13 -6 -10.5 -17.5t2.5 -24.5q-3 -4 -9 -15.5t-11.5 -24.5t-9.5 -24t-4 -14q0 -12 6.5 -17t14.5 -9.5t14.5 -12.5t6.5 -27q0 -6 -4 -9.5t-9.5 -5t-11 -2t-8.5 -0.5q0 -3 -2 -4t-5.5 -1t-9.5 5h-10.5t-13.5 1l-18 2q-13 0 -21 -3t-21 -3
q-14 0 -20 -1.5t-8.5 -3t-3.5 -2.5t-4 -1q-5 0 -17.5 1t-25.5 3.5t-22.5 7t-9.5 10.5q0 19 11.5 32t30.5 13l19 5q2 0 7.5 3.5t11.5 8.5t12.5 10.5t10.5 8.5q6 25 21.5 54.5t28.5 56.5q6 17 15.5 35.5t17.5 31.5q10 19 17 37t13 36.5t13 37.5t16 39q13 27 17 60.5t16 67.5
q-4 4 -8 10.5t-8 8.5q-11 5 -16.5 15t-8 21t-3 22.5t-0.5 19.5q0 31 14 61q17 32 37.5 52t45.5 37zM350 731q-8 -3 -11.5 -6t-5 -7t-2 -8t-3.5 -9q0 -1 -0.5 -5t-1 -9l-1 -10t-0.5 -7q0 -6 0.5 -8.5t0.5 -4v-4t-1 -8.5q0 -6 5 -12.5t9 -12.5q5 -6 14 -11.5t20 -5.5
q6 0 14.5 5t12.5 9q19 21 20 50.5t-22 55.5q-5 6 -10 7t-7 1q-5 2 -15.5 3.5t-15.5 -3.5zM347 406q-7 0 -12.5 -6t-9.5 -13.5t-6 -15t-2 -10.5v-13.5t-1 -8t-2.5 -9.5t-4.5 -19v-8q0 -6 9 -11.5t16 -5.5h9.5t13 1t11.5 4t5 9q0 13 -7 20t-7 14v44q0 6 -3.5 17t-8.5 11z" />
    <glyph glyph-name="AE" unicode="&#xc6;" horiz-adv-x="906" 
d="M537 600q9 2 17 -5.5t13 -17.5q6 -11 11 -27l56 -2q7 0 13.5 -0.5t14.5 -1t19 -1t28 -0.5l39 5q8 2 15 4q6 2 12 3.5t9 1.5q6 0 16.5 -5.5t16.5 -11.5q8 -13 8 -30.5t6 -30.5q3 -3 7 -11.5t7 -16.5l8 -22q0 -8 -4.5 -14t-17.5 -6q-7 0 -19.5 10.5t-31 23t-44.5 23
t-60 10.5l-53 -5q-7 -7 -7 -11t-2 -9q2 -23 2 -42t-4 -44q0 -11 -0.5 -23t-2.5 -19q2 -14 15 -22t24 -8q3 0 11.5 -0.5t17.5 -1.5q11 -1 24 -1l16 8q9 0 16 4t13 8.5t11 8.5t10 4q4 0 8.5 -5.5t9.5 -11.5q5 -7 10 -16v-58q0 -31 -28 -31q-8 0 -16.5 4.5t-16.5 9.5
q-8 6 -16.5 11.5t-16.5 5.5h-45q-14 0 -24.5 -3t-17.5 -11v-25q-2 -23 0.5 -36.5t2.5 -36.5q0 -4 -2.5 -10.5t-2.5 -11.5q4 -11 10.5 -17t19.5 -8h75q17 0 33.5 5t33.5 12q14 6 29.5 12.5t26.5 6.5q5 -2 9 -5q4 -2 7 -5t3 -6q0 -7 -6.5 -13t-12.5 -13q-13 -14 -21.5 -29
t-17.5 -27.5t-20 -21t-28 -8.5q-12 0 -23 7t-32 7q-15 0 -27.5 4.5t-25.5 4.5q-11 0 -18 -4.5t-18 -4.5t-18.5 3t-20.5 3l-45 -6h-64q-17 0 -26.5 12t-9.5 24q2 21 21 33t38 12q6 0 10.5 -0.5t8.5 -2.5q0 2 3.5 4t7.5 4t7.5 3.5t3.5 2.5q0 6 -1 18t7 26q0 5 1.5 11.5
t1.5 11.5q0 7 -1.5 12l-3 10t-3 12t-1.5 18q2 12 -8 16.5t-25.5 5t-32.5 -0.5t-28 -1q-16 0 -25.5 -5.5t-16.5 -14.5t-13.5 -20t-16.5 -21q-18 -29 -41 -65t-52 -67.5t-63.5 -52.5t-74.5 -21q-21 0 -40 7t-33 19.5t-21.5 30.5t-5.5 40q4 29 21 48t48 19q13 0 22 -7.5t17 -16
t16.5 -16t22.5 -7.5q8 0 16 5.5t15.5 13t14.5 15.5t13 13q10 13 17 21.5t13 16.5t12.5 17.5t15.5 25.5q19 35 44 68t42 68q12 26 18.5 42.5t12.5 30.5t13.5 29.5t22.5 39.5q6 11 7.5 15.5t1.5 7.5t1 7.5t6 16.5q13 25 35 44t41 25zM528 484q-5 2 -9 -5.5t-8 -19.5
t-9.5 -25.5t-12.5 -22.5q-8 -18 -14.5 -30t-11.5 -22.5t-8.5 -22t-6.5 -27.5q-5 -9 1.5 -11.5t14.5 -2.5q11 0 17 1t17 1q15 1 21 12t8 24q2 15 -2 34q1 8 1 13v9.5t-0.5 10t-0.5 14.5q1 9 3 21t3.5 22.5t1 18t-4.5 8.5z" />
    <glyph glyph-name="Ccedilla" unicode="&#xc7;" horiz-adv-x="389" 
d="M328 575q15 0 22.5 -6.5t11.5 -16.5t4.5 -20.5t0.5 -17.5v-19q-6 -23 -20.5 -42t-37.5 -19q-15 0 -32 9.5t-38 9.5q-22 0 -43 -15.5t-38 -36.5t-27.5 -42.5t-10.5 -33.5v-28v-38q0 -12 4 -41t13 -59.5t23.5 -54t36.5 -23.5l20 8q23 0 43 5.5t37 22.5q22 26 42 41
q6 5 14 7t14 2q2 -2 5 -6q6 -8 6 -14q0 -22 -16 -50.5t-38.5 -54t-46 -43.5t-38.5 -18h-8q-14 -3 -26 -6q-11 -2 -21 -4t-14 -2q-8 0 -22.5 7t-30.5 16.5t-29 20t-16 18.5q-4 3 -10.5 19.5t-13 37t-11 40.5t-4.5 30v31q-3 6 -6 11q-5 10 -5 17q2 12 5 23q2 9 4 19t2 16v22
q0 3 -2 7.5t-4 9.5q-3 5 -5 11l11 31v19q8 17 15 31q6 12 12.5 23t11.5 16q3 19 15 34t28.5 28t35.5 24l38 22q11 2 22 5q8 2 16.5 4t11.5 2h20h38zM97 -81q0 13 16 22.5t29 22.5q6 6 13.5 7t14.5 1q6 8 8 14t8 6q13 0 26 -1t22 -8q4 0 6 -6.5t10 -12.5q7 -6 13.5 -14
t6.5 -22q0 -27 -8.5 -50t-27.5 -50q-9 -7 -16 -10t-15 -15q-5 -15 -17 -19.5t-25 -17.5q-7 -7 -11.5 -11t-9 -6.5t-10.5 -4.5t-16 -5h-9t-12 1t-10.5 2.5t-4.5 4.5q0 10 6 17.5t15.5 13.5t20.5 11.5t22 13.5q6 6 8.5 17t10.5 19q13 12 19 20t6 16q0 13 -5 16t-11 9
q-7 8 -14.5 13.5t-13.5 5.5q-3 0 -5.5 -3t-5 -6.5t-6.5 -6.5t-11 -3q-6 0 -11.5 6.5t-5.5 12.5z" />
    <glyph glyph-name="Egrave" unicode="&#xc8;" horiz-adv-x="486" 
d="M236 553q6 0 11.5 -1t13 -1.5t18 -1.5t27.5 -1l33 8q8 2 15 4q6 2 12 3t9 1q7 0 17.5 -5t18.5 -11q7 -13 9 -31t8 -31q3 -3 7 -11.5t8 -16.5q4 -11 10 -22q0 -19 -25 -19q-6 0 -18 9.5t-31 21t-45 21t-62 9.5l-19 -5q-6 -9 -11.5 -15t-5.5 -10v-9q-2 -8 -4 -15
q-2 -6 -3 -12t-1 -9v-72q0 -15 6 -28.5t19 -13.5q3 0 10 1t15 3q9 2 19 4h20q8 0 14.5 4t12.5 8.5t11.5 8.5t11.5 4q3 0 7 -4t8 -9l10 -12v-66q0 -28 -25 -28q-11 0 -19 4.5t-14 9.5q-11 4 -18.5 9t-18.5 5h-16h-20q-25 0 -32 -9t-7 -36v-25q3 -14 4 -28t3.5 -26t9.5 -20.5
t22 -11.5h56q14 0 30.5 5.5t33.5 14.5q17 6 31.5 11t26.5 5q4 -3 8 -7l6 -6t3 -6q0 -7 -5 -13t-12 -12q-14 -13 -20 -26.5t-11.5 -25t-13.5 -19t-24 -7.5q-6 0 -11 1.5t-10.5 4t-13 4t-18.5 1.5l-97 -3l-34 -8h-53h-30l-20 -6l-30 -2q-5 0 -11 4t-11 9.5t-8.5 11t-3.5 8.5
q0 25 37 25q8 3 16 7q15 7 25 10q21 4 28.5 13t7.5 42q0 5 3.5 10.5t-3.5 11.5q0 5 -1 10.5t-3 10.5q-2 6 -4 13v19v36v25l8 70v17q0 6 1.5 8t1.5 8v53v28v30q0 9 -10 14.5t-15 5.5h-28q-19 0 -27.5 16t-8.5 37q0 6 5.5 11t11.5 5h33h20q6 0 18.5 1.5t31.5 1.5h69zM120 945
q4 -8 11.5 -19t18.5 -17q11 -8 21 -19.5t18 -22.5q38 -41 61 -77q3 -1 7 -6.5t8 -11.5t8 -11t8 -5q3 -8 9 -17t12.5 -18.5t11.5 -20t6 -22.5q6 -2 6.5 -6.5t7.5 -4.5q4 -6 0 -13.5t-6 -14.5q-2 -11 -15.5 -19t-26.5 -6q-6 1 -15 9.5t-18 19.5t-17 21t-11 14q-8 11 -16.5 18
t-16.5 21q-13 17 -21.5 37.5t-23.5 46.5q-1 9 -7 25t-14 33t-16.5 34.5t-14.5 29.5q-7 17 2.5 23.5t22.5 -1.5z" />
    <glyph glyph-name="Eacute" unicode="&#xc9;" horiz-adv-x="486" 
d="M236 553q6 0 11.5 -1t13 -1.5t18 -1.5t27.5 -1l33 8q8 2 15 4q6 2 12 3t9 1q7 0 17.5 -5t18.5 -11q7 -13 9 -31t8 -31q3 -3 7 -11.5t8 -16.5q4 -11 10 -22q0 -19 -25 -19q-6 0 -18 9.5t-31 21t-45 21t-62 9.5l-19 -5q-6 -9 -11.5 -15t-5.5 -10v-9q-2 -8 -4 -15
q-2 -6 -3 -12t-1 -9v-72q0 -15 6 -28.5t19 -13.5q3 0 10 1t15 3q9 2 19 4h20q8 0 14.5 4t12.5 8.5t11.5 8.5t11.5 4q3 0 7 -4t8 -9l10 -12v-66q0 -28 -25 -28q-11 0 -19 4.5t-14 9.5q-11 4 -18.5 9t-18.5 5h-16h-20q-25 0 -32 -9t-7 -36v-25q3 -14 4 -28t3.5 -26t9.5 -20.5
t22 -11.5h56q14 0 30.5 5.5t33.5 14.5q17 6 31.5 11t26.5 5q4 -3 8 -7l6 -6t3 -6q0 -7 -5 -13t-12 -12q-14 -13 -20 -26.5t-11.5 -25t-13.5 -19t-24 -7.5q-6 0 -11 1.5t-10.5 4t-13 4t-18.5 1.5l-97 -3l-34 -8h-53h-30l-20 -6l-30 -2q-5 0 -11 4t-11 9.5t-8.5 11t-3.5 8.5
q0 25 37 25q8 3 16 7q15 7 25 10q21 4 28.5 13t7.5 42q0 5 3.5 10.5t-3.5 11.5q0 5 -1 10.5t-3 10.5q-2 6 -4 13v19v36v25l8 70v17q0 6 1.5 8t1.5 8v53v28v30q0 9 -10 14.5t-15 5.5h-28q-19 0 -27.5 16t-8.5 37q0 6 5.5 11t11.5 5h33h20q6 0 18.5 1.5t31.5 1.5h69zM278 770
q0 15 4 22.5t4 13.5q13 15 24 30.5t24 28.5q14 19 27.5 38t27.5 34q7 0 14.5 1.5t13.5 9.5q8 0 15 4t16 4q12 0 14 -11t2 -19v-17v-19q0 -14 -3 -22.5t-9 -16t-14.5 -15t-20.5 -19.5q-14 -14 -23.5 -27.5t-23.5 -27.5q-7 -7 -9 -13.5t-8 -14.5q-7 -12 -14 -19.5t-13 -14.5
t-12 -16t-11 -22l-5.5 -11t-8 -14t-10 -12t-12.5 -5q-13 0 -23 8t-10 23q0 8 5 14.5t11 21.5q0 8 6 18.5t11 17.5q0 17 5.5 25.5t5.5 21.5z" />
    <glyph glyph-name="Ecircumflex" unicode="&#xca;" horiz-adv-x="486" 
d="M236 553q6 0 11.5 -1t13 -1.5t18 -1.5t27.5 -1l33 8q8 2 15 4q6 2 12 3t9 1q7 0 17.5 -5t18.5 -11q7 -13 9 -31t8 -31q3 -3 7 -11.5t8 -16.5q4 -11 10 -22q0 -19 -25 -19q-6 0 -18 9.5t-31 21t-45 21t-62 9.5l-19 -5q-6 -9 -11.5 -15t-5.5 -10v-9q-2 -8 -4 -15
q-2 -6 -3 -12t-1 -9v-72q0 -15 6 -28.5t19 -13.5q3 0 10 1t15 3q9 2 19 4h20q8 0 14.5 4t12.5 8.5t11.5 8.5t11.5 4q3 0 7 -4t8 -9l10 -12v-66q0 -28 -25 -28q-11 0 -19 4.5t-14 9.5q-11 4 -18.5 9t-18.5 5h-16h-20q-25 0 -32 -9t-7 -36v-25q3 -14 4 -28t3.5 -26t9.5 -20.5
t22 -11.5h56q14 0 30.5 5.5t33.5 14.5q17 6 31.5 11t26.5 5q4 -3 8 -7l6 -6t3 -6q0 -7 -5 -13t-12 -12q-14 -13 -20 -26.5t-11.5 -25t-13.5 -19t-24 -7.5q-6 0 -11 1.5t-10.5 4t-13 4t-18.5 1.5l-97 -3l-34 -8h-53h-30l-20 -6l-30 -2q-5 0 -11 4t-11 9.5t-8.5 11t-3.5 8.5
q0 25 37 25q8 3 16 7q15 7 25 10q21 4 28.5 13t7.5 42q0 5 3.5 10.5t-3.5 11.5q0 5 -1 10.5t-3 10.5q-2 6 -4 13v19v36v25l8 70v17q0 6 1.5 8t1.5 8v53v28v30q0 9 -10 14.5t-15 5.5h-28q-19 0 -27.5 16t-8.5 37q0 6 5.5 11t11.5 5h33h20q6 0 18.5 1.5t31.5 1.5h69zM334 926
q6 -5 12 -15.5t13 -20.5q7 -12 16 -24t18 -27t16.5 -33.5t10.5 -41.5l14 -22l8 -14q5 -17 8 -29.5t3 -31.5q0 -5 -1 -14.5t-4 -18.5t-9 -15.5t-16 -6.5q-9 0 -15 6.5t-9.5 15.5t-6.5 17.5t-6 12.5q-6 9 -12.5 21t-17.5 18q-7 23 -11.5 39.5t-10.5 33.5q-5 14 -14.5 25
t-22.5 22q-4 -5 -7.5 -12t-5.5 -13l-9 -20q-18 -15 -24.5 -24.5t-11.5 -18.5t-13 -19.5t-29 -26.5l-14 -13q-12 -13 -19.5 -21.5t-13 -15.5t-9.5 -12t-10 -10h-6q-8 0 -11.5 4t-7.5 4q2 9 4 16.5t7 11.5l5 14q5 17 14 30t20 26l14 22q5 5 15.5 23t24.5 40t29.5 44.5
t30.5 37.5q6 6 11 13.5t11 13.5l28 23z" />
    <glyph glyph-name="Edieresis" unicode="&#xcb;" horiz-adv-x="486" 
d="M236 553q6 0 11.5 -1t13 -1.5t18 -1.5t27.5 -1l33 8q8 2 15 4q6 2 12 3t9 1q7 0 17.5 -5t18.5 -11q7 -13 9 -31t8 -31q3 -3 7 -11.5t8 -16.5q4 -11 10 -22q0 -19 -25 -19q-6 0 -18 9.5t-31 21t-45 21t-62 9.5l-19 -5q-6 -9 -11.5 -15t-5.5 -10v-9q-2 -8 -4 -15
q-2 -6 -3 -12t-1 -9v-72q0 -15 6 -28.5t19 -13.5q3 0 10 1t15 3q9 2 19 4h20q8 0 14.5 4t12.5 8.5t11.5 8.5t11.5 4q3 0 7 -4t8 -9l10 -12v-66q0 -28 -25 -28q-11 0 -19 4.5t-14 9.5q-11 4 -18.5 9t-18.5 5h-16h-20q-25 0 -32 -9t-7 -36v-25q3 -14 4 -28t3.5 -26t9.5 -20.5
t22 -11.5h56q14 0 30.5 5.5t33.5 14.5q17 6 31.5 11t26.5 5q4 -3 8 -7l6 -6t3 -6q0 -7 -5 -13t-12 -12q-14 -13 -20 -26.5t-11.5 -25t-13.5 -19t-24 -7.5q-6 0 -11 1.5t-10.5 4t-13 4t-18.5 1.5l-97 -3l-34 -8h-53h-30l-20 -6l-30 -2q-5 0 -11 4t-11 9.5t-8.5 11t-3.5 8.5
q0 25 37 25q8 3 16 7q15 7 25 10q21 4 28.5 13t7.5 42q0 5 3.5 10.5t-3.5 11.5q0 5 -1 10.5t-3 10.5q-2 6 -4 13v19v36v25l8 70v17q0 6 1.5 8t1.5 8v53v28v30q0 9 -10 14.5t-15 5.5h-28q-19 0 -27.5 16t-8.5 37q0 6 5.5 11t11.5 5h33h20q6 0 18.5 1.5t31.5 1.5h69zM36 709
q1 11 8 18.5t16.5 12t21.5 7.5l24 6q7 3 12 9.5l10 13t11 11.5t14 5q6 0 10 -4t7 -10t5.5 -13t5.5 -12q6 -12 13.5 -21.5t14.5 -19t11.5 -20t4.5 -25.5q0 -6 -5 -10t-12 -7.5t-14.5 -7t-12.5 -8.5q-6 -6 -9.5 -12.5t-6.5 -11t-7.5 -7.5t-12.5 -3q-12 0 -19 5.5t-13 13
t-13 16t-17 13.5q-8 5 -16.5 15t-15.5 19.5t-11 17.5t-4 9zM320 737q14 14 29.5 23.5t34.5 20.5q5 2 8 6.5t5.5 8.5t5.5 7t8 3q9 0 14.5 -6t9.5 -14.5t8 -18t10 -16.5q6 -9 14 -14t15 -10.5t11.5 -12t4.5 -16.5q0 -9 -5.5 -15.5t-13 -12t-16 -11.5t-13.5 -14
q-6 -11 -13 -19.5t-20 -8.5t-17.5 8t-15.5 14q-8 7 -17 9.5t-17 13.5q-8 14 -12 19.5t-18 13.5q-7 5 -15 7t-8 12q0 9 8 12t15 11z" />
    <glyph glyph-name="Igrave" unicode="&#xcc;" horiz-adv-x="292" 
d="M195 564q3 0 10 -1.5t15 -3t15.5 -2.5t11.5 -1q2 0 7 -4t9.5 -10t8 -13.5t3.5 -14.5q0 -4 -12 -7t-27 -6t-27 -7t-12 -10v-70q2 -8 5 -15l4 -12t2 -9l-11 -47q0 -3 1.5 -11t4 -17t4 -17t1.5 -11l9 -50q0 -21 -4.5 -39t-4.5 -25v-28q0 -6 -5.5 -10.5t-5.5 -25.5
q0 -4 3 -9.5t7.5 -10t9.5 -7.5t8 -3l22 -6q28 -13 28 -42q0 -12 -16.5 -19.5t-33.5 -7.5h-17h-19h-19l-37 11q-6 0 -17 -3t-23 -7t-22 -7t-13 -3q-6 0 -16.5 6.5t-10.5 13.5q0 11 11.5 19.5t25 17t23 18.5t6.5 25q-8 15 -4 22.5t4 14.5v27v67v145l-11 27q2 11 5 21
q2 8 4 15.5t2 11.5q0 20 -3 31.5t-8 18.5q-5 5 -11 6.5t-12.5 2t-13.5 1.5t-13 4q-6 4 -10 13t-4 28q0 4 1 8q1 3 2.5 6t5.5 3h19h36q4 0 9.5 -1t10.5 -3t11 -4q6 0 15 1t17 3q10 2 21 4h11q4 0 10 4zM-11 945q4 -8 12 -19t18 -17q11 -8 21 -19.5t18 -22.5q36 -39 62 -77
q3 -1 6.5 -6.5t7.5 -11.5t8 -11t8 -5q3 -8 9 -17t12.5 -18.5t11.5 -20t6 -22.5q6 -2 7 -6.5t7 -4.5q4 -6 0 -13.5t-6 -14.5q-2 -11 -15.5 -19t-25.5 -6q-6 1 -15.5 9.5t-18.5 19.5t-16.5 21l-10.5 14q-9 11 -17.5 18t-16.5 21q-13 17 -21.5 37.5t-22.5 46.5q-1 9 -7 25
t-14 33t-17 34.5t-15 29.5q-6 17 3 23.5t22 -1.5z" />
    <glyph glyph-name="Iacute" unicode="&#xcd;" horiz-adv-x="292" 
d="M195 564q3 0 10 -1.5t15 -3t15.5 -2.5t11.5 -1q2 0 7 -4t9.5 -10t8 -13.5t3.5 -14.5q0 -4 -12 -7t-27 -6t-27 -7t-12 -10v-70q2 -8 5 -15l4 -12t2 -9l-11 -47q0 -3 1.5 -11t4 -17t4 -17t1.5 -11l9 -50q0 -21 -4.5 -39t-4.5 -25v-28q0 -6 -5.5 -10.5t-5.5 -25.5
q0 -4 3 -9.5t7.5 -10t9.5 -7.5t8 -3l22 -6q28 -13 28 -42q0 -12 -16.5 -19.5t-33.5 -7.5h-17h-19h-19l-37 11q-6 0 -17 -3t-23 -7t-22 -7t-13 -3q-6 0 -16.5 6.5t-10.5 13.5q0 11 11.5 19.5t25 17t23 18.5t6.5 25q-8 15 -4 22.5t4 14.5v27v67v145l-11 27q2 11 5 21
q2 8 4 15.5t2 11.5q0 20 -3 31.5t-8 18.5q-5 5 -11 6.5t-12.5 2t-13.5 1.5t-13 4q-6 4 -10 13t-4 28q0 4 1 8q1 3 2.5 6t5.5 3h19h36q4 0 9.5 -1t10.5 -3t11 -4q6 0 15 1t17 3q10 2 21 4h11q4 0 10 4zM136 770q0 15 4.5 22.5t4.5 13.5q12 15 23 30.5t24 28.5q14 19 27.5 38
t27.5 34q7 0 14.5 1.5t13.5 9.5q8 0 15.5 4t15.5 4q12 0 14 -11t2 -19v-17v-19q0 -14 -3 -22.5t-9 -16t-14.5 -15t-20.5 -19.5q-14 -14 -23.5 -27.5t-23.5 -27.5q-6 -7 -8 -13.5t-9 -14.5q-7 -12 -14 -19.5t-13 -14.5t-12 -16t-11 -22q-2 -4 -5 -11t-7.5 -14t-10.5 -12
t-13 -5q-13 0 -23 8t-10 23q0 8 5 14.5t11 21.5q0 8 6.5 18.5t10.5 17.5q0 17 5.5 25.5t5.5 21.5z" />
    <glyph glyph-name="Icircumflex" unicode="&#xce;" horiz-adv-x="292" 
d="M195 564q3 0 10 -1.5t15 -3t15.5 -2.5t11.5 -1q2 0 7 -4t9.5 -10t8 -13.5t3.5 -14.5q0 -4 -12 -7t-27 -6t-27 -7t-12 -10v-70q2 -8 5 -15l4 -12t2 -9l-11 -47q0 -3 1.5 -11t4 -17t4 -17t1.5 -11l9 -50q0 -21 -4.5 -39t-4.5 -25v-28q0 -6 -5.5 -10.5t-5.5 -25.5
q0 -4 3 -9.5t7.5 -10t9.5 -7.5t8 -3l22 -6q28 -13 28 -42q0 -12 -16.5 -19.5t-33.5 -7.5h-17h-19h-19l-37 11q-6 0 -17 -3t-23 -7t-22 -7t-13 -3q-6 0 -16.5 6.5t-10.5 13.5q0 11 11.5 19.5t25 17t23 18.5t6.5 25q-8 15 -4 22.5t4 14.5v27v67v145l-11 27q2 11 5 21
q2 8 4 15.5t2 11.5q0 20 -3 31.5t-8 18.5q-5 5 -11 6.5t-12.5 2t-13.5 1.5t-13 4q-6 4 -10 13t-4 28q0 4 1 8q1 3 2.5 6t5.5 3h19h36q4 0 9.5 -1t10.5 -3t11 -4q6 0 15 1t17 3q10 2 21 4h11q4 0 10 4zM206 926q6 -5 12 -15.5t13 -20.5q7 -12 16.5 -24t18.5 -27t16 -33.5
t10 -41.5l14 -22l8 -14q5 -17 8 -29.5t3 -31.5q0 -5 -1 -14.5t-4 -18.5t-9 -15.5t-16 -6.5q-9 0 -15 6.5t-9.5 15.5t-6 17.5t-5.5 12.5q-7 9 -13.5 21t-17.5 18q-6 23 -11 39.5t-11 33.5q-5 14 -14.5 25t-21.5 22q-5 -5 -8.5 -12t-5.5 -13l-9 -20q-18 -15 -24.5 -24.5
t-11.5 -18.5t-13 -19.5t-29 -26.5l-13 -13q-13 -13 -20.5 -21.5t-13 -15.5t-9.5 -12t-10 -10h-6q-8 0 -11.5 4t-7.5 4q2 9 4 16.5t7 11.5l5 14q5 17 14 30t20 26l14 22q5 5 16 23t24.5 40t29 44.5t30.5 37.5q6 6 11 13.5t11 13.5l28 23z" />
    <glyph glyph-name="Idieresis" unicode="&#xcf;" horiz-adv-x="292" 
d="M195 564q3 0 10 -1.5t15 -3t15.5 -2.5t11.5 -1q2 0 7 -4t9.5 -10t8 -13.5t3.5 -14.5q0 -4 -12 -7t-27 -6t-27 -7t-12 -10v-70q2 -8 5 -15l4 -12t2 -9l-11 -47q0 -3 1.5 -11t4 -17t4 -17t1.5 -11l9 -50q0 -21 -4.5 -39t-4.5 -25v-28q0 -6 -5.5 -10.5t-5.5 -25.5
q0 -4 3 -9.5t7.5 -10t9.5 -7.5t8 -3l22 -6q28 -13 28 -42q0 -12 -16.5 -19.5t-33.5 -7.5h-17h-19h-19l-37 11q-6 0 -17 -3t-23 -7t-22 -7t-13 -3q-6 0 -16.5 6.5t-10.5 13.5q0 11 11.5 19.5t25 17t23 18.5t6.5 25q-8 15 -4 22.5t4 14.5v27v67v145l-11 27q2 11 5 21
q2 8 4 15.5t2 11.5q0 20 -3 31.5t-8 18.5q-5 5 -11 6.5t-12.5 2t-13.5 1.5t-13 4q-6 4 -10 13t-4 28q0 4 1 8q1 3 2.5 6t5.5 3h19h36q4 0 9.5 -1t10.5 -3t11 -4q6 0 15 1t17 3q10 2 21 4h11q4 0 10 4zM-81 709q1 11 8 18.5t16.5 12t21.5 7.5l24 6q7 3 12 9.5l10 13t11 11.5
t14 5q6 0 10 -4t7 -10t5.5 -13t5.5 -12q6 -12 14 -21.5t14.5 -19t11 -20t4.5 -25.5q0 -6 -5 -10t-12 -7.5t-14.5 -7t-12.5 -8.5q-6 -6 -9.5 -12.5t-6.5 -11t-7.5 -7.5t-12.5 -3q-12 0 -19 5.5t-13 13t-12.5 16t-16.5 13.5q-9 5 -17.5 15t-15 19.5t-11 17.5t-4.5 9zM203 737
q14 14 29.5 23.5t34.5 20.5q5 2 8 6.5t6 8.5t6 7t8 3q9 0 14.5 -6t9.5 -14.5t7.5 -18t9.5 -16.5q6 -9 14 -14t15 -10.5t11.5 -12t4.5 -16.5q0 -9 -5.5 -15.5t-13 -12t-15.5 -11.5t-13 -14q-7 -11 -14 -19.5t-20 -8.5q-12 0 -17 8t-16 14q-8 7 -16.5 9.5t-16.5 13.5
q-9 14 -13 19.5t-18 13.5q-6 5 -14 7t-8 12q0 9 8 12t14 11z" />
    <glyph glyph-name="Eth" unicode="&#xd0;" horiz-adv-x="976" 
d="M662 550q4 0 8 -1t6 -1h72q4 0 8 1t6 1q9 0 20.5 -4t23.5 -10t23 -12t19 -10q10 -5 32 -26.5t44 -48.5t38.5 -54t16.5 -43v-17q0 -6 1 -19.5t1 -21.5q0 -5 1.5 -13.5t1.5 -23.5q-2 -4 -2.5 -9t-0.5 -7v-14q0 -11 -8.5 -31.5t-23 -43t-35 -43.5t-44.5 -32q2 1 -11 -10
t-33 -24.5t-43 -24.5t-41 -11q-1 0 -6.5 1t-12 2t-12.5 2t-8 1q-8 0 -20 -2.5t-24.5 -6t-25 -6t-21.5 -2.5q-19 0 -39 5t-39 12q-1 0 -6.5 -1t-12 -2t-11.5 -2t-6 -1l-23 3q-2 0 -9 -1.5t-13 -1.5q-19 1 -38.5 0.5t-35.5 2t-26.5 9.5t-10.5 24q0 8 13.5 15.5t34 14t44 13.5
t44 15.5t34 18.5t13.5 23v95q-4 0 -6.5 -1.5t-4.5 -1.5h-5q-8 0 -21 -1.5t-24 -1.5h-5q-2 0 -6.5 -1t-10.5 -1q-11 0 -23.5 -0.5t-26.5 5.5l-14 6q-3 4 -1.5 10.5t5.5 13t10 12t11 8.5q29 5 60 11.5t60 8.5q-2 54 -2.5 76.5t-0.5 28.5v6q0 3 -0.5 8.5t-2 11t-5 9.5t-9.5 4
q-16 0 -49.5 -7.5t-68.5 -17.5t-64 -19.5t-35 -13.5q-19 -12 -42.5 -30.5t-44.5 -40t-35 -45t-14 -45.5q0 -23 -7 -39.5t-19 -27t-27 -15.5t-30 -5h-20q-3 0 -8 4t-10 9t-8.5 11t-3.5 10q0 40 5 71t19.5 58.5t40.5 55t68 62.5q-2 -4 13.5 6t38 24t47.5 27t43 15
q27 4 55 12.5t56 16t55.5 13.5t53.5 6h16q17 0 39.5 7t41.5 9q5 0 9.5 -0.5t8.5 -0.5q4 -1 7 -1h6.5t9.5 1q5 0 12 1zM662 442q-23 0 -28 -11t-9 -36v-95l26 3h5q6 0 13 3t15 3q4 0 8 -2t9 -4q8 5 15 8t18 3q4 0 9.5 -0.5t9.5 -2.5q2 -1 3.5 -11t-1.5 -23t-12.5 -27
t-30.5 -22q-7 2 -29.5 5t-43.5 3q-14 0 -14 -10.5v-33.5q0 -1 -1 -16.5t1 -33.5t10.5 -32.5t28.5 -14.5q16 0 49.5 8t67.5 26.5t60 49.5t26 77q0 2 -3.5 12t-7.5 22.5t-7.5 25t-3.5 18.5q-3 28 -24 48.5t-49.5 33.5t-58.5 19.5t-51 6.5z" />
    <glyph glyph-name="Ntilde" unicode="&#xd1;" horiz-adv-x="817" 
d="M158 562q13 0 22 -1t17 -8q13 -8 16.5 -14.5t11.5 -13.5q7 -20 21 -24.5t26 -14.5t23.5 -24.5t23.5 -30.5t23 -31t22 -25q15 -17 25.5 -35.5t33.5 -30.5q6 -5 23 -23t37.5 -38.5t39.5 -36.5t30 -16q7 0 9.5 3t2.5 7.5t-1.5 9t-1.5 7.5v75q0 9 5.5 21t5.5 29v84
q-4 3 -11 10t-14 14.5t-13.5 13.5t-9.5 6h-19q-6 0 -14 3.5t-15 8.5t-11.5 9.5t-4.5 6.5v31q0 10 4.5 16t11.5 8.5t15 3t14 0.5h19q7 0 18.5 -1.5t24 -3t24 -3t20.5 -1.5h139q20 0 37.5 -9t17.5 -30q0 -8 -1 -13.5t-7 -14.5q-23 -14 -44.5 -12.5t-41.5 1.5l-28 -8h-17
q-8 0 -13.5 -11.5t-5.5 -24.5v-39v-8v-59v-47q0 -6 4 -18t4 -18v-56l-17 -97q0 -6 2.5 -16t6 -20.5t6 -20t2.5 -15.5q0 -4 -0.5 -14t-2 -20t-5 -17.5t-9.5 -7.5h-13.5t-19.5 1t-17.5 3t-7.5 5q-14 14 -23.5 34t-23.5 32q-11 15 -21 25t-19.5 19t-18 19t-14.5 24
q-11 25 -34 48t-48.5 46t-50 46.5t-39.5 48.5q0 3 -3 9.5t-8 12.5t-11.5 11t-13.5 5q-19 0 -19 -30v-75v-39l8 -56q0 -20 -1.5 -27.5t-1.5 -22.5q0 -19 11.5 -28.5t28.5 -14.5t36.5 -7.5t36.5 -6.5t28.5 -12.5t11.5 -24.5q0 -8 -5 -9.5t-12 -1.5h-114l-64 -9q-8 7 -20 8
t-19 1h-19q-21 0 -31 5.5t-25 5.5h-36l-8 -11h-20q0 4 -0.5 13.5t-0.5 18.5q-1 11 -1 23q0 8 9 14t16 6h21.5t7 0.5t2 0.5t6 0.5t19 0.5h41.5q7 0 12 4.5t8 10.5t4 12.5t1 9.5q-2 4 -3 8q-3 6 -3 14q0 15 -1.5 24.5t-4 16.5t-4 12.5t-1.5 13.5q0 7 1.5 17t3.5 18l6 20v67
q0 6 -1.5 14t-9.5 16q0 12 5 15q3 2 6 2q-1 4 -4 11t-6.5 14t-6 13t-2.5 9q0 21 -16 32t-35.5 21t-35.5 23t-16 38q4 10 8 18q4 7 8.5 13t11.5 6h94zM186 614q0 13 3 21t3 21q0 19 9 33.5t21 22.5q5 0 9.5 0.5t10.5 4.5q8 7 14 13.5t14 6.5q14 0 24.5 -1t25.5 -8h9t7 -2
q8 0 18 -5t21 -9q13 -8 30.5 -20t28.5 -16q17 -7 36.5 -10.5t32.5 -3.5h14t11 2q11 7 13 17.5t7 21.5q4 5 0.5 16.5t-3.5 22.5q0 5 -3 7t-3 13q0 12 11 20t25 8q11 0 18.5 -3.5t12.5 -8.5q11 -4 15.5 -8t9.5 -8q5 -7 5.5 -15t0.5 -19q0 -20 -8.5 -38.5t-22.5 -33.5
q-5 -4 -8.5 -11.5t-8.5 -13.5q-20 -13 -49 -24.5t-56 -11.5q-20 0 -37.5 6t-34 14t-33 16.5t-34.5 13.5q-8 0 -18 3t-21 3q-21 0 -40 -6.5t-38 -27.5q-8 -2 -11 -9.5t-11 -7.5h-20v14z" />
    <glyph glyph-name="Ograve" unicode="&#xd2;" horiz-adv-x="603" 
d="M314 562l36 -9h20q13 -4 24 -8q10 -4 19 -7.5t12 -6.5q15 -8 34.5 -13.5t32.5 -19.5q8 -7 16.5 -24t16.5 -24q34 -29 43.5 -55.5t9.5 -47.5l-3 -66v-28q0 -11 -8.5 -33t-20 -46t-21.5 -44.5t-13 -26.5q-7 -21 -24.5 -34.5t-34.5 -21.5q-27 -21 -50.5 -38t-52.5 -17
q-12 0 -23.5 2.5t-31.5 2.5q-4 0 -10 -0.5t-13 -1.5q-8 -1 -16 -1h-17q-8 0 -20.5 3t-23.5 8q-13 5 -28 12q-27 12 -55 26.5t-45 48.5q-21 50 -38.5 104t-17.5 104q0 10 2 18t5 16.5t7 17.5t8 23q0 15 4.5 28t12.5 28q0 3 9 19t22 34t27.5 32.5t24.5 14.5l28 11q13 0 23.5 1
t21.5 7q11 5 21 8.5t20 3.5h48h19zM228 484q-17 0 -34 -23t-30.5 -52.5t-22 -56.5t-8.5 -35v-17v-61q0 -14 17.5 -42.5t43.5 -57t55.5 -50.5t53.5 -22h19q21 0 45.5 11t45 30t34.5 44.5t14 53.5v28v66q0 21 -5.5 33.5t-14.5 24t-21 26t-25 39.5q-8 6 -17.5 15t-20 17t-22 14
t-21.5 6h-19q-8 0 -19 1t-22 3q-12 2 -26 5zM125 945q5 -8 12.5 -19t18.5 -17q11 -8 20.5 -19.5t18.5 -22.5q19 -20 33.5 -39t27.5 -38q3 -1 6.5 -6.5t7.5 -11.5t8 -11t8 -5q3 -8 9.5 -17t12.5 -18.5t11 -20t6 -22.5q7 -2 7.5 -6.5t6.5 -4.5q5 -6 1 -13.5t-6 -14.5
q-2 -11 -15.5 -19t-26.5 -6q-6 1 -15.5 9.5t-18.5 19.5t-16.5 21l-10.5 14q-8 11 -17 18t-17 21q-12 17 -21 37.5t-23 46.5q-1 9 -7 25t-14 33t-17 34.5t-15 29.5q-6 17 3 23.5t22 -1.5z" />
    <glyph glyph-name="Oacute" unicode="&#xd3;" horiz-adv-x="603" 
d="M314 562l36 -9h20q13 -4 24 -8q10 -4 19 -7.5t12 -6.5q15 -8 34.5 -13.5t32.5 -19.5q8 -7 16.5 -24t16.5 -24q34 -29 43.5 -55.5t9.5 -47.5l-3 -66v-28q0 -11 -8.5 -33t-20 -46t-21.5 -44.5t-13 -26.5q-7 -21 -24.5 -34.5t-34.5 -21.5q-27 -21 -50.5 -38t-52.5 -17
q-12 0 -23.5 2.5t-31.5 2.5q-4 0 -10 -0.5t-13 -1.5q-8 -1 -16 -1h-17q-8 0 -20.5 3t-23.5 8q-13 5 -28 12q-27 12 -55 26.5t-45 48.5q-21 50 -38.5 104t-17.5 104q0 10 2 18t5 16.5t7 17.5t8 23q0 15 4.5 28t12.5 28q0 3 9 19t22 34t27.5 32.5t24.5 14.5l28 11q13 0 23.5 1
t21.5 7q11 5 21 8.5t20 3.5h48h19zM228 484q-17 0 -34 -23t-30.5 -52.5t-22 -56.5t-8.5 -35v-17v-61q0 -14 17.5 -42.5t43.5 -57t55.5 -50.5t53.5 -22h19q21 0 45.5 11t45 30t34.5 44.5t14 53.5v28v66q0 21 -5.5 33.5t-14.5 24t-21 26t-25 39.5q-8 6 -17.5 15t-20 17t-22 14
t-21.5 6h-19q-8 0 -19 1t-22 3q-12 2 -26 5zM339 770q0 15 4 22.5t4 13.5q13 15 24 30.5t24 28.5q14 19 27.5 38t27.5 34q7 0 14.5 1.5t13.5 9.5q8 0 15.5 4t15.5 4q12 0 14 -11t2 -19v-17v-19q0 -14 -3 -22.5t-9 -16t-14.5 -15t-20.5 -19.5q-14 -14 -23.5 -27.5
t-23.5 -27.5q-6 -7 -8 -13.5t-9 -14.5q-7 -12 -14 -19.5t-13 -14.5t-12 -16t-11 -22q-2 -4 -5 -11t-7.5 -14t-10.5 -12t-13 -5q-13 0 -23 8t-10 23q0 8 5 14.5t11 21.5q0 8 6 18.5t11 17.5q0 17 5.5 25.5t5.5 21.5z" />
    <glyph glyph-name="Ocircumflex" unicode="&#xd4;" horiz-adv-x="603" 
d="M314 562l36 -9h20q13 -4 24 -8q10 -4 19 -7.5t12 -6.5q15 -8 34.5 -13.5t32.5 -19.5q8 -7 16.5 -24t16.5 -24q34 -29 43.5 -55.5t9.5 -47.5l-3 -66v-28q0 -11 -8.5 -33t-20 -46t-21.5 -44.5t-13 -26.5q-7 -21 -24.5 -34.5t-34.5 -21.5q-27 -21 -50.5 -38t-52.5 -17
q-12 0 -23.5 2.5t-31.5 2.5q-4 0 -10 -0.5t-13 -1.5q-8 -1 -16 -1h-17q-8 0 -20.5 3t-23.5 8q-13 5 -28 12q-27 12 -55 26.5t-45 48.5q-21 50 -38.5 104t-17.5 104q0 10 2 18t5 16.5t7 17.5t8 23q0 15 4.5 28t12.5 28q0 3 9 19t22 34t27.5 32.5t24.5 14.5l28 11q13 0 23.5 1
t21.5 7q11 5 21 8.5t20 3.5h48h19zM228 484q-17 0 -34 -23t-30.5 -52.5t-22 -56.5t-8.5 -35v-17v-61q0 -14 17.5 -42.5t43.5 -57t55.5 -50.5t53.5 -22h19q21 0 45.5 11t45 30t34.5 44.5t14 53.5v28v66q0 21 -5.5 33.5t-14.5 24t-21 26t-25 39.5q-8 6 -17.5 15t-20 17t-22 14
t-21.5 6h-19q-8 0 -19 1t-22 3q-12 2 -26 5zM356 926q6 -5 12.5 -15.5t12.5 -20.5q7 -12 16.5 -24t18.5 -27t16 -33.5t10 -41.5l14 -22l8 -14q5 -17 8 -29.5t3 -31.5q0 -5 -1 -14.5t-4 -18.5t-9 -15.5t-16 -6.5q-9 0 -15 6.5t-9.5 15.5t-6 17.5t-5.5 12.5q-7 9 -13.5 21
t-17.5 18q-6 23 -11 39.5t-11 33.5q-5 14 -14.5 25t-21.5 22q-5 -5 -8.5 -12t-5.5 -13l-9 -20q-18 -15 -24.5 -24.5t-11 -18.5t-12.5 -19.5t-29 -26.5l-14 -13q-13 -13 -20.5 -21.5t-12.5 -15.5t-9.5 -12t-10.5 -10h-6q-8 0 -11.5 4t-7.5 4q2 9 4 16.5t7 11.5l6 14
q4 17 13 30t20 26l14 22q5 5 16 23t24.5 40t29 44.5t30.5 37.5q6 6 11 13.5t11 13.5l28 23z" />
    <glyph glyph-name="Otilde" unicode="&#xd5;" horiz-adv-x="603" 
d="M314 562l36 -9h20q13 -4 24 -8q10 -4 19 -7.5t12 -6.5q15 -8 34.5 -13.5t32.5 -19.5q8 -7 16.5 -24t16.5 -24q34 -29 43.5 -55.5t9.5 -47.5l-3 -66v-28q0 -11 -8.5 -33t-20 -46t-21.5 -44.5t-13 -26.5q-7 -21 -24.5 -34.5t-34.5 -21.5q-27 -21 -50.5 -38t-52.5 -17
q-12 0 -23.5 2.5t-31.5 2.5q-4 0 -10 -0.5t-13 -1.5q-8 -1 -16 -1h-17q-8 0 -20.5 3t-23.5 8q-13 5 -28 12q-27 12 -55 26.5t-45 48.5q-21 50 -38.5 104t-17.5 104q0 10 2 18t5 16.5t7 17.5t8 23q0 15 4.5 28t12.5 28q0 3 9 19t22 34t27.5 32.5t24.5 14.5l28 11q13 0 23.5 1
t21.5 7q11 5 21 8.5t20 3.5h48h19zM228 484q-17 0 -34 -23t-30.5 -52.5t-22 -56.5t-8.5 -35v-17v-61q0 -14 17.5 -42.5t43.5 -57t55.5 -50.5t53.5 -22h19q21 0 45.5 11t45 30t34.5 44.5t14 53.5v28v66q0 21 -5.5 33.5t-14.5 24t-21 26t-25 39.5q-8 6 -17.5 15t-20 17t-22 14
t-21.5 6h-19q-8 0 -19 1t-22 3q-12 2 -26 5zM89 614q0 13 3 21t3 21q0 19 8.5 33.5t21.5 22.5q5 0 9 0.5t11 4.5q8 7 13.5 13.5t13.5 6.5q15 0 25.5 -1t24.5 -8h10t7 -2q8 0 18 -5t21 -9q13 -8 30 -20t28 -16q17 -7 37 -10.5t33 -3.5h13t12 2q11 7 13 17.5t6 21.5
q5 5 1.5 16.5t-3.5 22.5q0 5 -3 7t-3 13q0 12 11 20t25 8q11 0 18.5 -3.5t12.5 -8.5q11 -4 15.5 -8t9.5 -8q4 -7 4.5 -15t0.5 -19q0 -40 -30 -72q-5 -4 -8.5 -11.5t-8.5 -13.5q-21 -13 -49.5 -24.5t-56.5 -11.5q-20 0 -37 6t-34 14t-33.5 16.5t-34.5 13.5q-8 0 -18 3t-21 3
q-20 0 -39 -6.5t-38 -27.5q-8 -2 -11 -9.5t-12 -7.5h-19v14z" />
    <glyph glyph-name="Odieresis" unicode="&#xd6;" horiz-adv-x="603" 
d="M314 562l36 -9h20q13 -4 24 -8q10 -4 19 -7.5t12 -6.5q15 -8 34.5 -13.5t32.5 -19.5q8 -7 16.5 -24t16.5 -24q34 -29 43.5 -55.5t9.5 -47.5l-3 -66v-28q0 -11 -8.5 -33t-20 -46t-21.5 -44.5t-13 -26.5q-7 -21 -24.5 -34.5t-34.5 -21.5q-27 -21 -50.5 -38t-52.5 -17
q-12 0 -23.5 2.5t-31.5 2.5q-4 0 -10 -0.5t-13 -1.5q-8 -1 -16 -1h-17q-8 0 -20.5 3t-23.5 8q-13 5 -28 12q-27 12 -55 26.5t-45 48.5q-21 50 -38.5 104t-17.5 104q0 10 2 18t5 16.5t7 17.5t8 23q0 15 4.5 28t12.5 28q0 3 9 19t22 34t27.5 32.5t24.5 14.5l28 11q13 0 23.5 1
t21.5 7q11 5 21 8.5t20 3.5h48h19zM228 484q-17 0 -34 -23t-30.5 -52.5t-22 -56.5t-8.5 -35v-17v-61q0 -14 17.5 -42.5t43.5 -57t55.5 -50.5t53.5 -22h19q21 0 45.5 11t45 30t34.5 44.5t14 53.5v28v66q0 21 -5.5 33.5t-14.5 24t-21 26t-25 39.5q-8 6 -17.5 15t-20 17t-22 14
t-21.5 6h-19q-8 0 -19 1t-22 3q-12 2 -26 5zM67 709q1 11 7.5 18.5t16.5 12t22 7.5t23 6q7 3 12.5 9.5t10.5 13t10.5 11.5t13.5 5q6 0 10 -4t7 -10t5.5 -13t5.5 -12q6 -12 14 -21.5t15 -19t11.5 -20t4.5 -25.5q0 -6 -5 -10t-12 -7.5t-15 -7t-13 -8.5q-6 -6 -9.5 -12.5
t-6.5 -11t-7.5 -7.5t-12.5 -3q-11 0 -18 5.5t-13 13t-13 16t-17 13.5q-8 5 -16.5 15t-15.5 19.5t-11 17.5t-4 9zM350 737q15 14 30 23.5t34 20.5q5 2 8 6.5t6 8.5t6 7t8 3q9 0 14.5 -6t9.5 -14.5t8 -18t10 -16.5q6 -9 13.5 -14t14.5 -10.5t11.5 -12t4.5 -16.5
q0 -9 -5.5 -15.5t-13 -12t-15.5 -11.5t-13 -14q-6 -11 -13.5 -19.5t-19.5 -8.5q-13 0 -18 8t-16 14q-8 7 -16.5 9.5t-16.5 13.5q-8 14 -12 19.5t-19 13.5q-6 5 -14 7t-8 12q0 9 8 12t14 11z" />
    <glyph glyph-name="multiply" unicode="&#xd7;" horiz-adv-x="453" 
d="M206 347q8 -10 16.5 -7.5t19.5 13.5q2 3 12 14.5t21.5 24t22 23.5t13.5 13q9 9 14.5 11.5t11 0.5t11 -8.5t13.5 -14.5q11 -11 14 -19.5t-8 -16.5q-6 -8 -17.5 -18.5t-24 -22t-24 -22.5t-17.5 -18q-9 -6 -10 -16.5t7 -16.5q19 -19 29.5 -31.5t31.5 -18.5q8 -2 19.5 0
t13.5 -6q2 -6 -6 -18t-10 -18q-2 -2 -4.5 -5.5t-7.5 -8.5l-6.5 -6.5t-4.5 -7.5q-8 -6 -16 -7t-14 7l-11.5 11.5t-10.5 11.5q-8 7 -16 17.5t-16.5 19.5t-17.5 12.5t-17 -2.5q-7 -2 -11.5 -7.5t-10.5 -12.5q-15 -17 -32.5 -40t-31.5 -37q-8 -7 -17 -2t-17 13q-8 11 -15 25
t1 22q19 19 37.5 38.5t37.5 36.5q7 8 9.5 14t4.5 11q2 10 1 10.5t-9 8.5q-5 5 -8.5 10t-8.5 10l-8 8t-6 9q-12 10 -16 11t-14 5q-19 -2 -29 6t-2 17q8 8 14 16.5t14 16.5q4 3 11 8t14 8.5t14 5t11 -2.5q7 -7 14 -17.5t14 -21.5t13.5 -21.5t14.5 -17.5z" />
    <glyph glyph-name="Oslash" unicode="&#xd8;" horiz-adv-x="614" 
d="M361 550h23q3 -1 7 -3q3 -2 8 -4l10 -4q5 13 9 21l7 14t6.5 12t7.5 17q6 0 16 3t19.5 7t17.5 7.5t11 4.5q7 0 14.5 -8t13.5 -17q-2 -8 -5 -13.5t-6 -10t-6 -10t-5 -13.5q-4 -6 -6.5 -8.5t-5 -4t-5.5 -4t-8 -8.5q0 -4 -0.5 -9.5t-2.5 -9.5q6 -5 12 -8t10 -9q4 -3 8 -9.5
t8.5 -13.5t8.5 -13t9 -8q35 -29 43.5 -57t8.5 -49v-67v-28q0 -10 -9 -32t-20 -45.5t-22 -44.5t-15 -28q-7 -21 -24.5 -33.5t-31.5 -19.5q-29 -20 -53 -37.5t-53 -17.5q-12 0 -23 1.5t-32 1.5q-4 0 -10 -0.5t-13 -1.5q-8 -1 -16 -1h-17q-8 0 -19.5 3t-22.5 8q-13 4 -27 11h-6
q-4 -14 -7 -20.5t-7 -11.5t-10 -12t-15 -20q-8 -11 -20 -13.5t-19 -0.5l-8 14q6 21 11.5 30t13.5 17q1 5 2 7.5t2 4t2 4t2 7.5q2 4 5.5 8t5.5 8q-17 11 -30.5 23t-21.5 33q-21 48 -38.5 103t-17.5 105q0 10 1.5 18t4 15.5t6 16.5t7.5 23q0 14 5.5 28.5t11.5 26.5q0 4 9 20
t22.5 34t28.5 32t26 14l28 14q11 0 21 1t21 8q13 4 23 7.5t21 3.5h64zM473 297q0 19 -5 31t-13.5 23t-19.5 24.5t-24 35.5q-12 -17 -24.5 -37.5t-23 -40t-20 -36t-15.5 -25.5q-2 -8 -11 -26.5t-19.5 -38t-21 -35.5t-15.5 -19q0 -8 -4 -14t-9 -11t-9 -10t-5 -10
q20 -19 42 -31.5t41 -12.5h17q21 0 45 10.5t45 29.5t35 44.5t14 54.5v94zM239 481q-17 0 -33 -23.5t-29.5 -52.5t-21.5 -56.5t-8 -34.5v-78q0 -12 13 -35t32 -48q7 12 16 27t17.5 28.5t14 24t5.5 14.5q11 12 23 33t24 43.5t22.5 43t19.5 31.5q8 14 15 27.5t18 27.5
q-11 6 -21 11.5t-21 5.5h-19q-15 0 -40 5q-13 3 -27 6z" />
    <glyph glyph-name="Ugrave" unicode="&#xd9;" horiz-adv-x="625" 
d="M442 347q-2 3 -4 7q-4 8 -4 13v47l-9 56v19q0 11 -7 14.5t-15 5.5q-11 2 -19.5 4t-8.5 12q0 9 4 17.5t9.5 16t12.5 12t13 4.5q14 -7 28 -11q12 -5 27 -8t29 -3h39q10 0 23 2.5t24.5 2t19.5 -7t8 -25.5q3 -10 4 -19q1 -8 0.5 -15t-4.5 -10h-28h-20q-12 0 -19.5 -12.5
t-7.5 -26.5q-5 -15 -6 -24t1 -14q1 -6 5 -9l-12 -36q5 -8 6.5 -16.5t3.5 -15.5q1 -9 2 -16q0 -3 -2 -9t-4 -13l-4 -14t-2 -11v-19q0 -4 -1 -10t-3 -13l-4 -16q0 -7 2 -12.5t4 -10.5q2 -4 2 -9.5v-12.5q0 -14 -2 -19q-6 -6 -6 -20t-11.5 -28.5t-24.5 -37.5q0 -13 -12.5 -22.5
t-26.5 -22.5q-7 -8 -11 -12.5t-7.5 -7.5t-8 -5t-12.5 -5q-33 -15 -65 -17.5t-46 -2.5q-17 0 -37.5 2t-41 7t-39.5 12t-32 18l-20 28q-8 11 -14 24t-11 24q-6 13 -11 27v67q0 14 -5.5 28.5t-5.5 37.5v56q2 10 5 20l4 16t2 11q-3 14 -6 25q-5 22 -5 31q2 8 5 16q2 7 4 13t2 10
v55q0 7 -12 12t-26.5 8.5t-26 7t-10.5 8.5q0 13 11 26t25 13l48 11h19q6 0 23.5 -5.5t32.5 -5.5h83q14 0 16.5 -6t2.5 -10q0 -22 -6 -30.5t-15.5 -11t-20 -2.5t-20 -4.5t-15.5 -17t-6 -40.5q0 -3 1 -9.5t2.5 -14t3 -14t1.5 -9.5v-28v-150v-67q-6 -13 -3 -16.5t3 -11.5
l11 -27q10 -15 19 -24t20 -14.5t26 -7.5t38 -2q7 0 24 6t32 14q3 7 9.5 13.5t15.5 18t19.5 30t22.5 49.5v39q0 7 1 26t2.5 40t3 39.5t1.5 24.5zM131 945q4 -8 11.5 -19t18.5 -17q11 -8 21 -19.5t18 -22.5q38 -41 61 -77q3 -1 7 -6.5t8 -11.5t8 -11t8 -5q3 -8 9 -17
t12.5 -18.5t11.5 -20t6 -22.5q6 -2 6.5 -6.5t7.5 -4.5q4 -6 0 -13.5t-6 -14.5q-2 -11 -15.5 -19t-26.5 -6q-6 1 -15 9.5t-18 19.5t-17 21t-11 14q-8 11 -16.5 18t-16.5 21q-13 17 -21.5 37.5t-23.5 46.5q-1 9 -7 25t-14 33t-16.5 34.5t-14.5 29.5q-7 17 2.5 23.5t22.5 -1.5z
" />
    <glyph glyph-name="Uacute" unicode="&#xda;" horiz-adv-x="625" 
d="M442 347q-2 3 -4 7q-4 8 -4 13v47l-9 56v19q0 11 -7 14.5t-15 5.5q-11 2 -19.5 4t-8.5 12q0 9 4 17.5t9.5 16t12.5 12t13 4.5q14 -7 28 -11q12 -5 27 -8t29 -3h39q10 0 23 2.5t24.5 2t19.5 -7t8 -25.5q3 -10 4 -19q1 -8 0.5 -15t-4.5 -10h-28h-20q-12 0 -19.5 -12.5
t-7.5 -26.5q-5 -15 -6 -24t1 -14q1 -6 5 -9l-12 -36q5 -8 6.5 -16.5t3.5 -15.5q1 -9 2 -16q0 -3 -2 -9t-4 -13l-4 -14t-2 -11v-19q0 -4 -1 -10t-3 -13l-4 -16q0 -7 2 -12.5t4 -10.5q2 -4 2 -9.5v-12.5q0 -14 -2 -19q-6 -6 -6 -20t-11.5 -28.5t-24.5 -37.5q0 -13 -12.5 -22.5
t-26.5 -22.5q-7 -8 -11 -12.5t-7.5 -7.5t-8 -5t-12.5 -5q-33 -15 -65 -17.5t-46 -2.5q-17 0 -37.5 2t-41 7t-39.5 12t-32 18l-20 28q-8 11 -14 24t-11 24q-6 13 -11 27v67q0 14 -5.5 28.5t-5.5 37.5v56q2 10 5 20l4 16t2 11q-3 14 -6 25q-5 22 -5 31q2 8 5 16q2 7 4 13t2 10
v55q0 7 -12 12t-26.5 8.5t-26 7t-10.5 8.5q0 13 11 26t25 13l48 11h19q6 0 23.5 -5.5t32.5 -5.5h83q14 0 16.5 -6t2.5 -10q0 -22 -6 -30.5t-15.5 -11t-20 -2.5t-20 -4.5t-15.5 -17t-6 -40.5q0 -3 1 -9.5t2.5 -14t3 -14t1.5 -9.5v-28v-150v-67q-6 -13 -3 -16.5t3 -11.5
l11 -27q10 -15 19 -24t20 -14.5t26 -7.5t38 -2q7 0 24 6t32 14q3 7 9.5 13.5t15.5 18t19.5 30t22.5 49.5v39q0 7 1 26t2.5 40t3 39.5t1.5 24.5zM359 770q0 15 4 22.5t4 13.5q13 15 24 30.5t23 28.5q15 19 28 38t28 34q6 0 13.5 1.5t14.5 9.5q8 0 15 4t15 4q13 0 15 -11
t2 -19v-17v-19q0 -14 -3 -22.5t-9 -16t-15 -15t-20 -19.5q-15 -14 -24 -27.5t-24 -27.5q-6 -7 -8 -13.5t-8 -14.5q-8 -12 -14.5 -19.5t-12.5 -14.5t-12 -16t-11 -22l-5.5 -11t-8 -14t-10.5 -12t-13 -5q-12 0 -22.5 8t-10.5 23q0 8 5 14.5t12 21.5q0 8 6 18.5l10 17.5
q0 17 6 25.5t6 21.5z" />
    <glyph glyph-name="Ucircumflex" unicode="&#xdb;" horiz-adv-x="625" 
d="M442 347q-2 3 -4 7q-4 8 -4 13v47l-9 56v19q0 11 -7 14.5t-15 5.5q-11 2 -19.5 4t-8.5 12q0 9 4 17.5t9.5 16t12.5 12t13 4.5q14 -7 28 -11q12 -5 27 -8t29 -3h39q10 0 23 2.5t24.5 2t19.5 -7t8 -25.5q3 -10 4 -19q1 -8 0.5 -15t-4.5 -10h-28h-20q-12 0 -19.5 -12.5
t-7.5 -26.5q-5 -15 -6 -24t1 -14q1 -6 5 -9l-12 -36q5 -8 6.5 -16.5t3.5 -15.5q1 -9 2 -16q0 -3 -2 -9t-4 -13l-4 -14t-2 -11v-19q0 -4 -1 -10t-3 -13l-4 -16q0 -7 2 -12.5t4 -10.5q2 -4 2 -9.5v-12.5q0 -14 -2 -19q-6 -6 -6 -20t-11.5 -28.5t-24.5 -37.5q0 -13 -12.5 -22.5
t-26.5 -22.5q-7 -8 -11 -12.5t-7.5 -7.5t-8 -5t-12.5 -5q-33 -15 -65 -17.5t-46 -2.5q-17 0 -37.5 2t-41 7t-39.5 12t-32 18l-20 28q-8 11 -14 24t-11 24q-6 13 -11 27v67q0 14 -5.5 28.5t-5.5 37.5v56q2 10 5 20l4 16t2 11q-3 14 -6 25q-5 22 -5 31q2 8 5 16q2 7 4 13t2 10
v55q0 7 -12 12t-26.5 8.5t-26 7t-10.5 8.5q0 13 11 26t25 13l48 11h19q6 0 23.5 -5.5t32.5 -5.5h83q14 0 16.5 -6t2.5 -10q0 -22 -6 -30.5t-15.5 -11t-20 -2.5t-20 -4.5t-15.5 -17t-6 -40.5q0 -3 1 -9.5t2.5 -14t3 -14t1.5 -9.5v-28v-150v-67q-6 -13 -3 -16.5t3 -11.5
l11 -27q10 -15 19 -24t20 -14.5t26 -7.5t38 -2q7 0 24 6t32 14q3 7 9.5 13.5t15.5 18t19.5 30t22.5 49.5v39q0 7 1 26t2.5 40t3 39.5t1.5 24.5zM370 926q6 -5 12 -15.5t13 -20.5q7 -12 16.5 -24t18.5 -27t16 -33.5t10 -41.5l14 -22l8 -14q5 -17 8 -29.5t3 -31.5
q0 -5 -1 -14.5t-4 -18.5t-9 -15.5t-16 -6.5q-9 0 -15 6.5t-9.5 15.5t-6 17.5t-5.5 12.5q-7 9 -13.5 21t-17.5 18q-6 23 -11 39.5t-11 33.5q-5 14 -14.5 25t-21.5 22q-5 -5 -8.5 -12t-5.5 -13l-9 -20q-18 -15 -24.5 -24.5t-11 -18.5t-12.5 -19.5t-29 -26.5l-14 -13
q-13 -13 -20.5 -21.5t-13 -15.5t-9.5 -12t-10 -10h-6q-8 0 -11.5 4t-7.5 4q2 9 4 16.5t7 11.5l5 14q5 17 14 30t20 26l14 22q5 5 16 23t24.5 40t29 44.5t30.5 37.5q6 6 11 13.5t11 13.5l28 23z" />
    <glyph glyph-name="Udieresis" unicode="&#xdc;" horiz-adv-x="625" 
d="M442 347q-2 3 -4 7q-4 8 -4 13v47l-9 56v19q0 11 -7 14.5t-15 5.5q-11 2 -19.5 4t-8.5 12q0 9 4 17.5t9.5 16t12.5 12t13 4.5q14 -7 28 -11q12 -5 27 -8t29 -3h39q10 0 23 2.5t24.5 2t19.5 -7t8 -25.5q3 -10 4 -19q1 -8 0.5 -15t-4.5 -10h-28h-20q-12 0 -19.5 -12.5
t-7.5 -26.5q-5 -15 -6 -24t1 -14q1 -6 5 -9l-12 -36q5 -8 6.5 -16.5t3.5 -15.5q1 -9 2 -16q0 -3 -2 -9t-4 -13l-4 -14t-2 -11v-19q0 -4 -1 -10t-3 -13l-4 -16q0 -7 2 -12.5t4 -10.5q2 -4 2 -9.5v-12.5q0 -14 -2 -19q-6 -6 -6 -20t-11.5 -28.5t-24.5 -37.5q0 -13 -12.5 -22.5
t-26.5 -22.5q-7 -8 -11 -12.5t-7.5 -7.5t-8 -5t-12.5 -5q-33 -15 -65 -17.5t-46 -2.5q-17 0 -37.5 2t-41 7t-39.5 12t-32 18l-20 28q-8 11 -14 24t-11 24q-6 13 -11 27v67q0 14 -5.5 28.5t-5.5 37.5v56q2 10 5 20l4 16t2 11q-3 14 -6 25q-5 22 -5 31q2 8 5 16q2 7 4 13t2 10
v55q0 7 -12 12t-26.5 8.5t-26 7t-10.5 8.5q0 13 11 26t25 13l48 11h19q6 0 23.5 -5.5t32.5 -5.5h83q14 0 16.5 -6t2.5 -10q0 -22 -6 -30.5t-15.5 -11t-20 -2.5t-20 -4.5t-15.5 -17t-6 -40.5q0 -3 1 -9.5t2.5 -14t3 -14t1.5 -9.5v-28v-150v-67q-6 -13 -3 -16.5t3 -11.5
l11 -27q10 -15 19 -24t20 -14.5t26 -7.5t38 -2q7 0 24 6t32 14q3 7 9.5 13.5t15.5 18t19.5 30t22.5 49.5v39q0 7 1 26t2.5 40t3 39.5t1.5 24.5zM86 709q1 11 8 18.5t16.5 12t21.5 7.5l24 6q7 3 12 9.5l10 13t11 11.5t14 5q6 0 10 -4t7 -10t5.5 -13t5.5 -12q6 -12 13.5 -21.5
t14.5 -19t11.5 -20t4.5 -25.5q0 -6 -5 -10t-12 -7.5t-14.5 -7t-12.5 -8.5q-6 -6 -9.5 -12.5t-6.5 -11t-7.5 -7.5t-12.5 -3q-12 0 -19 5.5t-13 13t-13 16t-17 13.5q-8 5 -16.5 15t-15.5 19.5t-11 17.5t-4 9zM370 737q14 14 29.5 23.5t34.5 20.5q5 2 8 6.5t5.5 8.5t5.5 7t8 3
q9 0 14.5 -6t9.5 -14.5t8 -18t10 -16.5q6 -9 14 -14t15 -10.5t11.5 -12t4.5 -16.5q0 -9 -5.5 -15.5t-13 -12t-16 -11.5t-13.5 -14q-6 -11 -13 -19.5t-20 -8.5t-17.5 8t-15.5 14q-8 7 -17 9.5t-17 13.5q-8 14 -12 19.5t-18 13.5q-7 5 -15 7t-8 12q0 9 8 12t15 11z" />
    <glyph glyph-name="Yacute" unicode="&#xdd;" horiz-adv-x="639" 
d="M575 564q6 0 15.5 -2t18.5 -4.5t15.5 -5t6.5 -4.5q0 -23 -13 -36.5t-34 -13.5h-31q-14 0 -21 -5t-11.5 -12.5t-6.5 -18t-5 -20.5q-5 -6 -9 -12t-11 -10q-4 -7 -9.5 -13t-9.5 -12q-6 -11 -17.5 -33.5t-22.5 -50t-19 -55.5t-8 -50v-36l-5 -28q0 -3 1 -12.5t3 -19t5 -17
t7 -7.5q7 -4 29 -9.5t45.5 -13t41.5 -16.5t18 -19q0 -5 -1 -9q-2 -8 -10 -8q-9 -8 -15.5 -11t-12.5 -11q-4 0 -6.5 -4.5t-5 -9.5t-6.5 -9.5t-10 -4.5q-8 0 -20.5 5.5t-26.5 5.5h-67q-8 0 -16 1q-7 1 -15.5 2.5t-15.5 5.5h-45q-17 0 -25 -4.5t-25 -4.5h-17q-35 0 -46.5 9
t-11.5 36q0 17 9 33.5t30 16.5l47 -11q6 0 14.5 3.5t15 8.5t9.5 12t0 15l-11 111q0 8 -1 16.5t4 16.5q0 6 -3 12.5t-3 12.5q0 21 -10.5 37.5t-33.5 37.5q-7 15 -26.5 28t-40.5 28q-6 14 -18 29t-18 29q-6 5 -13 7t-15 7q-19 5 -39 8q-17 7 -26.5 18.5t-9.5 31.5q0 17 7.5 28
t28.5 11h48q14 0 27 -5.5t20 -5.5h47q3 0 11 -1t17.5 -1.5t19.5 -1.5t16 -1h22q7 0 8 -1.5t1 -9.5t-6 -15t-12.5 -15.5t-12.5 -17.5t-6 -19q0 -11 11 -28t25 -34q16 -19 37 -41q0 -3 2 -9t4.5 -12t6 -10.5t6.5 -4.5q7 0 14 10t13 23t11 24.5t9 14.5q0 4 6 14t13.5 21.5
t13.5 23t6 19.5q0 6 -8 10t-17 9.5t-17 13.5t-8 23q0 4 4.5 7t11 5t13 3t10.5 1q6 -2 11 -3t9.5 -1.5t7.5 -0.5h19q15 4 26 4.5t38 0.5q10 0 16.5 1.5t11 4t9.5 4t13 1.5zM350 770q0 15 4.5 22.5t4.5 13.5q12 15 23 30.5t24 28.5q14 19 27.5 38t27.5 34q7 0 14.5 1.5
t13.5 9.5q8 0 15.5 4t15.5 4q13 0 15 -11t2 -19v-17v-19q0 -14 -3 -22.5t-9 -16t-15 -15t-21 -19.5q-14 -14 -23.5 -27.5t-23.5 -27.5q-6 -7 -8 -13.5t-9 -14.5q-7 -12 -14 -19.5t-13 -14.5t-12 -16t-11 -22q-2 -4 -5 -11t-7.5 -14t-10.5 -12t-13 -5q-13 0 -23 8t-10 23
q0 8 5 14.5t11 21.5q0 8 6.5 18.5t10.5 17.5q0 17 5.5 25.5t5.5 21.5z" />
    <glyph glyph-name="Thorn" unicode="&#xde;" horiz-adv-x="751" 
d="M506 742q3 0 10 -1t15 -1.5t15 -1.5t10 -1q8 0 19.5 -14t11.5 -28q0 -5 -14 -8.5t-30.5 -7t-30.5 -7.5t-14 -10l-3 -17v-11q2 -21 0 -40t0 -19q12 -19 39 -19l55 -14q11 0 25 -1.5t25 -12.5q9 -8 21 -16t27 -14q6 -5 13 -14t13.5 -19.5t10.5 -20t4 -13.5q-1 -8 0 -17.5
t2.5 -18.5l2.5 -15t1 -7q0 -18 -1.5 -32t-5.5 -27.5t-9.5 -28.5t-14.5 -35q-8 -17 -25.5 -30t-29.5 -25q-12 -4 -20 -12q-8 -2 -18 -4t-21 -4q-12 0 -14.5 1.5t-4.5 1.5q-1 0 -5 -2q-2 -1 -3 -1q-11 0 -24 5.5t-13 16.5q0 10 8.5 14.5t20.5 8.5l27 9t27 16t20.5 30t8.5 50
q0 5 -4 15.5t1 29.5q5 18 -9.5 35t-37 31t-46 22.5t-35.5 8.5q-13 0 -16.5 -4t-5.5 -21q-1 -22 -1 -28.5t1 -8t2 -3.5t1 -15.5t-2 -43.5t-7 -87q0 -11 4 -30.5t4 -36.5l-2 -64v-25q0 -12 6.5 -20t16 -13.5t19.5 -8t16 -2.5h11q7 0 17 -3.5t18.5 -9t14.5 -12.5t6 -14
q0 -5 -2.5 -12t-8.5 -5q-19 2 -33.5 -2t-25.5 -4h-4.5t-7.5 1l-10 2q-19 0 -29 -2.5t-21 -2.5q-6 0 -18 1.5t-25 3t-25 3.5l-18 3q-17 0 -21.5 -1.5t-6.5 -1.5q-6 -1 -11 -2t-9 -1h-5q-23 0 -38.5 -1.5t-36.5 -1.5q-8 0 -11 5.5t-3 11.5q0 21 17 35.5t36 14.5l30 6q7 0 15 1
t10 1q7 0 15 8t8 15v16q0 1 1 9t2.5 18l3 20t1.5 15l-2 10q-1 4 -1 9q0 1 1 6.5t2.5 12t3 14l2.5 12.5v47v25q0 1 0.5 7t0.5 12.5t0.5 12.5t0.5 7q-2 33 1 54.5t8 34.5q0 20 -12 30.5t-33 10.5q-11 0 -30 -8t-39 -17t-38 -17t-26 -8q-16 0 -34 -16t-33.5 -38.5t-25.5 -45.5
t-10 -36q0 -7 5 -18t11.5 -22.5t11.5 -22t5 -15.5q0 -12 -7.5 -23.5t-18 -20.5t-22.5 -14.5t-21 -5.5q-5 0 -15.5 5.5t-20.5 12t-17.5 12t-7.5 6.5q-8 17 -12 32t-11 32q1 0 1 1q0 3 -1 8q7 25 13.5 53.5t31.5 51.5q16 16 28.5 35.5t25 37.5t28.5 31.5t40 15.5q5 0 9 3t11 5
q10 6 19 11q8 5 15 8.5t10 3.5h14q2 0 10 4t19.5 9.5t24 9.5t24.5 4h36q17 0 28 15t11 30q-1 1 -2 5t-1 23v39v2q-5 5 -5 9q-5 5 -15 6.5t-20.5 2t-21 1.5t-16.5 4q-6 6 -10 14t-4 27q6 6 11 10t10 7t10 3h56q4 0 9 -2t9 -4q4 -3 9 -5q19 0 37 5q10 3 19 6h22q7 0 13 2
q3 1 4 3z" />
    <glyph glyph-name="germandbls" unicode="&#xdf;" horiz-adv-x="498" 
d="M500 870q7 -2 23 -2.5t22 -0.5q20 -1 40.5 -14.5t37.5 -33t27 -41.5t9 -39l-6 -69q-9 -12 -13 -22t-8 -20.5t-10 -22t-19 -27.5q0 -6 -3.5 -17t-10.5 -19q-20 -23 -41.5 -47.5t-44.5 -41.5q-14 -16 -29.5 -31.5t-30 -32t-25.5 -34.5t-15 -38q0 -6 -9.5 -16.5t-9.5 -16.5
q0 -9 5 -18.5t12 -17.5t13.5 -15t8.5 -11q9 -21 18 -31.5t16 -18t10.5 -15.5t2.5 -24q-1 -20 -3.5 -30t-8.5 -19.5t-17 -22t-30 -36.5q-6 -14 -13 -20t-14.5 -9t-16 -5.5t-17.5 -7.5h-16q-15 -6 -23.5 -11t-13.5 -5q-6 -7 -12.5 -6t-14.5 3l-10 -6q-8 -5 -15 -5
q-13 0 -20 10.5t-5 25.5q0 6 6 22.5t8 27.5q19 6 38 10t39 4q5 0 11 1t17 7q3 0 8.5 3.5t11.5 8.5t14 13q2 13 -8.5 30t-25.5 23q-19 10 -31 26.5t-19 35.5t-9.5 38t-1.5 36q0 2 6 13.5t15 28t20.5 35t22 35.5t19.5 30t14 17q13 4 26.5 15.5t26.5 25.5q8 11 20.5 27t26.5 35
q7 12 18.5 18t26.5 20q4 13 8 27.5t7 28t5 23.5t2 13q2 27 -14.5 49.5t-43.5 22.5q-7 0 -22.5 -7.5t-27.5 -14.5q-8 -6 -23 -11t-22 -5q-21 -11 -46 -32.5t-46 -40.5q-12 -12 -21.5 -29.5t-14.5 -36.5q-8 -7 -18 -14t-12 -20q-8 -6 -19 -24.5t-22 -40t-18.5 -42t-7.5 -29.5
q0 -3 0.5 -9.5t0.5 -14v-14t-1 -9.5q-1 -14 -3.5 -23l-5 -18t-5 -20.5t-3.5 -30.5q0 -6 -4 -24.5t-8.5 -38.5t-8.5 -37t-4 -20q0 -6 -1.5 -22t-9.5 -55q0 -13 -6 -30t-8 -23q0 -7 5.5 -14.5t3.5 -13.5q0 -3 -2 -17t-5 -30t-5 -29.5t-2 -15.5q0 -3 -2 -19t-6 -37t-10 -43.5
t-13 -39.5q-14 -12 -23 -26.5t-16 -20.5q-14 -19 -32.5 -35t-31.5 -35q-8 -6 -16 -12.5t-14 -6.5q-6 -6 -23 -15t-36.5 -17.5t-39.5 -13.5t-32 -4l-81 3q-6 1 -10 6.5t-6 12.5q-3 8 -3 17q0 13 7 27.5t17 29t21 28.5t19 26q6 0 13 -1.5t15 -1.5q6 0 12 3t13 3q6 0 13 -4
t20 -4q6 0 23 4t30 4q8 0 19 3.5t11 10.5q7 3 11 6t7 6l6.5 6.5t9.5 6.5q8 6 13.5 8t5.5 17q7 19 13.5 42.5t6.5 49.5l14 11v75q2 8 9 23t7 21l45 339q4 16 7 34t6.5 36t8 35t11.5 32t19.5 35.5t24 39t20 33t8.5 17.5q0 8 6 19.5t14 24.5q16 19 32 40t32.5 42t34 40t37.5 34
q15 13 39 24t45 18z" />
    <glyph glyph-name="agrave" unicode="&#xe0;" horiz-adv-x="381" 
d="M336 484q21 0 30 -12t9 -33q0 -4 -3 -17.5t-7.5 -30t-9.5 -33.5t-8 -27q0 -8 -1 -16.5t-7 -22.5q-8 -6 -8 -19.5v-19.5l-3 -53v-39q0 -3 0.5 -10.5t2 -15t5.5 -13t11 -5.5l14 22q6 5 14 12.5t16 14.5q9 8 18 17q6 0 10 -5t4 -11l-4 -8q-4 -8 -8 -12q-7 -20 -18 -34.5
t-24 -28t-26.5 -27.5t-25.5 -32l-22 -31q0 -9 -5.5 -18.5t-13 -15t-16 -5t-13.5 11.5q-6 18 -6 35.5t3 34t6 31.5t3 29v36v20q0 5 -7 7q-4 1 -7 1t-15 -17.5t-27.5 -40t-31.5 -45.5t-26 -33q-3 -4 -9.5 -11.5t-14 -14.5t-16.5 -12.5t-16 -5.5q-14 0 -23 10t-14 23.5t-7.5 27
t-2.5 19.5l-3 72l14 117q0 3 3 14t8 24t11.5 25.5t13.5 20.5q29 27 56 66q13 18 25 26t24 12.5t24 7t27 10.5q6 0 15.5 6.5t17.5 12.5h28h17zM208 373q-18 -15 -34 -34.5t-28 -39.5t-19 -37.5t-7 -27.5q0 -5 -1 -18.5t1 -28t7.5 -26t19.5 -11.5q13 0 30.5 23t33 52t26 54
t10.5 30q0 4 1 19.5t-1.5 30t-11 21t-27.5 -6.5zM33 945q5 -8 12.5 -19t18.5 -17q11 -8 21 -19.5t18 -22.5q19 -20 33.5 -39t27.5 -38q3 -1 6.5 -6.5t7.5 -11.5t8 -11t9 -5q3 -8 9 -17t12.5 -18.5t11.5 -20t6 -22.5q6 -2 6.5 -6.5t6.5 -4.5q5 -6 1 -13.5t-6 -14.5
q-2 -11 -15.5 -19t-26.5 -6q-6 1 -15.5 9.5t-18.5 19.5t-16.5 21l-10.5 14q-8 11 -16.5 18t-16.5 21q-13 17 -21.5 37.5t-23.5 46.5q-1 9 -7 25t-14 33t-17 34.5t-15 29.5q-6 17 3.5 23.5t21.5 -1.5z" />
    <glyph glyph-name="aacute" unicode="&#xe1;" horiz-adv-x="381" 
d="M336 484q21 0 30 -12t9 -33q0 -4 -3 -17.5t-7.5 -30t-9.5 -33.5t-8 -27q0 -8 -1 -16.5t-7 -22.5q-8 -6 -8 -19.5v-19.5l-3 -53v-39q0 -3 0.5 -10.5t2 -15t5.5 -13t11 -5.5l14 22q6 5 14 12.5t16 14.5q9 8 18 17q6 0 10 -5t4 -11l-4 -8q-4 -8 -8 -12q-7 -20 -18 -34.5
t-24 -28t-26.5 -27.5t-25.5 -32l-22 -31q0 -9 -5.5 -18.5t-13 -15t-16 -5t-13.5 11.5q-6 18 -6 35.5t3 34t6 31.5t3 29v36v20q0 5 -7 7q-4 1 -7 1t-15 -17.5t-27.5 -40t-31.5 -45.5t-26 -33q-3 -4 -9.5 -11.5t-14 -14.5t-16.5 -12.5t-16 -5.5q-14 0 -23 10t-14 23.5t-7.5 27
t-2.5 19.5l-3 72l14 117q0 3 3 14t8 24t11.5 25.5t13.5 20.5q29 27 56 66q13 18 25 26t24 12.5t24 7t27 10.5q6 0 15.5 6.5t17.5 12.5h28h17zM208 373q-18 -15 -34 -34.5t-28 -39.5t-19 -37.5t-7 -27.5q0 -5 -1 -18.5t1 -28t7.5 -26t19.5 -11.5q13 0 30.5 23t33 52t26 54
t10.5 30q0 4 1 19.5t-1.5 30t-11 21t-27.5 -6.5zM278 770q0 15 4 22.5t4 13.5q13 15 24 30.5t24 28.5q14 19 27.5 38t27.5 34q7 0 14.5 1.5t13.5 9.5q8 0 15 4t16 4q12 0 14 -11t2 -19v-17v-19q0 -14 -3 -22.5t-9 -16t-14.5 -15t-20.5 -19.5q-14 -14 -23.5 -27.5
t-23.5 -27.5q-7 -7 -9 -13.5t-8 -14.5q-7 -12 -14 -19.5t-13 -14.5t-12 -16t-11 -22l-5.5 -11t-8 -14t-10 -12t-12.5 -5q-13 0 -23 8t-10 23q0 8 5 14.5t11 21.5q0 8 6 18.5t11 17.5q0 17 5.5 25.5t5.5 21.5z" />
    <glyph glyph-name="acircumflex" unicode="&#xe2;" horiz-adv-x="381" 
d="M336 484q21 0 30 -12t9 -33q0 -4 -3 -17.5t-7.5 -30t-9.5 -33.5t-8 -27q0 -8 -1 -16.5t-7 -22.5q-8 -6 -8 -19.5v-19.5l-3 -53v-39q0 -3 0.5 -10.5t2 -15t5.5 -13t11 -5.5l14 22q6 5 14 12.5t16 14.5q9 8 18 17q6 0 10 -5t4 -11l-4 -8q-4 -8 -8 -12q-7 -20 -18 -34.5
t-24 -28t-26.5 -27.5t-25.5 -32l-22 -31q0 -9 -5.5 -18.5t-13 -15t-16 -5t-13.5 11.5q-6 18 -6 35.5t3 34t6 31.5t3 29v36v20q0 5 -7 7q-4 1 -7 1t-15 -17.5t-27.5 -40t-31.5 -45.5t-26 -33q-3 -4 -9.5 -11.5t-14 -14.5t-16.5 -12.5t-16 -5.5q-14 0 -23 10t-14 23.5t-7.5 27
t-2.5 19.5l-3 72l14 117q0 3 3 14t8 24t11.5 25.5t13.5 20.5q29 27 56 66q13 18 25 26t24 12.5t24 7t27 10.5q6 0 15.5 6.5t17.5 12.5h28h17zM208 373q-18 -15 -34 -34.5t-28 -39.5t-19 -37.5t-7 -27.5q0 -5 -1 -18.5t1 -28t7.5 -26t19.5 -11.5q13 0 30.5 23t33 52t26 54
t10.5 30q0 4 1 19.5t-1.5 30t-11 21t-27.5 -6.5zM317 926q6 -5 12.5 -15.5t12.5 -20.5q7 -12 16.5 -24t18.5 -27t16 -33.5t10 -41.5l14 -22l8 -14q5 -17 8 -29.5t3 -31.5q0 -5 -1 -14.5t-4 -18.5t-9 -15.5t-16 -6.5q-9 0 -15 6.5t-9.5 15.5t-6 17.5t-5.5 12.5q-7 9 -13.5 21
t-17.5 18q-6 23 -11 39.5t-11 33.5q-5 14 -14.5 25t-21.5 22q-5 -5 -8.5 -12t-5.5 -13l-8 -20q-18 -15 -24.5 -24.5t-11.5 -18.5t-13 -19.5t-29 -26.5l-14 -13q-13 -13 -20.5 -21.5t-12.5 -15.5t-9.5 -12t-10.5 -10h-6q-8 0 -11 4t-8 4q2 9 4.5 16.5t6.5 11.5l6 14
q4 17 13 30t20 26l14 22q5 5 16 23t24.5 40t29 44.5t30.5 37.5q6 6 11 13.5t11 13.5l28 23z" />
    <glyph glyph-name="atilde" unicode="&#xe3;" horiz-adv-x="381" 
d="M336 484q21 0 30 -12t9 -33q0 -4 -3 -17.5t-7.5 -30t-9.5 -33.5t-8 -27q0 -8 -1 -16.5t-7 -22.5q-8 -6 -8 -19.5v-19.5l-3 -53v-39q0 -3 0.5 -10.5t2 -15t5.5 -13t11 -5.5l14 22q6 5 14 12.5t16 14.5q9 8 18 17q6 0 10 -5t4 -11l-4 -8q-4 -8 -8 -12q-7 -20 -18 -34.5
t-24 -28t-26.5 -27.5t-25.5 -32l-22 -31q0 -9 -5.5 -18.5t-13 -15t-16 -5t-13.5 11.5q-6 18 -6 35.5t3 34t6 31.5t3 29v36v20q0 5 -7 7q-4 1 -7 1t-15 -17.5t-27.5 -40t-31.5 -45.5t-26 -33q-3 -4 -9.5 -11.5t-14 -14.5t-16.5 -12.5t-16 -5.5q-14 0 -23 10t-14 23.5t-7.5 27
t-2.5 19.5l-3 72l14 117q0 3 3 14t8 24t11.5 25.5t13.5 20.5q29 27 56 66q13 18 25 26t24 12.5t24 7t27 10.5q6 0 15.5 6.5t17.5 12.5h28h17zM208 373q-18 -15 -34 -34.5t-28 -39.5t-19 -37.5t-7 -27.5q0 -5 -1 -18.5t1 -28t7.5 -26t19.5 -11.5q13 0 30.5 23t33 52t26 54
t10.5 30q0 4 1 19.5t-1.5 30t-11 21t-27.5 -6.5zM103 614q0 13 2.5 21t2.5 21q0 19 9 33.5t22 22.5q5 0 9 0.5t10 4.5q9 7 14.5 13.5t13.5 6.5q15 0 25.5 -1t24.5 -8h10t7 -2q8 0 18 -5t21 -9q13 -8 30 -20t28 -16q17 -7 37 -10.5t33 -3.5h13t12 2q11 7 13 17.5t6 21.5
q5 5 1 16.5t-4 22.5q0 5 -2.5 7t-2.5 13q0 12 11 20t25 8q11 0 18.5 -3.5t12.5 -8.5q11 -4 15.5 -8t9.5 -8q4 -7 4.5 -15t0.5 -19q0 -40 -30 -72q-5 -4 -8.5 -11.5t-8.5 -13.5q-21 -13 -50 -24.5t-56 -11.5q-20 0 -37.5 6t-34 14t-33 16.5t-34.5 13.5q-8 0 -18 3t-21 3
q-20 0 -39 -6.5t-38 -27.5q-9 -2 -12 -9.5t-11 -7.5h-19v14z" />
    <glyph glyph-name="adieresis" unicode="&#xe4;" horiz-adv-x="381" 
d="M336 484q21 0 30 -12t9 -33q0 -4 -3 -17.5t-7.5 -30t-9.5 -33.5t-8 -27q0 -8 -1 -16.5t-7 -22.5q-8 -6 -8 -19.5v-19.5l-3 -53v-39q0 -3 0.5 -10.5t2 -15t5.5 -13t11 -5.5l14 22q6 5 14 12.5t16 14.5q9 8 18 17q6 0 10 -5t4 -11l-4 -8q-4 -8 -8 -12q-7 -20 -18 -34.5
t-24 -28t-26.5 -27.5t-25.5 -32l-22 -31q0 -9 -5.5 -18.5t-13 -15t-16 -5t-13.5 11.5q-6 18 -6 35.5t3 34t6 31.5t3 29v36v20q0 5 -7 7q-4 1 -7 1t-15 -17.5t-27.5 -40t-31.5 -45.5t-26 -33q-3 -4 -9.5 -11.5t-14 -14.5t-16.5 -12.5t-16 -5.5q-14 0 -23 10t-14 23.5t-7.5 27
t-2.5 19.5l-3 72l14 117q0 3 3 14t8 24t11.5 25.5t13.5 20.5q29 27 56 66q13 18 25 26t24 12.5t24 7t27 10.5q6 0 15.5 6.5t17.5 12.5h28h17zM208 373q-18 -15 -34 -34.5t-28 -39.5t-19 -37.5t-7 -27.5q0 -5 -1 -18.5t1 -28t7.5 -26t19.5 -11.5q13 0 30.5 23t33 52t26 54
t10.5 30q0 4 1 19.5t-1.5 30t-11 21t-27.5 -6.5zM34 637q1 11 8 18.5t16.5 12t21.5 7.5t23 6q7 3 12.5 9.5t10.5 13t10.5 11.5t14.5 5q12 0 16.5 -14t11.5 -25q6 -12 13.5 -21.5t14.5 -19t11.5 -20t4.5 -25.5q0 -6 -5 -10t-12 -7.5t-14.5 -7t-12.5 -8.5q-6 -6 -9.5 -12.5
t-6.5 -11t-7.5 -7.5t-13.5 -3q-11 0 -18 5.5t-13 13t-13 16t-17 13.5q-8 5 -16.5 15t-15.5 19.5t-11 17.5t-4 9zM288 665q14 14 29 23.5t34 20.5q5 2 8 6.5t6 8.5t6 7t8 3q9 0 14.5 -6t9.5 -14.5t8 -18t10 -16.5q6 -9 14 -14t14.5 -10.5t11 -12t4.5 -16.5q0 -9 -5.5 -15.5
t-13 -12t-15.5 -11.5t-13 -14q-6 -11 -13 -19.5t-20 -8.5t-18 8t-16 14q-8 7 -16.5 9.5t-16.5 13.5q-8 14 -12 19.5t-18 13.5q-7 5 -15 7t-8 12q0 9 8 12t15 11z" />
    <glyph glyph-name="aring" unicode="&#xe5;" horiz-adv-x="381" 
d="M336 484q21 0 30 -12t9 -33q0 -4 -3 -17.5t-7.5 -30t-9.5 -33.5t-8 -27q0 -8 -1 -16.5t-7 -22.5q-8 -6 -8 -19.5v-19.5l-3 -53v-39q0 -3 0.5 -10.5t2 -15t5.5 -13t11 -5.5l14 22q6 5 14 12.5t16 14.5q9 8 18 17q6 0 10 -5t4 -11l-4 -8q-4 -8 -8 -12q-7 -20 -18 -34.5
t-24 -28t-26.5 -27.5t-25.5 -32l-22 -31q0 -9 -5.5 -18.5t-13 -15t-16 -5t-13.5 11.5q-6 18 -6 35.5t3 34t6 31.5t3 29v36v20q0 5 -7 7q-4 1 -7 1t-15 -17.5t-27.5 -40t-31.5 -45.5t-26 -33q-3 -4 -9.5 -11.5t-14 -14.5t-16.5 -12.5t-16 -5.5q-14 0 -23 10t-14 23.5t-7.5 27
t-2.5 19.5l-3 72l14 117q0 3 3 14t8 24t11.5 25.5t13.5 20.5q29 27 56 66q13 18 25 26t24 12.5t24 7t27 10.5q6 0 15.5 6.5t17.5 12.5h28h17zM208 373q-18 -15 -34 -34.5t-28 -39.5t-19 -37.5t-7 -27.5q0 -5 -1 -18.5t1 -28t7.5 -26t19.5 -11.5q13 0 30.5 23t33 52t26 54
t10.5 30q0 4 1 19.5t-1.5 30t-11 21t-27.5 -6.5zM256 853q17 7 40 4.5t40 -4.5q11 0 23 -11t16 -19q3 -4 5.5 -12.5t3.5 -17.5t1.5 -16.5t0.5 -9.5q0 -59 -16.5 -96.5t-66.5 -56.5q-19 -12 -46.5 -13t-50.5 5q-5 2 -10 9.5t-10 9.5q-11 5 -16.5 15t-8 21t-3 22.5t-0.5 19.5
q0 17 4 32t10 29q17 32 37.5 52t46.5 37zM259 784q-9 -3 -12 -6.5t-4.5 -7t-2.5 -8t-4 -9.5q0 -2 -2.5 -8.5t-2.5 -10.5q0 -6 0.5 -8.5t0.5 -4v-4t-1 -8.5q0 -6 4.5 -12.5t9.5 -12.5q4 -6 10.5 -11.5t16.5 -5.5q7 0 15.5 5t12.5 9q19 21 21 45t-21 50q-4 6 -9 7t-7 1
q-5 2 -13 3.5t-12 -3.5z" />
    <glyph glyph-name="ae" unicode="&#xe6;" horiz-adv-x="642" 
d="M522 475q21 0 35.5 -7.5t23.5 -20.5t13 -30t3 -36q0 -27 -20 -43.5t-41 -28.5q-19 -13 -40.5 -23t-40 -22t-31 -28t-13.5 -41v-42q-2 -17 7 -33.5t23 -16.5q1 -1 8 3t15.5 9.5t17 11.5t12.5 9q15 7 23.5 11.5t12.5 2.5q7 0 12 -2t5 -15q-2 -22 -19 -42.5t-37 -38
t-39 -30.5t-25 -19q-17 -15 -31.5 -16t-29.5 -1q-9 1 -18.5 8t-17 16.5t-11.5 19.5t-5 7q-3 13 -17 44l-16 40l-28 32q0 5 -7 7q-4 1 -7 1t-15 -17.5t-27.5 -40t-31.5 -45.5t-26 -33q-3 -4 -9.5 -11.5t-14 -14.5t-16.5 -12.5t-16 -5.5q-14 0 -23 10t-14 23.5t-7.5 27
t-2.5 19.5l-3 72l14 117q0 3 3 14t8 24t11.5 25.5t13.5 20.5q29 27 56 66q13 18 25 26t24 12.5t24 7t27 10.5q6 0 15.5 6.5t17.5 12.5h45l19 9q21 0 30 -12t9 -33q0 -4 -3 -17.5t-7.5 -30t-9.5 -33.5t-8 -27q0 -5 11 16q2 22 21 45.5t44.5 42.5t52.5 30.5t46 9.5zM208 373
q-18 -15 -34 -34.5t-28 -39.5t-19 -37.5t-7 -27.5q0 -5 -1 -18.5t1 -28t7.5 -26t19.5 -11.5q13 0 30.5 23t33 52t26 54t10.5 30q0 4 1 19.5t-1.5 30t-11 21t-27.5 -6.5zM477 400q-5 0 -10 -7.5t-10 -16.5q-5 -11 -10 -23q-1 -5 -3 -11.5t-3 -12t1 -9t8 -3.5q5 -1 15 2
t20.5 9t19 14.5t9.5 18.5v17q0 5 -3 9t-7 6q-4 3 -10 5z" />
    <glyph glyph-name="ccedilla" unicode="&#xe7;" horiz-adv-x="281" 
d="M231 473q13 -2 28.5 -6t27.5 -11.5t19 -20t5 -32.5q0 -11 -4.5 -21t-11 -18.5t-14.5 -13.5t-14 -5q-8 1 -13.5 1.5t-8.5 0.5h-6h-8q-17 0 -38 -1t-29 -7q-8 0 -9.5 -5t-1.5 -12l-14 -22q-2 -12 -4 -23l-4 -18t-3 -12v-16l-8 -28q-2 -4 -5 -8q-2 -4 -4 -7.5t-3 -6.5
q0 -9 3 -24.5t8 -30t11.5 -25.5t14.5 -12q15 0 31 12t31.5 26.5t30 26t26.5 10.5q15 -2 17 -7.5t0 -11.5q-1 -14 -11.5 -32t-25 -35.5t-30 -32t-25.5 -20.5q-33 -21 -59 -35t-58 -12q-14 1 -23 14.5t-14 31t-7.5 34.5t-2.5 25l3 9q0 4 -1 13.5t-1.5 20t-1 20.5t0.5 15
q0 31 7 48.5t7 37.5l11 25v23q1 3 5 15.5t9.5 28t10.5 31.5t8 25q0 6 7 15t16.5 17.5t20 14.5t18.5 6q6 2 7 3t1 2t1 2.5t7 3.5q15 2 23 4.5t15 5t13.5 4t18.5 0.5zM11 -111q0 12 16 22t29 22q6 7 13.5 8t13.5 1q7 8 9 13.5t8 5.5q13 0 26 -1t21 -7q5 0 7 -6.5t10 -13.5
q6 -6 12.5 -13.5t6.5 -22.5q0 -27 -8.5 -50t-27.5 -50q-8 -6 -15 -9t-15 -16q-2 -7 -6.5 -11t-10.5 -7.5t-12.5 -7.5t-12.5 -10q-7 -8 -11.5 -12t-9 -6.5t-10.5 -4.5t-16 -5h-9t-12 1t-10.5 2.5t-4.5 4.5q0 10 6 17.5t15.5 13.5t20.5 12t22 13q6 6 8.5 17t10.5 19
q13 13 19 20.5t6 15.5q0 13 -5 16t-12 9q-6 8 -13.5 14t-13.5 6q-3 0 -5.5 -3t-5 -7t-6.5 -7t-11 -3t-12 6.5t-5 13.5z" />
    <glyph glyph-name="egrave" unicode="&#xe8;" horiz-adv-x="284" 
d="M242 475q21 0 35.5 -7.5t23.5 -20.5t13 -30t3 -36q0 -27 -20 -43.5t-41 -28.5q-19 -13 -40.5 -23t-40 -22t-31 -28t-13.5 -41v-42q-2 -17 7 -33.5t23 -16.5q1 -1 8 3t15.5 9.5t17 11.5t12.5 9q15 7 23.5 11.5t12.5 2.5q7 0 12 -2t5 -15q-2 -22 -19 -42.5t-37 -38
t-39 -30.5t-25 -19q-17 -15 -31.5 -16t-29.5 -1q-9 1 -18.5 8t-17 16.5t-11.5 19.5t-3 17v17q0 7 -4 15q-2 4 -4 7l3 20v16q0 4 2 21.5t5 38t5.5 39t3.5 24.5q4 3 4 6t-1 6t-1 7.5t4 10.5q0 12 5 25l6 14l14 33q2 22 21 45.5t44.5 42.5t52.5 30.5t46 9.5zM197 400
q-5 0 -10 -7.5t-10 -16.5q-5 -11 -10 -23q-1 -5 -3 -11.5t-3 -12t1 -9t8 -3.5q5 -1 15 2t20.5 9t19 14.5t9.5 18.5v17q0 5 -3 9t-7 6q-4 3 -10 5zM33 945q5 -8 12.5 -19t18.5 -17q11 -8 21 -19.5t18 -22.5q19 -20 33.5 -39t27.5 -38q3 -1 6.5 -6.5t7.5 -11.5t8 -11t9 -5
q3 -8 9 -17t12.5 -18.5t11.5 -20t6 -22.5q6 -2 6.5 -6.5t6.5 -4.5q5 -6 1 -13.5t-6 -14.5q-2 -11 -15.5 -19t-26.5 -6q-6 1 -15.5 9.5t-18.5 19.5t-16.5 21l-10.5 14q-8 11 -16.5 18t-16.5 21q-13 17 -21.5 37.5t-23.5 46.5q-1 9 -7 25t-14 33t-17 34.5t-15 29.5
q-6 17 3.5 23.5t21.5 -1.5z" />
    <glyph glyph-name="eacute" unicode="&#xe9;" horiz-adv-x="284" 
d="M242 475q21 0 35.5 -7.5t23.5 -20.5t13 -30t3 -36q0 -27 -20 -43.5t-41 -28.5q-19 -13 -40.5 -23t-40 -22t-31 -28t-13.5 -41v-42q-2 -17 7 -33.5t23 -16.5q1 -1 8 3t15.5 9.5t17 11.5t12.5 9q15 7 23.5 11.5t12.5 2.5q7 0 12 -2t5 -15q-2 -22 -19 -42.5t-37 -38
t-39 -30.5t-25 -19q-17 -15 -31.5 -16t-29.5 -1q-9 1 -18.5 8t-17 16.5t-11.5 19.5t-3 17v17q0 7 -4 15q-2 4 -4 7l3 20v16q0 4 2 21.5t5 38t5.5 39t3.5 24.5q4 3 4 6t-1 6t-1 7.5t4 10.5q0 12 5 25l6 14l14 33q2 22 21 45.5t44.5 42.5t52.5 30.5t46 9.5zM197 400
q-5 0 -10 -7.5t-10 -16.5q-5 -11 -10 -23q-1 -5 -3 -11.5t-3 -12t1 -9t8 -3.5q5 -1 15 2t20.5 9t19 14.5t9.5 18.5v17q0 5 -3 9t-7 6q-4 3 -10 5zM278 770q0 15 4 22.5t4 13.5q13 15 24 30.5t24 28.5q14 19 27.5 38t27.5 34q7 0 14.5 1.5t13.5 9.5q8 0 15 4t16 4
q12 0 14 -11t2 -19v-17v-19q0 -14 -3 -22.5t-9 -16t-14.5 -15t-20.5 -19.5q-14 -14 -23.5 -27.5t-23.5 -27.5q-7 -7 -9 -13.5t-8 -14.5q-7 -12 -14 -19.5t-13 -14.5t-12 -16t-11 -22l-5.5 -11t-8 -14t-10 -12t-12.5 -5q-13 0 -23 8t-10 23q0 8 5 14.5t11 21.5q0 8 6 18.5
t11 17.5q0 17 5.5 25.5t5.5 21.5z" />
    <glyph glyph-name="ecircumflex" unicode="&#xea;" horiz-adv-x="284" 
d="M242 475q40 0 57.5 -25.5t17.5 -60.5q0 -25 -14 -41.5t-34.5 -29t-44.5 -23.5t-44.5 -24t-34.5 -31t-14 -45v-42q0 -15 8 -32.5t22 -17.5q7 0 20 7.5t26 16t24 16t16 7.5q7 0 13.5 -2t6.5 -15q-2 -22 -19 -42.5t-37 -38t-39 -30.5t-25 -19q-12 -13 -24 -15t-23 -2
q-25 0 -44.5 19t-19.5 42v17q0 8 -3.5 17.5t-1.5 24.5v16q0 4 2 21.5t5 38t5.5 39t3.5 24.5q8 4 5.5 8.5t-2.5 10.5q0 2 0.5 4.5t2.5 6.5q0 9 5.5 27.5t16 40.5t26 45.5t36.5 42.5t47.5 31.5t57.5 12.5zM197 400q-5 0 -10 -7.5t-10 -16.5q-5 -11 -10 -23q0 -6 -3 -13.5
t-3 -14.5q0 -8 9 -8q5 0 15 3t20.5 9t19 14t9.5 18v17q0 5 -3 9t-7 6q-4 3 -10 5zM317 926q6 -5 12.5 -15.5t12.5 -20.5q7 -12 16.5 -24t18.5 -27t16 -33.5t10 -41.5l14 -22l8 -14q5 -17 8 -29.5t3 -31.5q0 -5 -1 -14.5t-4 -18.5t-9 -15.5t-16 -6.5q-9 0 -15 6.5t-9.5 15.5
t-6 17.5t-5.5 12.5q-7 9 -13.5 21t-17.5 18q-6 23 -11 39.5t-11 33.5q-5 14 -14.5 25t-21.5 22q-5 -5 -8.5 -12t-5.5 -13l-8 -20q-18 -15 -24.5 -24.5t-11.5 -18.5t-13 -19.5t-29 -26.5l-14 -13q-13 -13 -20.5 -21.5t-12.5 -15.5t-9.5 -12t-10.5 -10h-6q-8 0 -11 4t-8 4
q2 9 4.5 16.5t6.5 11.5l6 14q4 17 13 30t20 26l14 22q5 5 16 23t24.5 40t29 44.5t30.5 37.5q6 6 11 13.5t11 13.5l28 23z" />
    <glyph glyph-name="edieresis" unicode="&#xeb;" horiz-adv-x="284" 
d="M242 475q21 0 35.5 -7.5t23.5 -20.5t13 -30t3 -36q0 -27 -20 -43.5t-41 -28.5q-19 -13 -40.5 -23t-40 -22t-31 -28t-13.5 -41v-42q-2 -17 7 -33.5t23 -16.5q1 -1 8 3t15.5 9.5t17 11.5t12.5 9q15 7 23.5 11.5t12.5 2.5q7 0 12 -2t5 -15q-2 -22 -19 -42.5t-37 -38
t-39 -30.5t-25 -19q-17 -15 -31.5 -16t-29.5 -1q-9 1 -18.5 8t-17 16.5t-11.5 19.5t-3 17v17q0 7 -4 15q-2 4 -4 7l3 20v16q0 4 2 21.5t5 38t5.5 39t3.5 24.5q4 3 4 6t-1 6t-1 7.5t4 10.5q0 12 5 25l6 14l14 33q2 22 21 45.5t44.5 42.5t52.5 30.5t46 9.5zM197 400
q-5 0 -10 -7.5t-10 -16.5q-5 -11 -10 -23q-1 -5 -3 -11.5t-3 -12t1 -9t8 -3.5q5 -1 15 2t20.5 9t19 14.5t9.5 18.5v17q0 5 -3 9t-7 6q-4 3 -10 5zM13 637q1 11 8 18.5t16.5 12t21.5 7.5t23 6q7 3 12.5 9.5t10.5 13t10.5 11.5t14.5 5q12 0 16.5 -14t11.5 -25
q6 -12 13.5 -21.5t14.5 -19t11.5 -20t4.5 -25.5q0 -6 -5 -10t-12 -7.5t-14.5 -7t-12.5 -8.5q-6 -6 -9.5 -12.5t-6.5 -11t-7.5 -7.5t-13.5 -3q-11 0 -18 5.5t-13 13t-13 16t-17 13.5q-8 5 -16.5 15t-15.5 19.5t-11 17.5t-4 9zM267 665q14 14 29 23.5t34 20.5q5 2 8 6.5t6 8.5
t6 7t8 3q9 0 14.5 -6t9.5 -14.5t8 -18t10 -16.5q6 -9 14 -14t14.5 -10.5t11 -12t4.5 -16.5q0 -9 -5.5 -15.5t-13 -12t-15.5 -11.5t-13 -14q-6 -11 -13 -19.5t-20 -8.5t-18 8t-16 14q-8 7 -16.5 9.5t-16.5 13.5q-8 14 -12 19.5t-18 13.5q-7 5 -15 7t-8 12q0 9 8 12t15 11z
" />
    <glyph glyph-name="igrave" unicode="&#xec;" horiz-adv-x="253" 
d="M167 481q17 0 28 -12.5t11 -26.5l-9 -28q6 -6 8 -17q1 -5 1 -11q0 -20 -4.5 -37t-4.5 -38v-8q0 -5 -1 -11.5t-3 -12.5q-2 -7 -4 -15v-11q0 -11 -3.5 -18t-7.5 -18q-2 -8 -6.5 -16.5t-4.5 -19.5q0 -4 2 -10.5t6 -13t9.5 -11t12.5 -4.5q8 0 14.5 5t10.5 11q5 5 10.5 8.5
t12.5 3.5h19q6 0 7 -6t1 -14q0 -3 -9 -12t-20 -19.5t-22 -20t-15 -12.5q-3 -7 -13 -24t-22 -34.5t-25.5 -31t-23.5 -13.5q-7 0 -15.5 4.5t-15.5 12t-11.5 15.5t-4.5 16v16q0 8 -1 14t-7 6v19l8 28v47q0 15 4 24t4 23v9q0 7 4.5 20t9.5 28t9.5 29.5t4.5 25.5q0 8 -6.5 17.5
t-21.5 9.5q-6 0 -10.5 -4t-25.5 -4q-2 1 -4 5q-4 6 -4 15v16q0 9 17.5 26.5t40 35t43.5 31t27 13.5zM3 945q4 -8 11.5 -19t18.5 -17q11 -8 21 -19.5t18 -22.5q38 -41 61 -77q3 -1 7 -6.5t8 -11.5t8 -11t8 -5q3 -8 9 -17t12.5 -18.5t11.5 -20t6 -22.5q6 -2 6.5 -6.5t7.5 -4.5
q4 -6 0 -13.5t-6 -14.5q-2 -11 -15.5 -19t-25.5 -6q-6 1 -15.5 9.5t-18.5 19.5t-17 21t-11 14q-8 11 -16.5 18t-16.5 21q-13 17 -21.5 37.5t-22.5 46.5q-1 9 -7 25t-14.5 33t-17 34.5t-14.5 29.5q-7 17 2.5 23.5t22.5 -1.5z" />
    <glyph glyph-name="iacute" unicode="&#xed;" horiz-adv-x="253" 
d="M167 481q17 0 28 -12.5t11 -26.5l-9 -28q6 -6 8 -17q1 -5 1 -11q0 -20 -4.5 -37t-4.5 -38v-8q0 -5 -1 -11.5t-3 -12.5q-2 -7 -4 -15v-11q0 -11 -3.5 -18t-7.5 -18q-2 -8 -6.5 -16.5t-4.5 -19.5q0 -4 2 -10.5t6 -13t9.5 -11t12.5 -4.5q8 0 14.5 5t10.5 11q5 5 10.5 8.5
t12.5 3.5h19q6 0 7 -6t1 -14q0 -3 -9 -12t-20 -19.5t-22 -20t-15 -12.5q-3 -7 -13 -24t-22 -34.5t-25.5 -31t-23.5 -13.5q-7 0 -15.5 4.5t-15.5 12t-11.5 15.5t-4.5 16v16q0 8 -1 14t-7 6v19l8 28v47q0 15 4 24t4 23v9q0 7 4.5 20t9.5 28t9.5 29.5t4.5 25.5q0 8 -6.5 17.5
t-21.5 9.5q-6 0 -10.5 -4t-25.5 -4q-2 1 -4 5q-4 6 -4 15v16q0 9 17.5 26.5t40 35t43.5 31t27 13.5zM225 770q0 15 4.5 22.5t4.5 13.5q12 15 23 30.5t24 28.5q14 19 27.5 38t27.5 34q7 0 14.5 1.5t13.5 9.5q8 0 15.5 4t15.5 4q12 0 14 -11t2 -19v-17v-19q0 -14 -3 -22.5
t-9 -16t-14.5 -15t-20.5 -19.5q-14 -14 -23.5 -27.5t-23.5 -27.5q-6 -7 -8 -13.5t-9 -14.5q-7 -12 -14 -19.5t-13 -14.5t-12 -16t-11 -22q-2 -4 -5 -11t-7.5 -14t-10.5 -12t-13 -5q-13 0 -23 8t-10 23q0 8 5 14.5t11 21.5q0 8 6 18.5t11 17.5q0 17 5.5 25.5t5.5 21.5z" />
    </font>
</defs>
</svg>
